<ttFont>
    <TTGlyph name=".notdef" xMin="68" yMin="0" xMax="612" yMax="1365">
      <contour>
        <pt x="68" y="0" on="1"/>
        <pt x="68" y="1365" on="1"/>
        <pt x="612" y="1365" on="1"/>
        <pt x="612" y="0" on="1"/>
      </contour>
      <contour>
        <pt x="136" y="68" on="1"/>
        <pt x="544" y="68" on="1"/>
        <pt x="544" y="1297" on="1"/>
        <pt x="136" y="1297" on="1"/>
      </contour>
    </TTGlyph>
    <TTGlyph name="A" xMin="58" yMin="-13" xMax="1834" yMax="1503">
      <contour>
        <pt x="1044" y="535" on="1"/>
        <pt x="616" y="535" on="1"/>
        <pt x="584" y="429" on="0"/>
        <pt x="584" y="394" on="1"/>
        <pt x="584" y="357" on="0"/>
        <pt x="618" y="313" on="0"/>
        <pt x="666" y="297" on="0"/>
        <pt x="715" y="287" on="0"/>
        <pt x="749" y="269" on="0"/>
        <pt x="749" y="251" on="1"/>
        <pt x="749" y="33" on="0"/>
        <pt x="656" y="-13" on="1"/>
        <pt x="557" y="0" on="0"/>
        <pt x="217" y="0" on="0"/>
        <pt x="118" y="-13" on="1"/>
        <pt x="58" y="26" on="0"/>
        <pt x="58" y="196" on="1"/>
        <pt x="58" y="243" on="0"/>
        <pt x="95" y="289" on="0"/>
        <pt x="156" y="303" on="0"/>
        <pt x="221" y="317" on="0"/>
        <pt x="288" y="371" on="0"/>
        <pt x="307" y="422" on="1"/>
        <pt x="552" y="1063" on="1"/>
        <pt x="576" y="1126" on="0"/>
        <pt x="576" y="1155" on="1"/>
        <pt x="576" y="1178" on="0"/>
        <pt x="558" y="1199" on="0"/>
        <pt x="534" y="1204" on="0"/>
        <pt x="509" y="1211" on="0"/>
        <pt x="491" y="1241" on="0"/>
        <pt x="491" y="1270" on="1"/>
        <pt x="491" y="1368" on="0"/>
        <pt x="533" y="1492" on="0"/>
        <pt x="558" y="1503" on="1"/>
        <pt x="728" y="1489" on="0"/>
        <pt x="934" y="1489" on="1"/>
        <pt x="1123" y="1489" on="0"/>
        <pt x="1221" y="1503" on="1"/>
        <pt x="1242" y="1496" on="0"/>
        <pt x="1262" y="1443" on="1"/>
        <pt x="1574" y="604" on="1"/>
        <pt x="1619" y="482" on="0"/>
        <pt x="1724" y="294" on="0"/>
        <pt x="1758" y="294" on="1"/>
        <pt x="1776" y="291" on="0"/>
        <pt x="1795" y="286" on="0"/>
        <pt x="1822" y="272" on="0"/>
        <pt x="1834" y="246" on="0"/>
        <pt x="1834" y="227" on="1"/>
        <pt x="1834" y="156" on="0"/>
        <pt x="1793" y="5" on="0"/>
        <pt x="1756" y="-13" on="1"/>
        <pt x="1644" y="0" on="0"/>
        <pt x="1437" y="0" on="1"/>
        <pt x="1163" y="0" on="0"/>
        <pt x="1028" y="-13" on="1"/>
        <pt x="991" y="5" on="0"/>
        <pt x="950" y="156" on="0"/>
        <pt x="950" y="227" on="1"/>
        <pt x="950" y="246" on="0"/>
        <pt x="963" y="272" on="0"/>
        <pt x="988" y="286" on="0"/>
        <pt x="1009" y="292" on="0"/>
        <pt x="1026" y="294" on="1"/>
        <pt x="1078" y="295" on="0"/>
        <pt x="1078" y="382" on="1"/>
        <pt x="1078" y="457" on="0"/>
      </contour>
      <contour>
        <pt x="1000" y="705" on="1"/>
        <pt x="981" y="764" on="0"/>
        <pt x="897" y="1003" on="1"/>
        <pt x="893" y="1015" on="0"/>
        <pt x="885" y="1037" on="1"/>
        <pt x="876" y="1064" on="0"/>
        <pt x="867" y="1088" on="0"/>
        <pt x="856" y="1115" on="0"/>
        <pt x="848" y="1125" on="0"/>
        <pt x="845" y="1125" on="1"/>
        <pt x="836" y="1125" on="0"/>
        <pt x="805" y="1042" on="1"/>
        <pt x="681" y="705" on="1"/>
      </contour>
    </TTGlyph>
    <TTGlyph name="AE" xMin="40" yMin="-13" xMax="2377" yMax="1503">
      <contour>
        <pt x="1126" y="705" on="1"/>
        <pt x="1124" y="739" on="0"/>
        <pt x="1108" y="1003" on="1"/>
        <pt x="1094" y="1125" on="0"/>
        <pt x="1091" y="1125" on="1"/>
        <pt x="1081" y="1125" on="0"/>
        <pt x="1055" y="1089" on="0"/>
        <pt x="1027" y="1042" on="1"/>
        <pt x="807" y="705" on="1"/>
      </contour>
      <contour>
        <pt x="1285" y="1487" on="1"/>
        <pt x="1409" y="1489" on="0"/>
        <pt x="1473" y="1489" on="1"/>
        <pt x="1802" y="1489" on="0"/>
        <pt x="2062" y="1503" on="1"/>
        <pt x="2112" y="1439" on="0"/>
        <pt x="2217" y="1209" on="0"/>
        <pt x="2217" y="1137" on="1"/>
        <pt x="2217" y="1109" on="0"/>
        <pt x="2181" y="1065" on="0"/>
        <pt x="2126" y="1043" on="0"/>
        <pt x="2074" y="1033" on="0"/>
        <pt x="2051" y="1033" on="1"/>
        <pt x="2044" y="1033" on="0"/>
        <pt x="1998" y="1083" on="0"/>
        <pt x="1929" y="1154" on="0"/>
        <pt x="1845" y="1226" on="0"/>
        <pt x="1735" y="1276" on="0"/>
        <pt x="1682" y="1276" on="1"/>
        <pt x="1665" y="1276" on="0"/>
        <pt x="1644" y="1270" on="0"/>
        <pt x="1618" y="1249" on="0"/>
        <pt x="1605" y="1197" on="0"/>
        <pt x="1605" y="1155" on="1"/>
        <pt x="1605" y="1100" on="0"/>
        <pt x="1614" y="1037" on="1"/>
        <pt x="1644" y="819" on="1"/>
        <pt x="1760" y="968" on="0"/>
        <pt x="1895" y="968" on="1"/>
        <pt x="1988" y="968" on="0"/>
        <pt x="2098" y="855" on="0"/>
        <pt x="2098" y="782" on="1"/>
        <pt x="2098" y="702" on="0"/>
        <pt x="2002" y="593" on="0"/>
        <pt x="1938" y="593" on="1"/>
        <pt x="1898" y="635" on="0"/>
        <pt x="1793" y="690" on="0"/>
        <pt x="1743" y="690" on="1"/>
        <pt x="1696" y="690" on="0"/>
        <pt x="1667" y="641" on="1"/>
        <pt x="1703" y="378" on="1"/>
        <pt x="1703" y="194" on="0"/>
        <pt x="1770" y="194" on="1"/>
        <pt x="1858" y="194" on="1"/>
        <pt x="1906" y="205" on="0"/>
        <pt x="1985" y="270" on="0"/>
        <pt x="2052" y="383" on="0"/>
        <pt x="2102" y="497" on="0"/>
        <pt x="2132" y="582" on="1"/>
        <pt x="2143" y="586" on="0"/>
        <pt x="2161" y="586" on="1"/>
        <pt x="2214" y="586" on="0"/>
        <pt x="2348" y="538" on="0"/>
        <pt x="2367" y="507" on="1"/>
        <pt x="2377" y="497" on="0"/>
        <pt x="2377" y="473" on="1"/>
        <pt x="2377" y="360" on="0"/>
        <pt x="2344" y="127" on="1"/>
        <pt x="2324" y="31" on="0"/>
        <pt x="2300" y="-11" on="1"/>
        <pt x="2027" y="-2" on="0"/>
        <pt x="1794" y="-2" on="1"/>
        <pt x="1651" y="-2" on="0"/>
        <pt x="1204" y="-13" on="0"/>
        <pt x="1066" y="-13" on="1"/>
        <pt x="1021" y="6" on="0"/>
        <pt x="973" y="171" on="0"/>
        <pt x="973" y="247" on="1"/>
        <pt x="973" y="266" on="0"/>
        <pt x="985" y="292" on="0"/>
        <pt x="1012" y="305" on="0"/>
        <pt x="1034" y="310" on="0"/>
        <pt x="1054" y="312" on="1"/>
        <pt x="1070" y="315" on="0"/>
        <pt x="1091" y="341" on="0"/>
        <pt x="1103" y="392" on="0"/>
        <pt x="1108" y="435" on="0"/>
        <pt x="1115" y="514" on="0"/>
        <pt x="1117" y="535" on="1"/>
        <pt x="694" y="535" on="1"/>
        <pt x="690" y="528" on="0"/>
        <pt x="664" y="491" on="0"/>
        <pt x="654" y="477" on="0"/>
        <pt x="636" y="446" on="0"/>
        <pt x="629" y="428" on="0"/>
        <pt x="622" y="404" on="0"/>
        <pt x="622" y="394" on="1"/>
        <pt x="622" y="357" on="0"/>
        <pt x="648" y="313" on="0"/>
        <pt x="684" y="297" on="0"/>
        <pt x="720" y="287" on="0"/>
        <pt x="746" y="269" on="0"/>
        <pt x="746" y="251" on="1"/>
        <pt x="746" y="153" on="0"/>
        <pt x="666" y="11" on="0"/>
        <pt x="578" y="-13" on="1"/>
        <pt x="482" y="0" on="0"/>
        <pt x="313" y="0" on="1"/>
        <pt x="141" y="0" on="0"/>
        <pt x="40" y="-13" on="1"/>
        <pt x="40" y="196" on="1"/>
        <pt x="40" y="243" on="0"/>
        <pt x="87" y="289" on="0"/>
        <pt x="163" y="303" on="0"/>
        <pt x="245" y="317" on="0"/>
        <pt x="329" y="371" on="0"/>
        <pt x="353" y="422" on="1"/>
        <pt x="780" y="1063" on="1"/>
        <pt x="831" y="1128" on="0"/>
        <pt x="831" y="1155" on="1"/>
        <pt x="831" y="1183" on="0"/>
        <pt x="814" y="1205" on="0"/>
        <pt x="795" y="1204" on="0"/>
        <pt x="778" y="1235" on="0"/>
        <pt x="778" y="1270" on="1"/>
        <pt x="778" y="1368" on="0"/>
        <pt x="863" y="1492" on="0"/>
        <pt x="912" y="1503" on="1"/>
        <pt x="1083" y="1487" on="0"/>
      </contour>
    </TTGlyph>
    <TTGlyph name="Aacute" xMin="58" yMin="-13" xMax="1834" yMax="2094">
      <component glyphName="acute" x="781" y="469" flags="0x1004"/>
      <component glyphName="A" x="0" y="0" flags="0x1204"/>
    </TTGlyph>
    <TTGlyph name="Abreve" xMin="58" yMin="-13" xMax="1834" yMax="1949">
      <component glyphName="breve" x="404" y="434" flags="0x1004"/>
      <component glyphName="A" x="0" y="0" flags="0x1204"/>
    </TTGlyph>
    <TTGlyph name="Acircumflex" xMin="58" yMin="-13" xMax="1834" yMax="2094">
      <component glyphName="circumflex" x="362" y="469" flags="0x1004"/>
      <component glyphName="A" x="0" y="0" flags="0x1204"/>
    </TTGlyph>
    <TTGlyph name="Adieresis" xMin="58" yMin="-13" xMax="1834" yMax="1985">
      <component glyphName="dieresis" x="362" y="470" flags="0x1004"/>
      <component glyphName="A" x="0" y="0" flags="0x1204"/>
    </TTGlyph>
    <TTGlyph name="Agrave" xMin="58" yMin="-13" xMax="1834" yMax="2094">
      <component glyphName="grave" x="18" y="469" flags="0x1004"/>
      <component glyphName="A" x="0" y="0" flags="0x1204"/>
    </TTGlyph>
    <TTGlyph name="Amacron" xMin="58" yMin="-13" xMax="1834" yMax="1902">
      <component glyphName="macron" x="432" y="413" flags="0x1004"/>
      <component glyphName="A" x="0" y="0" flags="0x1204"/>
    </TTGlyph>
    <TTGlyph name="Aogonek" xMin="58" yMin="-445" xMax="1834" yMax="1503">
      <component glyphName="ogonek" x="1289" y="4" flags="0x1004"/>
      <component glyphName="A" x="0" y="0" flags="0x1004"/>
    </TTGlyph>
    <TTGlyph name="Aring" xMin="58" yMin="-13" xMax="1834" yMax="1978">
      <component glyphName="ring" x="576" y="342" flags="0x1004"/>
      <component glyphName="A" x="0" y="0" flags="0x1204"/>
    </TTGlyph>
    <TTGlyph name="Atilde" xMin="58" yMin="-13" xMax="1834" yMax="1996">
      <component glyphName="tilde" x="356" y="455" flags="0x1004"/>
      <component glyphName="A" x="0" y="0" flags="0x1204"/>
    </TTGlyph>
    <TTGlyph name="B" xMin="39" yMin="-13" xMax="1583" yMax="1503">
      <contour>
        <pt x="816" y="869" on="1"/>
        <pt x="889" y="869" on="0"/>
        <pt x="960" y="962" on="0"/>
        <pt x="960" y="1075" on="1"/>
        <pt x="960" y="1115" on="0"/>
        <pt x="943" y="1204" on="0"/>
        <pt x="897" y="1279" on="0"/>
        <pt x="865" y="1279" on="1"/>
        <pt x="853" y="1279" on="0"/>
        <pt x="801" y="1271" on="1"/>
        <pt x="786" y="1243" on="0"/>
        <pt x="786" y="921" on="1"/>
        <pt x="786" y="892" on="1"/>
        <pt x="786" y="880" on="0"/>
        <pt x="798" y="869" on="0"/>
      </contour>
      <contour>
        <pt x="791" y="251" on="1"/>
        <pt x="803" y="232" on="0"/>
        <pt x="849" y="210" on="0"/>
        <pt x="871" y="210" on="1"/>
        <pt x="990" y="210" on="0"/>
        <pt x="990" y="493" on="1"/>
        <pt x="990" y="587" on="0"/>
        <pt x="929" y="709" on="0"/>
        <pt x="868" y="709" on="1"/>
        <pt x="816" y="709" on="0"/>
        <pt x="786" y="692" on="0"/>
        <pt x="786" y="673" on="1"/>
        <pt x="786" y="410" on="0"/>
      </contour>
      <contour>
        <pt x="556" y="1489" on="1"/>
        <pt x="619" y="1489" on="0"/>
        <pt x="884" y="1503" on="0"/>
        <pt x="951" y="1503" on="1"/>
        <pt x="1057" y="1503" on="0"/>
        <pt x="1231" y="1469" on="0"/>
        <pt x="1382" y="1390" on="0"/>
        <pt x="1467" y="1242" on="0"/>
        <pt x="1467" y="1138" on="1"/>
        <pt x="1467" y="1063" on="0"/>
        <pt x="1415" y="949" on="0"/>
        <pt x="1316" y="873" on="0"/>
        <pt x="1200" y="826" on="0"/>
        <pt x="1124" y="811" on="1"/>
        <pt x="1258" y="798" on="0"/>
        <pt x="1458" y="719" on="0"/>
        <pt x="1583" y="560" on="0"/>
        <pt x="1583" y="449" on="1"/>
        <pt x="1583" y="320" on="0"/>
        <pt x="1509" y="141" on="0"/>
        <pt x="1354" y="34" on="0"/>
        <pt x="1137" y="-13" on="0"/>
        <pt x="985" y="-13" on="1"/>
        <pt x="920" y="-13" on="0"/>
        <pt x="614" y="0" on="0"/>
        <pt x="524" y="0" on="1"/>
        <pt x="439" y="0" on="0"/>
        <pt x="97" y="-13" on="1"/>
        <pt x="69" y="6" on="0"/>
        <pt x="39" y="171" on="0"/>
        <pt x="39" y="247" on="1"/>
        <pt x="39" y="266" on="0"/>
        <pt x="53" y="292" on="0"/>
        <pt x="82" y="305" on="0"/>
        <pt x="106" y="310" on="0"/>
        <pt x="128" y="312" on="1"/>
        <pt x="158" y="315" on="0"/>
        <pt x="197" y="355" on="0"/>
        <pt x="215" y="424" on="0"/>
        <pt x="221" y="490" on="0"/>
        <pt x="221" y="535" on="1"/>
        <pt x="221" y="974" on="1"/>
        <pt x="221" y="1013" on="0"/>
        <pt x="218" y="1065" on="0"/>
        <pt x="208" y="1123" on="0"/>
        <pt x="189" y="1158" on="0"/>
        <pt x="155" y="1183" on="0"/>
        <pt x="131" y="1186" on="1"/>
        <pt x="110" y="1188" on="0"/>
        <pt x="85" y="1194" on="0"/>
        <pt x="56" y="1207" on="0"/>
        <pt x="42" y="1233" on="0"/>
        <pt x="42" y="1252" on="1"/>
        <pt x="42" y="1325" on="0"/>
        <pt x="72" y="1485" on="0"/>
        <pt x="100" y="1503" on="1"/>
        <pt x="116" y="1503" on="0"/>
        <pt x="467" y="1489" on="0"/>
      </contour>
    </TTGlyph>
    <TTGlyph name="C" xMin="37" yMin="-27" xMax="1481" yMax="1516">
      <contour>
        <pt x="875" y="-27" on="1"/>
        <pt x="709" y="-27" on="0"/>
        <pt x="429" y="62" on="0"/>
        <pt x="236" y="213" on="0"/>
        <pt x="100" y="415" on="0"/>
        <pt x="37" y="640" on="0"/>
        <pt x="37" y="759" on="1"/>
        <pt x="37" y="874" on="0"/>
        <pt x="94" y="1093" on="0"/>
        <pt x="211" y="1286" on="0"/>
        <pt x="375" y="1432" on="0"/>
        <pt x="605" y="1516" on="0"/>
        <pt x="738" y="1516" on="1"/>
        <pt x="848" y="1516" on="0"/>
        <pt x="1009" y="1476" on="0"/>
        <pt x="1106" y="1421" on="1"/>
        <pt x="1104" y="1445" on="0"/>
        <pt x="1104" y="1452" on="1"/>
        <pt x="1104" y="1483" on="0"/>
        <pt x="1149" y="1503" on="0"/>
        <pt x="1223" y="1503" on="1"/>
        <pt x="1289" y="1503" on="0"/>
        <pt x="1354" y="1491" on="0"/>
        <pt x="1410" y="1437" on="0"/>
        <pt x="1437" y="1341" on="0"/>
        <pt x="1451" y="1250" on="1"/>
        <pt x="1465" y="1155" on="0"/>
        <pt x="1465" y="1116" on="1"/>
        <pt x="1465" y="1087" on="0"/>
        <pt x="1458" y="1052" on="0"/>
        <pt x="1447" y="1031" on="0"/>
        <pt x="1415" y="1020" on="0"/>
        <pt x="1389" y="1016" on="0"/>
        <pt x="1357" y="1013" on="1"/>
        <pt x="1260" y="1004" on="0"/>
        <pt x="1252" y="1004" on="1"/>
        <pt x="1204" y="1004" on="0"/>
        <pt x="1177" y="1057" on="1"/>
        <pt x="1123" y="1143" on="0"/>
        <pt x="982" y="1232" on="0"/>
        <pt x="910" y="1232" on="1"/>
        <pt x="803" y="1232" on="0"/>
        <pt x="658" y="1051" on="0"/>
        <pt x="658" y="885" on="1"/>
        <pt x="658" y="772" on="0"/>
        <pt x="726" y="583" on="0"/>
        <pt x="842" y="456" on="0"/>
        <pt x="997" y="386" on="0"/>
        <pt x="1084" y="386" on="1"/>
        <pt x="1272" y="386" on="0"/>
        <pt x="1444" y="483" on="1"/>
        <pt x="1481" y="416" on="0"/>
        <pt x="1481" y="343" on="1"/>
        <pt x="1481" y="271" on="0"/>
        <pt x="1401" y="139" on="0"/>
        <pt x="1252" y="35" on="0"/>
        <pt x="1018" y="-27" on="0"/>
      </contour>
    </TTGlyph>
    <TTGlyph name="Cacute" xMin="37" yMin="-27" xMax="1481" yMax="2094">
      <component glyphName="acute" x="632" y="469" flags="0x1004"/>
      <component glyphName="C" x="0" y="0" flags="0x1204"/>
    </TTGlyph>
    <TTGlyph name="Ccaron" xMin="37" yMin="-27" xMax="1481" yMax="2094">
      <component glyphName="caron" x="218" y="469" flags="0x1004"/>
      <component glyphName="C" x="0" y="0" flags="0x1204"/>
    </TTGlyph>
    <TTGlyph name="Ccedilla" xMin="37" yMin="-514" xMax="1481" yMax="1516">
      <component glyphName="cedilla" x="700" y="-21" flags="0x1004"/>
      <component glyphName="C" x="0" y="0" flags="0x1204"/>
    </TTGlyph>
    <TTGlyph name="Cdotaccent" xMin="37" yMin="-27" xMax="1481" yMax="2056">
      <component glyphName="dotaccent" x="411" y="419" flags="0x1004"/>
      <component glyphName="C" x="0" y="0" flags="0x1204"/>
    </TTGlyph>
    <TTGlyph name="D" xMin="65" yMin="-13" xMax="1690" yMax="1503">
      <contour>
        <pt x="894" y="222" on="1"/>
        <pt x="964" y="222" on="0"/>
        <pt x="1069" y="372" on="0"/>
        <pt x="1119" y="600" on="0"/>
        <pt x="1119" y="732" on="1"/>
        <pt x="1119" y="867" on="0"/>
        <pt x="1066" y="1097" on="0"/>
        <pt x="947" y="1252" on="0"/>
        <pt x="864" y="1252" on="1"/>
        <pt x="832" y="1252" on="0"/>
        <pt x="817" y="1249" on="1"/>
        <pt x="812" y="1225" on="0"/>
        <pt x="812" y="790" on="1"/>
        <pt x="812" y="623" on="1"/>
        <pt x="812" y="495" on="0"/>
        <pt x="820" y="296" on="0"/>
        <pt x="824" y="260" on="1"/>
        <pt x="827" y="224" on="1"/>
        <pt x="848" y="222" on="0"/>
      </contour>
      <contour>
        <pt x="123" y="-13" on="1"/>
        <pt x="95" y="5" on="0"/>
        <pt x="65" y="169" on="0"/>
        <pt x="65" y="245" on="1"/>
        <pt x="65" y="264" on="0"/>
        <pt x="79" y="290" on="0"/>
        <pt x="108" y="303" on="0"/>
        <pt x="132" y="308" on="0"/>
        <pt x="154" y="310" on="1"/>
        <pt x="184" y="313" on="0"/>
        <pt x="223" y="353" on="0"/>
        <pt x="241" y="422" on="0"/>
        <pt x="247" y="488" on="0"/>
        <pt x="247" y="533" on="1"/>
        <pt x="247" y="972" on="1"/>
        <pt x="247" y="1011" on="0"/>
        <pt x="244" y="1063" on="0"/>
        <pt x="234" y="1121" on="0"/>
        <pt x="215" y="1156" on="0"/>
        <pt x="181" y="1181" on="0"/>
        <pt x="157" y="1184" on="1"/>
        <pt x="136" y="1186" on="0"/>
        <pt x="111" y="1192" on="0"/>
        <pt x="82" y="1205" on="0"/>
        <pt x="68" y="1231" on="0"/>
        <pt x="68" y="1250" on="1"/>
        <pt x="68" y="1323" on="0"/>
        <pt x="98" y="1485" on="0"/>
        <pt x="126" y="1503" on="1"/>
        <pt x="504" y="1489" on="0"/>
        <pt x="564" y="1489" on="1"/>
        <pt x="622" y="1489" on="0"/>
        <pt x="862" y="1503" on="0"/>
        <pt x="925" y="1503" on="1"/>
        <pt x="1074" y="1503" on="0"/>
        <pt x="1328" y="1417" on="0"/>
        <pt x="1505" y="1270" on="0"/>
        <pt x="1631" y="1074" on="0"/>
        <pt x="1690" y="854" on="0"/>
        <pt x="1690" y="738" on="1"/>
        <pt x="1690" y="624" on="0"/>
        <pt x="1632" y="407" on="0"/>
        <pt x="1512" y="215" on="0"/>
        <pt x="1342" y="71" on="0"/>
        <pt x="1101" y="-13" on="0"/>
        <pt x="960" y="-13" on="1"/>
        <pt x="905" y="-13" on="0"/>
        <pt x="694" y="0" on="0"/>
        <pt x="637" y="0" on="1"/>
        <pt x="530" y="0" on="0"/>
      </contour>
    </TTGlyph>
    <TTGlyph name="Dcaron" xMin="65" yMin="-13" xMax="1690" yMax="2094">
      <component glyphName="caron" x="358" y="469" flags="0x1004"/>
      <component glyphName="D" x="0" y="0" flags="0x1204"/>
    </TTGlyph>
    <TTGlyph name="Dcroat" xMin="65" yMin="-13" xMax="1690" yMax="1503">
      <contour>
        <pt x="246" y="856" on="1"/>
        <pt x="394" y="858" on="0"/>
        <pt x="783" y="858" on="1"/>
        <pt x="887" y="858" on="0"/>
        <pt x="926" y="861" on="1"/>
        <pt x="962" y="847" on="0"/>
        <pt x="962" y="776" on="1"/>
        <pt x="962" y="681" on="0"/>
        <pt x="907" y="681" on="1"/>
        <pt x="902" y="683" on="0"/>
        <pt x="788" y="686" on="0"/>
        <pt x="734" y="686" on="1"/>
        <pt x="680" y="687" on="1"/>
        <pt x="577" y="687" on="1"/>
        <pt x="135" y="684" on="0"/>
        <pt x="122" y="679" on="1"/>
        <pt x="67" y="679" on="0"/>
        <pt x="67" y="774" on="1"/>
        <pt x="67" y="845" on="0"/>
        <pt x="103" y="859" on="1"/>
        <pt x="142" y="856" on="0"/>
      </contour>
      <contour>
        <pt x="894" y="222" on="1"/>
        <pt x="964" y="222" on="0"/>
        <pt x="1069" y="372" on="0"/>
        <pt x="1119" y="600" on="0"/>
        <pt x="1119" y="732" on="1"/>
        <pt x="1119" y="867" on="0"/>
        <pt x="1066" y="1097" on="0"/>
        <pt x="947" y="1252" on="0"/>
        <pt x="864" y="1252" on="1"/>
        <pt x="832" y="1252" on="0"/>
        <pt x="817" y="1249" on="1"/>
        <pt x="812" y="1225" on="0"/>
        <pt x="812" y="790" on="1"/>
        <pt x="812" y="623" on="1"/>
        <pt x="812" y="495" on="0"/>
        <pt x="820" y="296" on="0"/>
        <pt x="824" y="260" on="1"/>
        <pt x="827" y="224" on="1"/>
        <pt x="848" y="222" on="0"/>
      </contour>
      <contour>
        <pt x="123" y="-13" on="1"/>
        <pt x="95" y="5" on="0"/>
        <pt x="65" y="169" on="0"/>
        <pt x="65" y="245" on="1"/>
        <pt x="65" y="264" on="0"/>
        <pt x="79" y="290" on="0"/>
        <pt x="108" y="303" on="0"/>
        <pt x="132" y="308" on="0"/>
        <pt x="154" y="310" on="1"/>
        <pt x="184" y="313" on="0"/>
        <pt x="223" y="353" on="0"/>
        <pt x="241" y="422" on="0"/>
        <pt x="247" y="488" on="0"/>
        <pt x="247" y="533" on="1"/>
        <pt x="247" y="972" on="1"/>
        <pt x="247" y="1011" on="0"/>
        <pt x="244" y="1063" on="0"/>
        <pt x="234" y="1121" on="0"/>
        <pt x="215" y="1156" on="0"/>
        <pt x="181" y="1181" on="0"/>
        <pt x="157" y="1184" on="1"/>
        <pt x="136" y="1186" on="0"/>
        <pt x="111" y="1192" on="0"/>
        <pt x="82" y="1205" on="0"/>
        <pt x="68" y="1231" on="0"/>
        <pt x="68" y="1250" on="1"/>
        <pt x="68" y="1323" on="0"/>
        <pt x="98" y="1485" on="0"/>
        <pt x="126" y="1503" on="1"/>
        <pt x="504" y="1489" on="0"/>
        <pt x="564" y="1489" on="1"/>
        <pt x="622" y="1489" on="0"/>
        <pt x="862" y="1503" on="0"/>
        <pt x="925" y="1503" on="1"/>
        <pt x="1074" y="1503" on="0"/>
        <pt x="1328" y="1417" on="0"/>
        <pt x="1505" y="1270" on="0"/>
        <pt x="1631" y="1074" on="0"/>
        <pt x="1690" y="854" on="0"/>
        <pt x="1690" y="738" on="1"/>
        <pt x="1690" y="624" on="0"/>
        <pt x="1632" y="407" on="0"/>
        <pt x="1512" y="215" on="0"/>
        <pt x="1342" y="71" on="0"/>
        <pt x="1101" y="-13" on="0"/>
        <pt x="960" y="-13" on="1"/>
        <pt x="905" y="-13" on="0"/>
        <pt x="694" y="0" on="0"/>
        <pt x="637" y="0" on="1"/>
        <pt x="530" y="0" on="0"/>
      </contour>
    </TTGlyph>
    <TTGlyph name="E" xMin="65" yMin="-13" xMax="1499" yMax="1503">
      <contour>
        <pt x="126" y="1503" on="1"/>
        <pt x="396" y="1489" on="0"/>
        <pt x="732" y="1489" on="1"/>
        <pt x="1060" y="1489" on="0"/>
        <pt x="1322" y="1503" on="1"/>
        <pt x="1356" y="1439" on="0"/>
        <pt x="1428" y="1209" on="0"/>
        <pt x="1428" y="1137" on="1"/>
        <pt x="1428" y="1108" on="0"/>
        <pt x="1389" y="1065" on="0"/>
        <pt x="1329" y="1043" on="0"/>
        <pt x="1273" y="1033" on="0"/>
        <pt x="1248" y="1033" on="1"/>
        <pt x="1242" y="1033" on="0"/>
        <pt x="1200" y="1083" on="0"/>
        <pt x="1137" y="1154" on="0"/>
        <pt x="1060" y="1226" on="0"/>
        <pt x="960" y="1276" on="0"/>
        <pt x="912" y="1276" on="1"/>
        <pt x="887" y="1276" on="0"/>
        <pt x="863" y="1271" on="0"/>
        <pt x="834" y="1248" on="0"/>
        <pt x="821" y="1198" on="0"/>
        <pt x="812" y="1107" on="0"/>
        <pt x="812" y="1037" on="1"/>
        <pt x="812" y="819" on="1"/>
        <pt x="938" y="968" on="0"/>
        <pt x="1084" y="968" on="1"/>
        <pt x="1166" y="968" on="0"/>
        <pt x="1262" y="855" on="0"/>
        <pt x="1262" y="782" on="1"/>
        <pt x="1262" y="702" on="0"/>
        <pt x="1150" y="593" on="0"/>
        <pt x="1076" y="593" on="1"/>
        <pt x="1039" y="635" on="0"/>
        <pt x="940" y="690" on="0"/>
        <pt x="894" y="690" on="1"/>
        <pt x="844" y="690" on="0"/>
        <pt x="812" y="641" on="1"/>
        <pt x="812" y="378" on="1"/>
        <pt x="812" y="194" on="0"/>
        <pt x="855" y="194" on="1"/>
        <pt x="943" y="194" on="1"/>
        <pt x="1000" y="205" on="0"/>
        <pt x="1094" y="270" on="0"/>
        <pt x="1174" y="383" on="0"/>
        <pt x="1233" y="497" on="0"/>
        <pt x="1269" y="582" on="1"/>
        <pt x="1280" y="586" on="0"/>
        <pt x="1298" y="586" on="1"/>
        <pt x="1348" y="586" on="0"/>
        <pt x="1476" y="538" on="0"/>
        <pt x="1494" y="507" on="1"/>
        <pt x="1499" y="497" on="0"/>
        <pt x="1499" y="473" on="1"/>
        <pt x="1499" y="424" on="0"/>
        <pt x="1449" y="213" on="0"/>
        <pt x="1420" y="127" on="1"/>
        <pt x="1407" y="86" on="0"/>
        <pt x="1352" y="-13" on="0"/>
        <pt x="1332" y="-13" on="1"/>
        <pt x="1253" y="-6" on="0"/>
        <pt x="1050" y="1" on="0"/>
        <pt x="912" y="2" on="0"/>
        <pt x="654" y="0" on="0"/>
        <pt x="605" y="0" on="1"/>
        <pt x="318" y="0" on="0"/>
        <pt x="123" y="-13" on="1"/>
        <pt x="95" y="6" on="0"/>
        <pt x="65" y="171" on="0"/>
        <pt x="65" y="247" on="1"/>
        <pt x="65" y="266" on="0"/>
        <pt x="79" y="292" on="0"/>
        <pt x="108" y="305" on="0"/>
        <pt x="132" y="310" on="0"/>
        <pt x="154" y="312" on="1"/>
        <pt x="184" y="315" on="0"/>
        <pt x="223" y="355" on="0"/>
        <pt x="241" y="424" on="0"/>
        <pt x="247" y="490" on="0"/>
        <pt x="247" y="535" on="1"/>
        <pt x="247" y="974" on="1"/>
        <pt x="247" y="1013" on="0"/>
        <pt x="244" y="1065" on="0"/>
        <pt x="234" y="1123" on="0"/>
        <pt x="215" y="1158" on="0"/>
        <pt x="181" y="1183" on="0"/>
        <pt x="157" y="1186" on="1"/>
        <pt x="136" y="1188" on="0"/>
        <pt x="111" y="1194" on="0"/>
        <pt x="82" y="1207" on="0"/>
        <pt x="68" y="1233" on="0"/>
        <pt x="68" y="1252" on="1"/>
        <pt x="68" y="1325" on="0"/>
        <pt x="98" y="1485" on="0"/>
      </contour>
    </TTGlyph>
    <TTGlyph name="Eacute" xMin="65" yMin="-13" xMax="1499" yMax="2094">
      <component glyphName="acute" x="616" y="469" flags="0x1004"/>
      <component glyphName="E" x="0" y="0" flags="0x1204"/>
    </TTGlyph>
    <TTGlyph name="Ecaron" xMin="65" yMin="-13" xMax="1499" yMax="2094">
      <component glyphName="caron" x="204" y="469" flags="0x1004"/>
      <component glyphName="E" x="0" y="0" flags="0x1204"/>
    </TTGlyph>
    <TTGlyph name="Ecircumflex" xMin="65" yMin="-13" xMax="1499" yMax="2094">
      <component glyphName="circumflex" x="197" y="469" flags="0x1004"/>
      <component glyphName="E" x="0" y="0" flags="0x1204"/>
    </TTGlyph>
    <TTGlyph name="Edieresis" xMin="65" yMin="-13" xMax="1499" yMax="1985">
      <component glyphName="dieresis" x="196" y="470" flags="0x1004"/>
      <component glyphName="E" x="0" y="0" flags="0x1204"/>
    </TTGlyph>
    <TTGlyph name="Egrave" xMin="65" yMin="-13" xMax="1499" yMax="2094">
      <component glyphName="grave" x="-148" y="469" flags="0x1004"/>
      <component glyphName="E" x="0" y="0" flags="0x1204"/>
    </TTGlyph>
    <TTGlyph name="Emacron" xMin="65" yMin="-13" xMax="1499" yMax="1902">
      <component glyphName="macron" x="266" y="413" flags="0x1004"/>
      <component glyphName="E" x="0" y="0" flags="0x1204"/>
    </TTGlyph>
    <TTGlyph name="Eogonek" xMin="65" yMin="-445" xMax="1499" yMax="1503">
      <component glyphName="ogonek" x="932" y="4" flags="0x1004"/>
      <component glyphName="E" x="0" y="0" flags="0x1004"/>
    </TTGlyph>
    <TTGlyph name="Eth" xMin="65" yMin="-13" xMax="1690" yMax="1503">
      <contour>
        <pt x="246" y="856" on="1"/>
        <pt x="394" y="858" on="0"/>
        <pt x="783" y="858" on="1"/>
        <pt x="887" y="858" on="0"/>
        <pt x="926" y="861" on="1"/>
        <pt x="962" y="847" on="0"/>
        <pt x="962" y="776" on="1"/>
        <pt x="962" y="681" on="0"/>
        <pt x="907" y="681" on="1"/>
        <pt x="902" y="683" on="0"/>
        <pt x="788" y="686" on="0"/>
        <pt x="734" y="686" on="1"/>
        <pt x="680" y="687" on="1"/>
        <pt x="577" y="687" on="1"/>
        <pt x="135" y="684" on="0"/>
        <pt x="122" y="679" on="1"/>
        <pt x="67" y="679" on="0"/>
        <pt x="67" y="774" on="1"/>
        <pt x="67" y="845" on="0"/>
        <pt x="103" y="859" on="1"/>
        <pt x="142" y="856" on="0"/>
      </contour>
      <contour>
        <pt x="894" y="222" on="1"/>
        <pt x="964" y="222" on="0"/>
        <pt x="1069" y="372" on="0"/>
        <pt x="1119" y="600" on="0"/>
        <pt x="1119" y="732" on="1"/>
        <pt x="1119" y="867" on="0"/>
        <pt x="1066" y="1097" on="0"/>
        <pt x="947" y="1252" on="0"/>
        <pt x="864" y="1252" on="1"/>
        <pt x="832" y="1252" on="0"/>
        <pt x="817" y="1249" on="1"/>
        <pt x="812" y="1225" on="0"/>
        <pt x="812" y="790" on="1"/>
        <pt x="812" y="623" on="1"/>
        <pt x="812" y="495" on="0"/>
        <pt x="820" y="296" on="0"/>
        <pt x="824" y="260" on="1"/>
        <pt x="827" y="224" on="1"/>
        <pt x="848" y="222" on="0"/>
      </contour>
      <contour>
        <pt x="123" y="-13" on="1"/>
        <pt x="95" y="5" on="0"/>
        <pt x="65" y="169" on="0"/>
        <pt x="65" y="245" on="1"/>
        <pt x="65" y="264" on="0"/>
        <pt x="79" y="290" on="0"/>
        <pt x="108" y="303" on="0"/>
        <pt x="132" y="308" on="0"/>
        <pt x="154" y="310" on="1"/>
        <pt x="184" y="313" on="0"/>
        <pt x="223" y="353" on="0"/>
        <pt x="241" y="422" on="0"/>
        <pt x="247" y="488" on="0"/>
        <pt x="247" y="533" on="1"/>
        <pt x="247" y="972" on="1"/>
        <pt x="247" y="1011" on="0"/>
        <pt x="244" y="1063" on="0"/>
        <pt x="234" y="1121" on="0"/>
        <pt x="215" y="1156" on="0"/>
        <pt x="181" y="1181" on="0"/>
        <pt x="157" y="1184" on="1"/>
        <pt x="136" y="1186" on="0"/>
        <pt x="111" y="1192" on="0"/>
        <pt x="82" y="1205" on="0"/>
        <pt x="68" y="1231" on="0"/>
        <pt x="68" y="1250" on="1"/>
        <pt x="68" y="1323" on="0"/>
        <pt x="98" y="1485" on="0"/>
        <pt x="126" y="1503" on="1"/>
        <pt x="504" y="1489" on="0"/>
        <pt x="564" y="1489" on="1"/>
        <pt x="622" y="1489" on="0"/>
        <pt x="862" y="1503" on="0"/>
        <pt x="925" y="1503" on="1"/>
        <pt x="1074" y="1503" on="0"/>
        <pt x="1328" y="1417" on="0"/>
        <pt x="1505" y="1270" on="0"/>
        <pt x="1631" y="1074" on="0"/>
        <pt x="1690" y="854" on="0"/>
        <pt x="1690" y="738" on="1"/>
        <pt x="1690" y="624" on="0"/>
        <pt x="1632" y="407" on="0"/>
        <pt x="1512" y="215" on="0"/>
        <pt x="1342" y="71" on="0"/>
        <pt x="1101" y="-13" on="0"/>
        <pt x="960" y="-13" on="1"/>
        <pt x="905" y="-13" on="0"/>
        <pt x="694" y="0" on="0"/>
        <pt x="637" y="0" on="1"/>
        <pt x="530" y="0" on="0"/>
      </contour>
    </TTGlyph>
    <TTGlyph name="Euro" xMin="50" yMin="-27" xMax="1629" yMax="1515">
      <contour>
        <pt x="1023" y="-27" on="1"/>
        <pt x="879" y="-27" on="0"/>
        <pt x="630" y="42" on="0"/>
        <pt x="446" y="162" on="0"/>
        <pt x="305" y="328" on="0"/>
        <pt x="219" y="517" on="0"/>
        <pt x="200" y="622" on="1"/>
        <pt x="113" y="620" on="0"/>
        <pt x="105" y="616" on="1"/>
        <pt x="50" y="616" on="0"/>
        <pt x="50" y="711" on="1"/>
        <pt x="50" y="782" on="0"/>
        <pt x="86" y="796" on="1"/>
        <pt x="116" y="793" on="0"/>
        <pt x="185" y="793" on="1"/>
        <pt x="185" y="840" on="0"/>
        <pt x="193" y="894" on="1"/>
        <pt x="119" y="890" on="0"/>
        <pt x="115" y="888" on="1"/>
        <pt x="60" y="888" on="0"/>
        <pt x="60" y="983" on="1"/>
        <pt x="60" y="1054" on="0"/>
        <pt x="96" y="1068" on="1"/>
        <pt x="122" y="1066" on="0"/>
        <pt x="239" y="1066" on="1"/>
        <pt x="240" y="1066" on="1"/>
        <pt x="280" y="1162" on="0"/>
        <pt x="415" y="1322" on="0"/>
        <pt x="606" y="1446" on="0"/>
        <pt x="870" y="1515" on="0"/>
        <pt x="1026" y="1515" on="1"/>
        <pt x="1287" y="1515" on="0"/>
        <pt x="1613" y="1343" on="0"/>
        <pt x="1613" y="1196" on="1"/>
        <pt x="1613" y="1172" on="0"/>
        <pt x="1610" y="1141" on="0"/>
        <pt x="1597" y="1118" on="0"/>
        <pt x="1587" y="1107" on="0"/>
        <pt x="1554" y="1098" on="0"/>
        <pt x="1533" y="1096" on="0"/>
        <pt x="1505" y="1093" on="1"/>
        <pt x="1408" y="1084" on="0"/>
        <pt x="1400" y="1084" on="1"/>
        <pt x="1374" y="1084" on="0"/>
        <pt x="1343" y="1109" on="0"/>
        <pt x="1325" y="1137" on="1"/>
        <pt x="1285" y="1185" on="0"/>
        <pt x="1162" y="1232" on="0"/>
        <pt x="1098" y="1232" on="1"/>
        <pt x="1019" y="1232" on="0"/>
        <pt x="885" y="1147" on="0"/>
        <pt x="847" y="1067" on="1"/>
        <pt x="1012" y="1067" on="1"/>
        <pt x="1116" y="1067" on="0"/>
        <pt x="1155" y="1070" on="1"/>
        <pt x="1191" y="1056" on="0"/>
        <pt x="1191" y="985" on="1"/>
        <pt x="1191" y="890" on="0"/>
        <pt x="1136" y="890" on="1"/>
        <pt x="1131" y="892" on="0"/>
        <pt x="1017" y="895" on="0"/>
        <pt x="963" y="896" on="1"/>
        <pt x="909" y="896" on="1"/>
        <pt x="807" y="896" on="1"/>
        <pt x="806" y="885" on="0"/>
        <pt x="806" y="862" on="1"/>
        <pt x="806" y="827" on="0"/>
        <pt x="809" y="794" on="1"/>
        <pt x="982" y="794" on="1"/>
        <pt x="1073" y="794" on="0"/>
        <pt x="1125" y="798" on="1"/>
        <pt x="1161" y="784" on="0"/>
        <pt x="1161" y="713" on="1"/>
        <pt x="1161" y="618" on="0"/>
        <pt x="1106" y="618" on="1"/>
        <pt x="1101" y="620" on="0"/>
        <pt x="988" y="623" on="0"/>
        <pt x="934" y="624" on="1"/>
        <pt x="879" y="624" on="1"/>
        <pt x="852" y="624" on="1"/>
        <pt x="902" y="511" on="0"/>
        <pt x="1088" y="386" on="0"/>
        <pt x="1202" y="386" on="1"/>
        <pt x="1407" y="386" on="0"/>
        <pt x="1592" y="483" on="1"/>
        <pt x="1629" y="416" on="0"/>
        <pt x="1629" y="343" on="1"/>
        <pt x="1629" y="271" on="0"/>
        <pt x="1549" y="139" on="0"/>
        <pt x="1400" y="35" on="0"/>
        <pt x="1166" y="-27" on="0"/>
      </contour>
    </TTGlyph>
    <TTGlyph name="F" xMin="65" yMin="-13" xMax="1418" yMax="1503">
      <contour>
        <pt x="126" y="1503" on="1"/>
        <pt x="355" y="1489" on="0"/>
        <pt x="755" y="1489" on="1"/>
        <pt x="1129" y="1489" on="0"/>
        <pt x="1312" y="1503" on="1"/>
        <pt x="1346" y="1439" on="0"/>
        <pt x="1418" y="1209" on="0"/>
        <pt x="1418" y="1137" on="1"/>
        <pt x="1418" y="1108" on="0"/>
        <pt x="1379" y="1065" on="0"/>
        <pt x="1319" y="1043" on="0"/>
        <pt x="1263" y="1033" on="0"/>
        <pt x="1238" y="1033" on="1"/>
        <pt x="1225" y="1033" on="0"/>
        <pt x="1206" y="1063" on="1"/>
        <pt x="1149" y="1164" on="0"/>
        <pt x="1006" y="1276" on="0"/>
        <pt x="902" y="1276" on="1"/>
        <pt x="880" y="1276" on="0"/>
        <pt x="858" y="1271" on="0"/>
        <pt x="832" y="1248" on="0"/>
        <pt x="820" y="1198" on="0"/>
        <pt x="812" y="1107" on="0"/>
        <pt x="812" y="1037" on="1"/>
        <pt x="812" y="850" on="1"/>
        <pt x="940" y="1008" on="0"/>
        <pt x="1084" y="1008" on="1"/>
        <pt x="1166" y="1008" on="0"/>
        <pt x="1262" y="895" on="0"/>
        <pt x="1262" y="822" on="1"/>
        <pt x="1262" y="742" on="0"/>
        <pt x="1150" y="633" on="0"/>
        <pt x="1076" y="633" on="1"/>
        <pt x="1039" y="675" on="0"/>
        <pt x="940" y="730" on="0"/>
        <pt x="894" y="730" on="1"/>
        <pt x="844" y="730" on="0"/>
        <pt x="812" y="681" on="1"/>
        <pt x="812" y="603" on="1"/>
        <pt x="812" y="565" on="0"/>
        <pt x="813" y="506" on="0"/>
        <pt x="818" y="431" on="0"/>
        <pt x="828" y="376" on="0"/>
        <pt x="843" y="326" on="0"/>
        <pt x="869" y="298" on="0"/>
        <pt x="885" y="296" on="1"/>
        <pt x="887" y="296" on="0"/>
        <pt x="907" y="292" on="0"/>
        <pt x="912" y="291" on="0"/>
        <pt x="930" y="287" on="0"/>
        <pt x="936" y="284" on="0"/>
        <pt x="950" y="278" on="0"/>
        <pt x="956" y="272" on="0"/>
        <pt x="965" y="262" on="0"/>
        <pt x="969" y="251" on="0"/>
        <pt x="972" y="236" on="0"/>
        <pt x="972" y="227" on="1"/>
        <pt x="972" y="156" on="0"/>
        <pt x="937" y="5" on="0"/>
        <pt x="904" y="-13" on="1"/>
        <pt x="769" y="0" on="0"/>
        <pt x="495" y="0" on="1"/>
        <pt x="194" y="0" on="0"/>
        <pt x="123" y="-13" on="1"/>
        <pt x="95" y="6" on="0"/>
        <pt x="65" y="171" on="0"/>
        <pt x="65" y="247" on="1"/>
        <pt x="65" y="266" on="0"/>
        <pt x="79" y="292" on="0"/>
        <pt x="108" y="305" on="0"/>
        <pt x="132" y="310" on="0"/>
        <pt x="154" y="312" on="1"/>
        <pt x="184" y="315" on="0"/>
        <pt x="223" y="355" on="0"/>
        <pt x="241" y="424" on="0"/>
        <pt x="247" y="490" on="0"/>
        <pt x="247" y="535" on="1"/>
        <pt x="247" y="974" on="1"/>
        <pt x="247" y="1013" on="0"/>
        <pt x="244" y="1065" on="0"/>
        <pt x="234" y="1123" on="0"/>
        <pt x="215" y="1158" on="0"/>
        <pt x="181" y="1183" on="0"/>
        <pt x="157" y="1186" on="1"/>
        <pt x="136" y="1188" on="0"/>
        <pt x="111" y="1194" on="0"/>
        <pt x="82" y="1207" on="0"/>
        <pt x="68" y="1233" on="0"/>
        <pt x="68" y="1252" on="1"/>
        <pt x="68" y="1325" on="0"/>
        <pt x="98" y="1485" on="0"/>
      </contour>
    </TTGlyph>
    <TTGlyph name="G" xMin="37" yMin="-27" xMax="1725" yMax="1516">
      <contour>
        <pt x="1262" y="84" on="1"/>
        <pt x="1123" y="-27" on="0"/>
        <pt x="876" y="-27" on="1"/>
        <pt x="748" y="-27" on="0"/>
        <pt x="507" y="32" on="0"/>
        <pt x="291" y="160" on="0"/>
        <pt x="131" y="343" on="0"/>
        <pt x="37" y="610" on="0"/>
        <pt x="37" y="769" on="1"/>
        <pt x="37" y="949" on="0"/>
        <pt x="162" y="1239" on="0"/>
        <pt x="374" y="1420" on="0"/>
        <pt x="642" y="1516" on="0"/>
        <pt x="791" y="1516" on="1"/>
        <pt x="934" y="1516" on="0"/>
        <pt x="1107" y="1471" on="0"/>
        <pt x="1194" y="1421" on="1"/>
        <pt x="1194" y="1472" on="0"/>
        <pt x="1234" y="1503" on="0"/>
        <pt x="1309" y="1503" on="1"/>
        <pt x="1342" y="1503" on="1"/>
        <pt x="1382" y="1503" on="0"/>
        <pt x="1427" y="1495" on="0"/>
        <pt x="1481" y="1457" on="0"/>
        <pt x="1513" y="1382" on="0"/>
        <pt x="1544" y="1246" on="0"/>
        <pt x="1554" y="1144" on="1"/>
        <pt x="1556" y="1127" on="0"/>
        <pt x="1556" y="1100" on="1"/>
        <pt x="1556" y="1081" on="0"/>
        <pt x="1552" y="1053" on="0"/>
        <pt x="1536" y="1034" on="0"/>
        <pt x="1525" y="1024" on="0"/>
        <pt x="1493" y="1016" on="0"/>
        <pt x="1475" y="1014" on="0"/>
        <pt x="1425" y="1009" on="0"/>
        <pt x="1412" y="1007" on="1"/>
        <pt x="1369" y="1002" on="0"/>
        <pt x="1348" y="1002" on="1"/>
        <pt x="1316" y="1002" on="0"/>
        <pt x="1284" y="1027" on="0"/>
        <pt x="1255" y="1068" on="1"/>
        <pt x="1241" y="1088" on="1"/>
        <pt x="1156" y="1233" on="0"/>
        <pt x="976" y="1233" on="1"/>
        <pt x="847" y="1233" on="0"/>
        <pt x="661" y="1015" on="0"/>
        <pt x="661" y="835" on="1"/>
        <pt x="661" y="738" on="0"/>
        <pt x="709" y="576" on="0"/>
        <pt x="785" y="470" on="0"/>
        <pt x="882" y="396" on="0"/>
        <pt x="980" y="363" on="0"/>
        <pt x="1027" y="363" on="1"/>
        <pt x="1088" y="363" on="0"/>
        <pt x="1167" y="419" on="0"/>
        <pt x="1167" y="467" on="1"/>
        <pt x="1167" y="530" on="0"/>
        <pt x="1084" y="579" on="0"/>
        <pt x="952" y="588" on="1"/>
        <pt x="943" y="606" on="0"/>
        <pt x="943" y="652" on="1"/>
        <pt x="943" y="694" on="0"/>
        <pt x="987" y="810" on="0"/>
        <pt x="1007" y="829" on="1"/>
        <pt x="1112" y="810" on="0"/>
        <pt x="1284" y="810" on="1"/>
        <pt x="1464" y="810" on="0"/>
        <pt x="1605" y="828" on="1"/>
        <pt x="1632" y="828" on="0"/>
        <pt x="1668" y="822" on="0"/>
        <pt x="1706" y="802" on="0"/>
        <pt x="1725" y="757" on="0"/>
        <pt x="1725" y="722" on="1"/>
        <pt x="1725" y="678" on="0"/>
        <pt x="1711" y="618" on="0"/>
        <pt x="1687" y="588" on="0"/>
        <pt x="1660" y="566" on="0"/>
        <pt x="1632" y="544" on="0"/>
        <pt x="1608" y="511" on="0"/>
        <pt x="1594" y="446" on="0"/>
        <pt x="1594" y="398" on="1"/>
        <pt x="1594" y="356" on="0"/>
        <pt x="1602" y="195" on="0"/>
        <pt x="1602" y="156" on="1"/>
        <pt x="1602" y="122" on="1"/>
        <pt x="1522" y="47" on="0"/>
        <pt x="1420" y="47" on="1"/>
        <pt x="1385" y="47" on="0"/>
        <pt x="1271" y="82" on="0"/>
      </contour>
    </TTGlyph>
    <TTGlyph name="Gbreve" xMin="37" yMin="-27" xMax="1725" yMax="1949">
      <component glyphName="breve" x="409" y="434" flags="0x1004"/>
      <component glyphName="G" x="0" y="0" flags="0x1204"/>
    </TTGlyph>
    <TTGlyph name="Gcommaaccent" xMin="37" yMin="-781" xMax="1725" yMax="1516">
      <component glyphName="uni0326" x="524" y="-39" flags="0x1004"/>
      <component glyphName="G" x="0" y="0" flags="0x1204"/>
    </TTGlyph>
    <TTGlyph name="Gdotaccent" xMin="37" yMin="-27" xMax="1725" yMax="2056">
      <component glyphName="dotaccent" x="548" y="419" flags="0x1004"/>
      <component glyphName="G" x="0" y="0" flags="0x1204"/>
    </TTGlyph>
    <TTGlyph name="H" xMin="65" yMin="-13" xMax="2006" yMax="1503">
      <contour>
        <pt x="1945" y="1503" on="1"/>
        <pt x="1973" y="1485" on="0"/>
        <pt x="2003" y="1325" on="0"/>
        <pt x="2003" y="1252" on="1"/>
        <pt x="2003" y="1233" on="0"/>
        <pt x="1989" y="1207" on="0"/>
        <pt x="1960" y="1194" on="0"/>
        <pt x="1935" y="1188" on="0"/>
        <pt x="1914" y="1186" on="1"/>
        <pt x="1890" y="1183" on="0"/>
        <pt x="1856" y="1158" on="0"/>
        <pt x="1837" y="1123" on="0"/>
        <pt x="1827" y="1065" on="0"/>
        <pt x="1824" y="1013" on="0"/>
        <pt x="1824" y="974" on="1"/>
        <pt x="1824" y="535" on="1"/>
        <pt x="1824" y="490" on="0"/>
        <pt x="1830" y="424" on="0"/>
        <pt x="1848" y="355" on="0"/>
        <pt x="1887" y="315" on="0"/>
        <pt x="1917" y="312" on="1"/>
        <pt x="1939" y="310" on="0"/>
        <pt x="1963" y="305" on="0"/>
        <pt x="1992" y="292" on="0"/>
        <pt x="2006" y="266" on="0"/>
        <pt x="2006" y="247" on="1"/>
        <pt x="2006" y="171" on="0"/>
        <pt x="1976" y="6" on="0"/>
        <pt x="1948" y="-13" on="1"/>
        <pt x="1876" y="0" on="0"/>
        <pt x="1587" y="0" on="1"/>
        <pt x="1313" y="0" on="0"/>
        <pt x="1178" y="-13" on="1"/>
        <pt x="1141" y="5" on="0"/>
        <pt x="1100" y="156" on="0"/>
        <pt x="1100" y="227" on="1"/>
        <pt x="1100" y="246" on="0"/>
        <pt x="1112" y="272" on="0"/>
        <pt x="1139" y="286" on="0"/>
        <pt x="1158" y="291" on="0"/>
        <pt x="1176" y="294" on="1"/>
        <pt x="1226" y="299" on="0"/>
        <pt x="1259" y="464" on="0"/>
        <pt x="1259" y="615" on="1"/>
        <pt x="1259" y="644" on="0"/>
        <pt x="1250" y="657" on="0"/>
        <pt x="1227" y="657" on="1"/>
        <pt x="1213" y="657" on="0"/>
        <pt x="1087" y="655" on="0"/>
        <pt x="1035" y="655" on="1"/>
        <pt x="984" y="655" on="0"/>
        <pt x="858" y="657" on="0"/>
        <pt x="844" y="657" on="1"/>
        <pt x="822" y="657" on="0"/>
        <pt x="813" y="643" on="0"/>
        <pt x="813" y="615" on="1"/>
        <pt x="813" y="566" on="0"/>
        <pt x="815" y="495" on="0"/>
        <pt x="825" y="402" on="0"/>
        <pt x="842" y="342" on="0"/>
        <pt x="874" y="297" on="0"/>
        <pt x="897" y="294" on="1"/>
        <pt x="915" y="291" on="0"/>
        <pt x="934" y="286" on="0"/>
        <pt x="961" y="272" on="0"/>
        <pt x="973" y="246" on="0"/>
        <pt x="973" y="227" on="1"/>
        <pt x="973" y="156" on="0"/>
        <pt x="932" y="5" on="0"/>
        <pt x="895" y="-13" on="1"/>
        <pt x="783" y="0" on="0"/>
        <pt x="576" y="0" on="1"/>
        <pt x="209" y="0" on="0"/>
        <pt x="123" y="-13" on="1"/>
        <pt x="95" y="6" on="0"/>
        <pt x="65" y="171" on="0"/>
        <pt x="65" y="247" on="1"/>
        <pt x="65" y="266" on="0"/>
        <pt x="79" y="292" on="0"/>
        <pt x="108" y="305" on="0"/>
        <pt x="132" y="310" on="0"/>
        <pt x="154" y="312" on="1"/>
        <pt x="184" y="315" on="0"/>
        <pt x="223" y="355" on="0"/>
        <pt x="241" y="424" on="0"/>
        <pt x="247" y="490" on="0"/>
        <pt x="247" y="535" on="1"/>
        <pt x="247" y="974" on="1"/>
        <pt x="247" y="1013" on="0"/>
        <pt x="244" y="1065" on="0"/>
        <pt x="234" y="1123" on="0"/>
        <pt x="215" y="1158" on="0"/>
        <pt x="181" y="1183" on="0"/>
        <pt x="157" y="1186" on="1"/>
        <pt x="136" y="1188" on="0"/>
        <pt x="111" y="1194" on="0"/>
        <pt x="82" y="1207" on="0"/>
        <pt x="68" y="1233" on="0"/>
        <pt x="68" y="1252" on="1"/>
        <pt x="68" y="1325" on="0"/>
        <pt x="98" y="1485" on="0"/>
        <pt x="126" y="1503" on="1"/>
        <pt x="219" y="1489" on="0"/>
        <pt x="579" y="1489" on="1"/>
        <pt x="778" y="1489" on="0"/>
        <pt x="898" y="1503" on="1"/>
        <pt x="935" y="1485" on="0"/>
        <pt x="976" y="1331" on="0"/>
        <pt x="976" y="1259" on="1"/>
        <pt x="976" y="1240" on="0"/>
        <pt x="964" y="1214" on="0"/>
        <pt x="934" y="1200" on="0"/>
        <pt x="912" y="1194" on="0"/>
        <pt x="889" y="1190" on="1"/>
        <pt x="813" y="1182" on="0"/>
        <pt x="813" y="922" on="1"/>
        <pt x="813" y="908" on="0"/>
        <pt x="817" y="894" on="0"/>
        <pt x="835" y="882" on="0"/>
        <pt x="853" y="882" on="1"/>
        <pt x="867" y="882" on="0"/>
        <pt x="985" y="883" on="0"/>
        <pt x="1032" y="883" on="1"/>
        <pt x="1086" y="883" on="0"/>
        <pt x="1217" y="881" on="0"/>
        <pt x="1231" y="881" on="1"/>
        <pt x="1251" y="881" on="0"/>
        <pt x="1259" y="891" on="0"/>
        <pt x="1259" y="911" on="1"/>
        <pt x="1259" y="1054" on="0"/>
        <pt x="1234" y="1186" on="0"/>
        <pt x="1190" y="1190" on="1"/>
        <pt x="1167" y="1194" on="0"/>
        <pt x="1145" y="1200" on="0"/>
        <pt x="1115" y="1214" on="0"/>
        <pt x="1103" y="1240" on="0"/>
        <pt x="1103" y="1259" on="1"/>
        <pt x="1103" y="1331" on="0"/>
        <pt x="1144" y="1485" on="0"/>
        <pt x="1181" y="1503" on="1"/>
        <pt x="1327" y="1489" on="0"/>
        <pt x="1590" y="1489" on="1"/>
        <pt x="1868" y="1489" on="0"/>
      </contour>
    </TTGlyph>
    <TTGlyph name="Hbar" xMin="67" yMin="-13" xMax="2008" yMax="1503">
      <contour>
        <pt x="1368" y="1003" on="1"/>
        <pt x="702" y="1003" on="1"/>
        <pt x="664" y="1003" on="0"/>
        <pt x="664" y="1057" on="1"/>
        <pt x="664" y="1124" on="0"/>
        <pt x="710" y="1124" on="1"/>
        <pt x="1367" y="1124" on="1"/>
        <pt x="1393" y="1124" on="0"/>
        <pt x="1415" y="1101" on="0"/>
        <pt x="1415" y="1069" on="1"/>
        <pt x="1415" y="1003" on="0"/>
      </contour>
      <contour>
        <pt x="1947" y="1503" on="1"/>
        <pt x="1975" y="1485" on="0"/>
        <pt x="2005" y="1325" on="0"/>
        <pt x="2005" y="1252" on="1"/>
        <pt x="2005" y="1233" on="0"/>
        <pt x="1991" y="1207" on="0"/>
        <pt x="1962" y="1194" on="0"/>
        <pt x="1937" y="1188" on="0"/>
        <pt x="1916" y="1186" on="1"/>
        <pt x="1892" y="1183" on="0"/>
        <pt x="1858" y="1158" on="0"/>
        <pt x="1839" y="1123" on="0"/>
        <pt x="1829" y="1065" on="0"/>
        <pt x="1826" y="1013" on="0"/>
        <pt x="1826" y="974" on="1"/>
        <pt x="1826" y="535" on="1"/>
        <pt x="1826" y="490" on="0"/>
        <pt x="1832" y="424" on="0"/>
        <pt x="1850" y="355" on="0"/>
        <pt x="1889" y="315" on="0"/>
        <pt x="1919" y="312" on="1"/>
        <pt x="1941" y="310" on="0"/>
        <pt x="1965" y="305" on="0"/>
        <pt x="1994" y="292" on="0"/>
        <pt x="2008" y="266" on="0"/>
        <pt x="2008" y="247" on="1"/>
        <pt x="2008" y="171" on="0"/>
        <pt x="1978" y="6" on="0"/>
        <pt x="1950" y="-13" on="1"/>
        <pt x="1878" y="0" on="0"/>
        <pt x="1589" y="0" on="1"/>
        <pt x="1315" y="0" on="0"/>
        <pt x="1180" y="-13" on="1"/>
        <pt x="1143" y="5" on="0"/>
        <pt x="1102" y="156" on="0"/>
        <pt x="1102" y="227" on="1"/>
        <pt x="1102" y="246" on="0"/>
        <pt x="1114" y="272" on="0"/>
        <pt x="1141" y="286" on="0"/>
        <pt x="1160" y="291" on="0"/>
        <pt x="1178" y="294" on="1"/>
        <pt x="1228" y="299" on="0"/>
        <pt x="1261" y="464" on="0"/>
        <pt x="1261" y="615" on="1"/>
        <pt x="1261" y="644" on="0"/>
        <pt x="1252" y="657" on="0"/>
        <pt x="1229" y="657" on="1"/>
        <pt x="1215" y="657" on="0"/>
        <pt x="1089" y="655" on="0"/>
        <pt x="1037" y="655" on="1"/>
        <pt x="986" y="655" on="0"/>
        <pt x="860" y="657" on="0"/>
        <pt x="846" y="657" on="1"/>
        <pt x="824" y="657" on="0"/>
        <pt x="815" y="643" on="0"/>
        <pt x="815" y="615" on="1"/>
        <pt x="815" y="566" on="0"/>
        <pt x="817" y="495" on="0"/>
        <pt x="827" y="402" on="0"/>
        <pt x="844" y="342" on="0"/>
        <pt x="876" y="297" on="0"/>
        <pt x="899" y="294" on="1"/>
        <pt x="917" y="291" on="0"/>
        <pt x="936" y="286" on="0"/>
        <pt x="963" y="272" on="0"/>
        <pt x="975" y="246" on="0"/>
        <pt x="975" y="227" on="1"/>
        <pt x="975" y="156" on="0"/>
        <pt x="934" y="5" on="0"/>
        <pt x="897" y="-13" on="1"/>
        <pt x="785" y="0" on="0"/>
        <pt x="578" y="0" on="1"/>
        <pt x="211" y="0" on="0"/>
        <pt x="125" y="-13" on="1"/>
        <pt x="97" y="6" on="0"/>
        <pt x="67" y="171" on="0"/>
        <pt x="67" y="247" on="1"/>
        <pt x="67" y="266" on="0"/>
        <pt x="81" y="292" on="0"/>
        <pt x="110" y="305" on="0"/>
        <pt x="134" y="310" on="0"/>
        <pt x="156" y="312" on="1"/>
        <pt x="186" y="315" on="0"/>
        <pt x="225" y="355" on="0"/>
        <pt x="243" y="424" on="0"/>
        <pt x="249" y="490" on="0"/>
        <pt x="249" y="535" on="1"/>
        <pt x="249" y="974" on="1"/>
        <pt x="249" y="1013" on="0"/>
        <pt x="246" y="1065" on="0"/>
        <pt x="236" y="1123" on="0"/>
        <pt x="217" y="1158" on="0"/>
        <pt x="183" y="1183" on="0"/>
        <pt x="159" y="1186" on="1"/>
        <pt x="138" y="1188" on="0"/>
        <pt x="113" y="1194" on="0"/>
        <pt x="84" y="1207" on="0"/>
        <pt x="70" y="1233" on="0"/>
        <pt x="70" y="1252" on="1"/>
        <pt x="70" y="1325" on="0"/>
        <pt x="100" y="1485" on="0"/>
        <pt x="128" y="1503" on="1"/>
        <pt x="221" y="1489" on="0"/>
        <pt x="581" y="1489" on="1"/>
        <pt x="780" y="1489" on="0"/>
        <pt x="900" y="1503" on="1"/>
        <pt x="937" y="1485" on="0"/>
        <pt x="978" y="1331" on="0"/>
        <pt x="978" y="1259" on="1"/>
        <pt x="978" y="1240" on="0"/>
        <pt x="966" y="1214" on="0"/>
        <pt x="936" y="1200" on="0"/>
        <pt x="914" y="1194" on="0"/>
        <pt x="891" y="1190" on="1"/>
        <pt x="815" y="1182" on="0"/>
        <pt x="815" y="922" on="1"/>
        <pt x="815" y="908" on="0"/>
        <pt x="819" y="894" on="0"/>
        <pt x="837" y="882" on="0"/>
        <pt x="855" y="882" on="1"/>
        <pt x="869" y="882" on="0"/>
        <pt x="987" y="883" on="0"/>
        <pt x="1034" y="883" on="1"/>
        <pt x="1088" y="883" on="0"/>
        <pt x="1219" y="881" on="0"/>
        <pt x="1233" y="881" on="1"/>
        <pt x="1253" y="881" on="0"/>
        <pt x="1261" y="891" on="0"/>
        <pt x="1261" y="911" on="1"/>
        <pt x="1261" y="1054" on="0"/>
        <pt x="1236" y="1186" on="0"/>
        <pt x="1192" y="1190" on="1"/>
        <pt x="1169" y="1194" on="0"/>
        <pt x="1147" y="1200" on="0"/>
        <pt x="1117" y="1214" on="0"/>
        <pt x="1105" y="1240" on="0"/>
        <pt x="1105" y="1259" on="1"/>
        <pt x="1105" y="1331" on="0"/>
        <pt x="1146" y="1485" on="0"/>
        <pt x="1183" y="1503" on="1"/>
        <pt x="1329" y="1489" on="0"/>
        <pt x="1592" y="1489" on="1"/>
        <pt x="1870" y="1489" on="0"/>
      </contour>
    </TTGlyph>
    <TTGlyph name="I" xMin="58" yMin="-12" xMax="987" yMax="1503">
      <contour>
        <pt x="926" y="1503" on="1"/>
        <pt x="954" y="1485" on="0"/>
        <pt x="984" y="1325" on="0"/>
        <pt x="984" y="1252" on="1"/>
        <pt x="984" y="1233" on="0"/>
        <pt x="970" y="1207" on="0"/>
        <pt x="941" y="1194" on="0"/>
        <pt x="916" y="1188" on="0"/>
        <pt x="895" y="1186" on="1"/>
        <pt x="871" y="1183" on="0"/>
        <pt x="837" y="1158" on="0"/>
        <pt x="818" y="1123" on="0"/>
        <pt x="808" y="1065" on="0"/>
        <pt x="805" y="1013" on="0"/>
        <pt x="805" y="974" on="1"/>
        <pt x="805" y="535" on="1"/>
        <pt x="805" y="490" on="0"/>
        <pt x="811" y="424" on="0"/>
        <pt x="829" y="355" on="0"/>
        <pt x="868" y="315" on="0"/>
        <pt x="898" y="312" on="1"/>
        <pt x="920" y="310" on="0"/>
        <pt x="944" y="305" on="0"/>
        <pt x="973" y="292" on="0"/>
        <pt x="987" y="266" on="0"/>
        <pt x="987" y="247" on="1"/>
        <pt x="987" y="171" on="0"/>
        <pt x="957" y="7" on="0"/>
        <pt x="929" y="-12" on="1"/>
        <pt x="858" y="0" on="0"/>
        <pt x="528" y="0" on="1"/>
        <pt x="188" y="0" on="0"/>
        <pt x="116" y="-12" on="1"/>
        <pt x="88" y="7" on="0"/>
        <pt x="58" y="171" on="0"/>
        <pt x="58" y="247" on="1"/>
        <pt x="58" y="266" on="0"/>
        <pt x="72" y="292" on="0"/>
        <pt x="101" y="305" on="0"/>
        <pt x="125" y="310" on="0"/>
        <pt x="147" y="312" on="1"/>
        <pt x="177" y="315" on="0"/>
        <pt x="216" y="355" on="0"/>
        <pt x="234" y="424" on="0"/>
        <pt x="240" y="490" on="0"/>
        <pt x="240" y="535" on="1"/>
        <pt x="240" y="974" on="1"/>
        <pt x="240" y="1013" on="0"/>
        <pt x="237" y="1065" on="0"/>
        <pt x="227" y="1123" on="0"/>
        <pt x="208" y="1158" on="0"/>
        <pt x="174" y="1183" on="0"/>
        <pt x="150" y="1186" on="1"/>
        <pt x="129" y="1188" on="0"/>
        <pt x="104" y="1194" on="0"/>
        <pt x="75" y="1207" on="0"/>
        <pt x="61" y="1233" on="0"/>
        <pt x="61" y="1252" on="1"/>
        <pt x="61" y="1325" on="0"/>
        <pt x="91" y="1485" on="0"/>
        <pt x="119" y="1503" on="1"/>
        <pt x="201" y="1489" on="0"/>
        <pt x="532" y="1489" on="1"/>
        <pt x="814" y="1489" on="0"/>
      </contour>
    </TTGlyph>
    <TTGlyph name="IJ" xMin="58" yMin="-72" xMax="2324" yMax="1503">
      <component glyphName="J" x="1075" y="0" flags="0x1004"/>
      <component glyphName="I" x="0" y="0" flags="0x1004"/>
    </TTGlyph>
    <TTGlyph name="Iacute" xMin="58" yMin="-12" xMax="1034" yMax="2094">
      <component glyphName="acute" x="414" y="469" flags="0x1004"/>
      <component glyphName="I" x="0" y="0" flags="0x1204"/>
    </TTGlyph>
    <TTGlyph name="Ibreve" xMin="58" yMin="-12" xMax="987" yMax="1949">
      <component glyphName="breve" x="37" y="434" flags="0x1004"/>
      <component glyphName="I" x="0" y="0" flags="0x1204"/>
    </TTGlyph>
    <TTGlyph name="Icircumflex" xMin="58" yMin="-12" xMax="987" yMax="2094">
      <component glyphName="circumflex" x="-5" y="469" flags="0x1004"/>
      <component glyphName="I" x="0" y="0" flags="0x1204"/>
    </TTGlyph>
    <TTGlyph name="Idieresis" xMin="58" yMin="-12" xMax="987" yMax="1985">
      <component glyphName="dieresis" x="-5" y="470" flags="0x1004"/>
      <component glyphName="I" x="0" y="0" flags="0x1204"/>
    </TTGlyph>
    <TTGlyph name="Idotaccent" xMin="58" yMin="-12" xMax="987" yMax="2056">
      <component glyphName="dotaccent" x="195" y="419" flags="0x1004"/>
      <component glyphName="I" x="0" y="0" flags="0x1204"/>
    </TTGlyph>
    <TTGlyph name="Igrave" xMin="38" yMin="-12" xMax="987" yMax="2094">
      <component glyphName="grave" x="-349" y="469" flags="0x1004"/>
      <component glyphName="I" x="0" y="0" flags="0x1204"/>
    </TTGlyph>
    <TTGlyph name="Imacron" xMin="58" yMin="-12" xMax="987" yMax="1902">
      <component glyphName="macron" x="65" y="413" flags="0x1004"/>
      <component glyphName="I" x="0" y="0" flags="0x1204"/>
    </TTGlyph>
    <TTGlyph name="Iogonek" xMin="58" yMin="-451" xMax="987" yMax="1503">
      <component glyphName="ogonek" x="439" y="-2" flags="0x1004"/>
      <component glyphName="I" x="0" y="0" flags="0x1204"/>
    </TTGlyph>
    <TTGlyph name="Itilde" xMin="58" yMin="-12" xMax="987" yMax="1996">
      <component glyphName="tilde" x="-11" y="455" flags="0x1004"/>
      <component glyphName="I" x="0" y="0" flags="0x1204"/>
    </TTGlyph>
    <TTGlyph name="J" xMin="36" yMin="-72" xMax="1249" yMax="1503">
      <contour>
        <pt x="505" y="510" on="1"/>
        <pt x="505" y="974" on="1"/>
        <pt x="505" y="1013" on="0"/>
        <pt x="502" y="1065" on="0"/>
        <pt x="492" y="1123" on="0"/>
        <pt x="473" y="1158" on="0"/>
        <pt x="439" y="1183" on="0"/>
        <pt x="415" y="1186" on="1"/>
        <pt x="394" y="1188" on="0"/>
        <pt x="369" y="1194" on="0"/>
        <pt x="340" y="1207" on="0"/>
        <pt x="326" y="1233" on="0"/>
        <pt x="326" y="1252" on="1"/>
        <pt x="326" y="1325" on="0"/>
        <pt x="356" y="1485" on="0"/>
        <pt x="384" y="1503" on="1"/>
        <pt x="466" y="1489" on="0"/>
        <pt x="797" y="1489" on="1"/>
        <pt x="1079" y="1489" on="0"/>
        <pt x="1191" y="1503" on="1"/>
        <pt x="1219" y="1485" on="0"/>
        <pt x="1249" y="1325" on="0"/>
        <pt x="1249" y="1252" on="1"/>
        <pt x="1249" y="1233" on="0"/>
        <pt x="1235" y="1207" on="0"/>
        <pt x="1206" y="1194" on="0"/>
        <pt x="1181" y="1188" on="0"/>
        <pt x="1160" y="1186" on="1"/>
        <pt x="1136" y="1183" on="0"/>
        <pt x="1102" y="1158" on="0"/>
        <pt x="1083" y="1123" on="0"/>
        <pt x="1073" y="1065" on="0"/>
        <pt x="1070" y="1013" on="0"/>
        <pt x="1070" y="974" on="1"/>
        <pt x="1070" y="490" on="1"/>
        <pt x="1070" y="332" on="0"/>
        <pt x="1003" y="115" on="0"/>
        <pt x="862" y="-15" on="0"/>
        <pt x="663" y="-72" on="0"/>
        <pt x="521" y="-72" on="1"/>
        <pt x="281" y="-72" on="0"/>
        <pt x="36" y="67" on="0"/>
        <pt x="36" y="170" on="1"/>
        <pt x="36" y="229" on="0"/>
        <pt x="119" y="309" on="0"/>
        <pt x="185" y="309" on="1"/>
        <pt x="221" y="309" on="0"/>
        <pt x="265" y="278" on="0"/>
        <pt x="283" y="234" on="0"/>
        <pt x="300" y="191" on="0"/>
        <pt x="335" y="160" on="0"/>
        <pt x="365" y="160" on="1"/>
        <pt x="396" y="160" on="0"/>
        <pt x="443" y="190" on="0"/>
        <pt x="483" y="263" on="0"/>
        <pt x="505" y="406" on="0"/>
      </contour>
    </TTGlyph>
    <TTGlyph name="Jcircumflex" xMin="36" yMin="-72" xMax="1249" yMax="2094">
      <component glyphName="circumflex" x="260" y="469" flags="0x1004"/>
      <component glyphName="J" x="0" y="0" flags="0x1204"/>
    </TTGlyph>
    <TTGlyph name="K" xMin="65" yMin="-27" xMax="1920" yMax="1503">
      <contour>
        <pt x="126" y="1503" on="1"/>
        <pt x="208" y="1489" on="0"/>
        <pt x="528" y="1489" on="1"/>
        <pt x="777" y="1489" on="0"/>
        <pt x="917" y="1503" on="1"/>
        <pt x="945" y="1485" on="0"/>
        <pt x="975" y="1334" on="0"/>
        <pt x="975" y="1262" on="1"/>
        <pt x="975" y="1243" on="0"/>
        <pt x="963" y="1217" on="0"/>
        <pt x="936" y="1203" on="0"/>
        <pt x="917" y="1198" on="0"/>
        <pt x="899" y="1195" on="1"/>
        <pt x="812" y="1185" on="0"/>
        <pt x="812" y="914" on="1"/>
        <pt x="812" y="838" on="1"/>
        <pt x="850" y="863" on="0"/>
        <pt x="1015" y="995" on="0"/>
        <pt x="1196" y="1144" on="0"/>
        <pt x="1202" y="1149" on="1"/>
        <pt x="1225" y="1167" on="0"/>
        <pt x="1225" y="1201" on="0"/>
        <pt x="1163" y="1252" on="0"/>
        <pt x="1163" y="1266" on="1"/>
        <pt x="1163" y="1268" on="0"/>
        <pt x="1165" y="1274" on="1"/>
        <pt x="1169" y="1284" on="0"/>
        <pt x="1194" y="1344" on="0"/>
        <pt x="1207" y="1374" on="0"/>
        <pt x="1230" y="1427" on="0"/>
        <pt x="1245" y="1456" on="0"/>
        <pt x="1264" y="1488" on="0"/>
        <pt x="1278" y="1503" on="0"/>
        <pt x="1283" y="1503" on="1"/>
        <pt x="1284" y="1503" on="0"/>
        <pt x="1371" y="1496" on="0"/>
        <pt x="1514" y="1489" on="0"/>
        <pt x="1584" y="1489" on="1"/>
        <pt x="1676" y="1489" on="0"/>
        <pt x="1831" y="1503" on="0"/>
        <pt x="1847" y="1503" on="1"/>
        <pt x="1875" y="1503" on="0"/>
        <pt x="1894" y="1481" on="0"/>
        <pt x="1894" y="1452" on="1"/>
        <pt x="1894" y="1432" on="0"/>
        <pt x="1882" y="1322" on="0"/>
        <pt x="1882" y="1317" on="1"/>
        <pt x="1879" y="1268" on="0"/>
        <pt x="1851" y="1215" on="0"/>
        <pt x="1797" y="1192" on="0"/>
        <pt x="1736" y="1180" on="0"/>
        <pt x="1639" y="1144" on="0"/>
        <pt x="1594" y="1114" on="1"/>
        <pt x="1291" y="883" on="1"/>
        <pt x="1371" y="811" on="0"/>
        <pt x="1427" y="756" on="1"/>
        <pt x="1490" y="694" on="0"/>
        <pt x="1594" y="549" on="0"/>
        <pt x="1648" y="445" on="0"/>
        <pt x="1714" y="348" on="0"/>
        <pt x="1747" y="325" on="1"/>
        <pt x="1769" y="310" on="0"/>
        <pt x="1838" y="293" on="0"/>
        <pt x="1885" y="287" on="0"/>
        <pt x="1920" y="251" on="0"/>
        <pt x="1920" y="216" on="1"/>
        <pt x="1920" y="174" on="0"/>
        <pt x="1907" y="153" on="1"/>
        <pt x="1885" y="104" on="0"/>
        <pt x="1825" y="38" on="0"/>
        <pt x="1758" y="-1" on="0"/>
        <pt x="1656" y="-21" on="0"/>
        <pt x="1561" y="-27" on="0"/>
        <pt x="1488" y="-27" on="1"/>
        <pt x="1428" y="-27" on="0"/>
        <pt x="1334" y="-16" on="0"/>
        <pt x="1261" y="11" on="0"/>
        <pt x="1209" y="42" on="0"/>
        <pt x="1164" y="99" on="0"/>
        <pt x="1135" y="151" on="0"/>
        <pt x="1102" y="238" on="0"/>
        <pt x="1077" y="312" on="0"/>
        <pt x="1036" y="431" on="0"/>
        <pt x="1017" y="480" on="1"/>
        <pt x="1009" y="501" on="0"/>
        <pt x="991" y="549" on="0"/>
        <pt x="981" y="577" on="0"/>
        <pt x="969" y="606" on="0"/>
        <pt x="962" y="621" on="0"/>
        <pt x="953" y="635" on="0"/>
        <pt x="945" y="640" on="0"/>
        <pt x="940" y="640" on="1"/>
        <pt x="929" y="640" on="0"/>
        <pt x="908" y="625" on="1"/>
        <pt x="812" y="556" on="1"/>
        <pt x="814" y="303" on="0"/>
        <pt x="896" y="294" on="1"/>
        <pt x="914" y="291" on="0"/>
        <pt x="933" y="286" on="0"/>
        <pt x="960" y="272" on="0"/>
        <pt x="972" y="246" on="0"/>
        <pt x="972" y="227" on="1"/>
        <pt x="972" y="156" on="0"/>
        <pt x="937" y="5" on="0"/>
        <pt x="904" y="-13" on="1"/>
        <pt x="771" y="0" on="0"/>
        <pt x="505" y="0" on="1"/>
        <pt x="196" y="0" on="0"/>
        <pt x="123" y="-13" on="1"/>
        <pt x="95" y="6" on="0"/>
        <pt x="65" y="171" on="0"/>
        <pt x="65" y="247" on="1"/>
        <pt x="65" y="266" on="0"/>
        <pt x="79" y="292" on="0"/>
        <pt x="108" y="305" on="0"/>
        <pt x="132" y="310" on="0"/>
        <pt x="154" y="312" on="1"/>
        <pt x="184" y="315" on="0"/>
        <pt x="223" y="355" on="0"/>
        <pt x="241" y="424" on="0"/>
        <pt x="247" y="490" on="0"/>
        <pt x="247" y="535" on="1"/>
        <pt x="247" y="974" on="1"/>
        <pt x="247" y="1013" on="0"/>
        <pt x="244" y="1065" on="0"/>
        <pt x="234" y="1123" on="0"/>
        <pt x="215" y="1158" on="0"/>
        <pt x="181" y="1183" on="0"/>
        <pt x="157" y="1186" on="1"/>
        <pt x="136" y="1188" on="0"/>
        <pt x="111" y="1194" on="0"/>
        <pt x="82" y="1207" on="0"/>
        <pt x="68" y="1233" on="0"/>
        <pt x="68" y="1252" on="1"/>
        <pt x="68" y="1325" on="0"/>
        <pt x="98" y="1485" on="0"/>
      </contour>
    </TTGlyph>
    <TTGlyph name="Kcommaaccent" xMin="65" yMin="-781" xMax="1920" yMax="1503">
      <component glyphName="uni0326" x="592" y="-39" flags="0x1004"/>
      <component glyphName="K" x="0" y="0" flags="0x1204"/>
    </TTGlyph>
    <TTGlyph name="L" xMin="65" yMin="-13" xMax="1474" yMax="1503">
      <contour>
        <pt x="812" y="974" on="1"/>
        <pt x="812" y="420" on="1"/>
        <pt x="812" y="204" on="0"/>
        <pt x="844" y="204" on="1"/>
        <pt x="911" y="204" on="0"/>
        <pt x="1016" y="252" on="0"/>
        <pt x="1077" y="326" on="0"/>
        <pt x="1132" y="418" on="0"/>
        <pt x="1170" y="501" on="0"/>
        <pt x="1228" y="575" on="0"/>
        <pt x="1262" y="590" on="1"/>
        <pt x="1275" y="597" on="0"/>
        <pt x="1301" y="597" on="1"/>
        <pt x="1358" y="597" on="0"/>
        <pt x="1474" y="542" on="0"/>
        <pt x="1474" y="506" on="1"/>
        <pt x="1461" y="437" on="0"/>
        <pt x="1342" y="139" on="0"/>
        <pt x="1290" y="29" on="1"/>
        <pt x="1271" y="-13" on="0"/>
        <pt x="1225" y="-13" on="1"/>
        <pt x="1223" y="-13" on="0"/>
        <pt x="1158" y="-10" on="0"/>
        <pt x="1043" y="-7" on="0"/>
        <pt x="894" y="-3" on="0"/>
        <pt x="680" y="0" on="0"/>
        <pt x="569" y="0" on="1"/>
        <pt x="209" y="0" on="0"/>
        <pt x="123" y="-13" on="1"/>
        <pt x="95" y="6" on="0"/>
        <pt x="65" y="171" on="0"/>
        <pt x="65" y="247" on="1"/>
        <pt x="65" y="266" on="0"/>
        <pt x="79" y="292" on="0"/>
        <pt x="108" y="305" on="0"/>
        <pt x="132" y="310" on="0"/>
        <pt x="154" y="312" on="1"/>
        <pt x="184" y="315" on="0"/>
        <pt x="223" y="355" on="0"/>
        <pt x="241" y="424" on="0"/>
        <pt x="247" y="490" on="0"/>
        <pt x="247" y="535" on="1"/>
        <pt x="247" y="974" on="1"/>
        <pt x="247" y="1013" on="0"/>
        <pt x="244" y="1065" on="0"/>
        <pt x="234" y="1123" on="0"/>
        <pt x="215" y="1158" on="0"/>
        <pt x="181" y="1183" on="0"/>
        <pt x="157" y="1186" on="1"/>
        <pt x="136" y="1188" on="0"/>
        <pt x="111" y="1194" on="0"/>
        <pt x="82" y="1207" on="0"/>
        <pt x="68" y="1233" on="0"/>
        <pt x="68" y="1252" on="1"/>
        <pt x="68" y="1325" on="0"/>
        <pt x="98" y="1485" on="0"/>
        <pt x="126" y="1503" on="1"/>
        <pt x="208" y="1489" on="0"/>
        <pt x="539" y="1489" on="1"/>
        <pt x="821" y="1489" on="0"/>
        <pt x="933" y="1503" on="1"/>
        <pt x="961" y="1485" on="0"/>
        <pt x="991" y="1325" on="0"/>
        <pt x="991" y="1252" on="1"/>
        <pt x="991" y="1233" on="0"/>
        <pt x="977" y="1207" on="0"/>
        <pt x="948" y="1194" on="0"/>
        <pt x="923" y="1188" on="0"/>
        <pt x="902" y="1186" on="1"/>
        <pt x="878" y="1183" on="0"/>
        <pt x="844" y="1158" on="0"/>
        <pt x="825" y="1123" on="0"/>
        <pt x="815" y="1065" on="0"/>
        <pt x="812" y="1013" on="0"/>
      </contour>
    </TTGlyph>
    <TTGlyph name="Lacute" xMin="65" yMin="-13" xMax="1474" yMax="2094">
      <component glyphName="acute" x="390" y="469" flags="0x1004"/>
      <component glyphName="L" x="0" y="0" flags="0x1204"/>
    </TTGlyph>
    <TTGlyph name="Lcommaaccent" xMin="65" yMin="-767" xMax="1474" yMax="1503">
      <component glyphName="uni0326" x="322" y="-25" flags="0x1004"/>
      <component glyphName="L" x="0" y="0" flags="0x1204"/>
    </TTGlyph>
    <TTGlyph name="Ldot" xMin="65" yMin="-13" xMax="1493" yMax="1503">
      <component glyphName="periodcentered" x="948" y="94" flags="0x1004"/>
      <component glyphName="L" x="0" y="0" flags="0x1204"/>
    </TTGlyph>
    <TTGlyph name="Lslash" xMin="67" yMin="-13" xMax="1476" yMax="1503">
      <contour>
        <pt x="814" y="974" on="1"/>
        <pt x="814" y="420" on="1"/>
        <pt x="814" y="204" on="0"/>
        <pt x="846" y="204" on="1"/>
        <pt x="913" y="204" on="0"/>
        <pt x="1018" y="252" on="0"/>
        <pt x="1079" y="326" on="0"/>
        <pt x="1134" y="418" on="0"/>
        <pt x="1172" y="501" on="0"/>
        <pt x="1230" y="575" on="0"/>
        <pt x="1264" y="590" on="1"/>
        <pt x="1277" y="597" on="0"/>
        <pt x="1303" y="597" on="1"/>
        <pt x="1360" y="597" on="0"/>
        <pt x="1476" y="542" on="0"/>
        <pt x="1476" y="506" on="1"/>
        <pt x="1463" y="437" on="0"/>
        <pt x="1344" y="139" on="0"/>
        <pt x="1292" y="29" on="1"/>
        <pt x="1273" y="-13" on="0"/>
        <pt x="1227" y="-13" on="1"/>
        <pt x="1225" y="-13" on="0"/>
        <pt x="1160" y="-10" on="0"/>
        <pt x="1045" y="-7" on="0"/>
        <pt x="896" y="-3" on="0"/>
        <pt x="682" y="0" on="0"/>
        <pt x="571" y="0" on="1"/>
        <pt x="211" y="0" on="0"/>
        <pt x="125" y="-13" on="1"/>
        <pt x="97" y="6" on="0"/>
        <pt x="67" y="171" on="0"/>
        <pt x="67" y="247" on="1"/>
        <pt x="67" y="266" on="0"/>
        <pt x="81" y="292" on="0"/>
        <pt x="110" y="305" on="0"/>
        <pt x="134" y="310" on="0"/>
        <pt x="156" y="312" on="1"/>
        <pt x="186" y="315" on="0"/>
        <pt x="225" y="355" on="0"/>
        <pt x="243" y="424" on="0"/>
        <pt x="249" y="490" on="0"/>
        <pt x="249" y="535" on="1"/>
        <pt x="249" y="974" on="1"/>
        <pt x="249" y="1013" on="0"/>
        <pt x="246" y="1065" on="0"/>
        <pt x="236" y="1123" on="0"/>
        <pt x="217" y="1158" on="0"/>
        <pt x="183" y="1183" on="0"/>
        <pt x="159" y="1186" on="1"/>
        <pt x="138" y="1188" on="0"/>
        <pt x="113" y="1194" on="0"/>
        <pt x="84" y="1207" on="0"/>
        <pt x="70" y="1233" on="0"/>
        <pt x="70" y="1252" on="1"/>
        <pt x="70" y="1325" on="0"/>
        <pt x="100" y="1485" on="0"/>
        <pt x="128" y="1503" on="1"/>
        <pt x="210" y="1489" on="0"/>
        <pt x="541" y="1489" on="1"/>
        <pt x="823" y="1489" on="0"/>
        <pt x="935" y="1503" on="1"/>
        <pt x="963" y="1485" on="0"/>
        <pt x="993" y="1325" on="0"/>
        <pt x="993" y="1252" on="1"/>
        <pt x="993" y="1233" on="0"/>
        <pt x="979" y="1207" on="0"/>
        <pt x="950" y="1194" on="0"/>
        <pt x="925" y="1188" on="0"/>
        <pt x="904" y="1186" on="1"/>
        <pt x="880" y="1183" on="0"/>
        <pt x="846" y="1158" on="0"/>
        <pt x="827" y="1123" on="0"/>
        <pt x="817" y="1065" on="0"/>
        <pt x="814" y="1013" on="0"/>
      </contour>
      <contour>
        <pt x="150" y="580" on="1"/>
        <pt x="82" y="580" on="0"/>
        <pt x="82" y="692" on="1"/>
        <pt x="82" y="735" on="0"/>
        <pt x="153" y="778" on="0"/>
        <pt x="241" y="793" on="1"/>
        <pt x="677" y="872" on="0"/>
        <pt x="938" y="924" on="1"/>
        <pt x="1000" y="937" on="0"/>
        <pt x="1070" y="911" on="0"/>
        <pt x="1070" y="885" on="1"/>
        <pt x="1070" y="819" on="0"/>
        <pt x="1014" y="739" on="0"/>
        <pt x="930" y="724" on="1"/>
        <pt x="237" y="598" on="0"/>
      </contour>
    </TTGlyph>
    <TTGlyph name="M" xMin="57" yMin="-13" xMax="2240" yMax="1504">
      <contour>
        <pt x="1493" y="605" on="1"/>
        <pt x="1493" y="756" on="1"/>
        <pt x="1493" y="860" on="0"/>
        <pt x="1480" y="865" on="1"/>
        <pt x="1468" y="865" on="0"/>
        <pt x="1460" y="850" on="1"/>
        <pt x="1349" y="607" on="0"/>
        <pt x="1175" y="154" on="1"/>
        <pt x="1135" y="50" on="1"/>
        <pt x="1085" y="25" on="0"/>
        <pt x="1022" y="16" on="1"/>
        <pt x="990" y="18" on="0"/>
        <pt x="963" y="56" on="1"/>
        <pt x="913" y="150" on="0"/>
        <pt x="640" y="756" on="0"/>
        <pt x="584" y="845" on="1"/>
        <pt x="573" y="862" on="0"/>
        <pt x="564" y="862" on="1"/>
        <pt x="546" y="862" on="0"/>
        <pt x="546" y="656" on="1"/>
        <pt x="546" y="579" on="1"/>
        <pt x="546" y="527" on="0"/>
        <pt x="550" y="445" on="0"/>
        <pt x="565" y="351" on="0"/>
        <pt x="590" y="288" on="0"/>
        <pt x="636" y="244" on="0"/>
        <pt x="667" y="241" on="1"/>
        <pt x="690" y="239" on="0"/>
        <pt x="719" y="235" on="0"/>
        <pt x="753" y="224" on="0"/>
        <pt x="770" y="203" on="0"/>
        <pt x="770" y="187" on="1"/>
        <pt x="770" y="128" on="0"/>
        <pt x="736" y="2" on="0"/>
        <pt x="705" y="-13" on="1"/>
        <pt x="594" y="0" on="0"/>
        <pt x="447" y="0" on="1"/>
        <pt x="254" y="0" on="0"/>
        <pt x="121" y="-13" on="1"/>
        <pt x="90" y="2" on="0"/>
        <pt x="57" y="127" on="0"/>
        <pt x="57" y="187" on="1"/>
        <pt x="57" y="208" on="0"/>
        <pt x="91" y="232" on="0"/>
        <pt x="127" y="238" on="0"/>
        <pt x="159" y="241" on="1"/>
        <pt x="199" y="244" on="0"/>
        <pt x="254" y="292" on="0"/>
        <pt x="281" y="375" on="0"/>
        <pt x="292" y="465" on="0"/>
        <pt x="292" y="524" on="1"/>
        <pt x="292" y="532" on="0"/>
        <pt x="291" y="828" on="0"/>
        <pt x="291" y="1032" on="1"/>
        <pt x="291" y="1092" on="0"/>
        <pt x="244" y="1156" on="0"/>
        <pt x="178" y="1173" on="0"/>
        <pt x="111" y="1183" on="0"/>
        <pt x="64" y="1214" on="0"/>
        <pt x="64" y="1249" on="1"/>
        <pt x="64" y="1312" on="0"/>
        <pt x="103" y="1480" on="0"/>
        <pt x="142" y="1503" on="1"/>
        <pt x="302" y="1489" on="0"/>
        <pt x="547" y="1489" on="1"/>
        <pt x="756" y="1489" on="0"/>
        <pt x="910" y="1504" on="1"/>
        <pt x="943" y="1496" on="0"/>
        <pt x="967" y="1462" on="0"/>
        <pt x="967" y="1434" on="1"/>
        <pt x="967" y="1424" on="0"/>
        <pt x="963" y="1376" on="0"/>
        <pt x="963" y="1362" on="1"/>
        <pt x="963" y="1320" on="0"/>
        <pt x="975" y="1290" on="1"/>
        <pt x="1058" y="1080" on="0"/>
        <pt x="1197" y="792" on="1"/>
        <pt x="1329" y="1147" on="0"/>
        <pt x="1364" y="1341" on="1"/>
        <pt x="1366" y="1355" on="0"/>
        <pt x="1367" y="1435" on="0"/>
        <pt x="1378" y="1492" on="0"/>
        <pt x="1394" y="1503" on="1"/>
        <pt x="1509" y="1489" on="0"/>
        <pt x="1796" y="1489" on="1"/>
        <pt x="2065" y="1489" on="0"/>
        <pt x="2164" y="1503" on="1"/>
        <pt x="2188" y="1503" on="0"/>
        <pt x="2240" y="1342" on="0"/>
        <pt x="2240" y="1264" on="1"/>
        <pt x="2240" y="1227" on="0"/>
        <pt x="2220" y="1189" on="0"/>
        <pt x="2188" y="1181" on="0"/>
        <pt x="2149" y="1179" on="0"/>
        <pt x="2110" y="1163" on="0"/>
        <pt x="2078" y="1125" on="0"/>
        <pt x="2058" y="1029" on="0"/>
        <pt x="2058" y="955" on="1"/>
        <pt x="2058" y="575" on="1"/>
        <pt x="2058" y="520" on="0"/>
        <pt x="2063" y="443" on="0"/>
        <pt x="2078" y="350" on="0"/>
        <pt x="2114" y="297" on="0"/>
        <pt x="2142" y="294" on="1"/>
        <pt x="2160" y="291" on="0"/>
        <pt x="2179" y="286" on="0"/>
        <pt x="2206" y="272" on="0"/>
        <pt x="2218" y="246" on="0"/>
        <pt x="2218" y="227" on="1"/>
        <pt x="2218" y="156" on="0"/>
        <pt x="2183" y="5" on="0"/>
        <pt x="2150" y="-13" on="1"/>
        <pt x="2036" y="0" on="0"/>
        <pt x="1821" y="0" on="1"/>
        <pt x="1540" y="0" on="0"/>
        <pt x="1402" y="-13" on="1"/>
        <pt x="1369" y="5" on="0"/>
        <pt x="1334" y="156" on="0"/>
        <pt x="1334" y="227" on="1"/>
        <pt x="1334" y="246" on="0"/>
        <pt x="1346" y="272" on="0"/>
        <pt x="1373" y="286" on="0"/>
        <pt x="1392" y="291" on="0"/>
        <pt x="1410" y="294" on="1"/>
        <pt x="1436" y="297" on="0"/>
        <pt x="1471" y="350" on="0"/>
        <pt x="1487" y="447" on="0"/>
        <pt x="1493" y="541" on="0"/>
      </contour>
    </TTGlyph>
    <TTGlyph name="N" xMin="46" yMin="-27" xMax="1845" yMax="1503">
      <contour>
        <pt x="547" y="803" on="1"/>
        <pt x="547" y="473" on="1"/>
        <pt x="547" y="250" on="0"/>
        <pt x="660" y="241" on="1"/>
        <pt x="683" y="239" on="0"/>
        <pt x="712" y="235" on="0"/>
        <pt x="746" y="224" on="0"/>
        <pt x="763" y="203" on="0"/>
        <pt x="763" y="187" on="1"/>
        <pt x="763" y="128" on="0"/>
        <pt x="729" y="2" on="0"/>
        <pt x="698" y="-13" on="1"/>
        <pt x="588" y="0" on="0"/>
        <pt x="446" y="0" on="1"/>
        <pt x="246" y="0" on="0"/>
        <pt x="110" y="-13" on="1"/>
        <pt x="79" y="2" on="0"/>
        <pt x="46" y="127" on="0"/>
        <pt x="46" y="187" on="1"/>
        <pt x="46" y="208" on="0"/>
        <pt x="80" y="232" on="0"/>
        <pt x="116" y="238" on="0"/>
        <pt x="148" y="241" on="1"/>
        <pt x="186" y="244" on="0"/>
        <pt x="235" y="288" on="0"/>
        <pt x="256" y="369" on="0"/>
        <pt x="263" y="443" on="0"/>
        <pt x="263" y="498" on="1"/>
        <pt x="263" y="1051" on="1"/>
        <pt x="263" y="1101" on="0"/>
        <pt x="220" y="1160" on="0"/>
        <pt x="158" y="1179" on="0"/>
        <pt x="97" y="1191" on="0"/>
        <pt x="54" y="1216" on="0"/>
        <pt x="54" y="1243" on="1"/>
        <pt x="54" y="1275" on="0"/>
        <pt x="61" y="1356" on="0"/>
        <pt x="100" y="1479" on="0"/>
        <pt x="132" y="1503" on="1"/>
        <pt x="265" y="1489" on="0"/>
        <pt x="503" y="1489" on="1"/>
        <pt x="577" y="1489" on="0"/>
        <pt x="685" y="1496" on="0"/>
        <pt x="737" y="1503" on="0"/>
        <pt x="742" y="1503" on="1"/>
        <pt x="755" y="1503" on="0"/>
        <pt x="778" y="1490" on="0"/>
        <pt x="806" y="1459" on="0"/>
        <pt x="832" y="1425" on="0"/>
        <pt x="880" y="1361" on="0"/>
        <pt x="904" y="1333" on="1"/>
        <pt x="1321" y="837" on="0"/>
        <pt x="1322" y="838" on="1"/>
        <pt x="1331" y="831" on="0"/>
        <pt x="1346" y="831" on="1"/>
        <pt x="1346" y="1021" on="1"/>
        <pt x="1346" y="1061" on="0"/>
        <pt x="1343" y="1116" on="0"/>
        <pt x="1330" y="1176" on="0"/>
        <pt x="1308" y="1212" on="0"/>
        <pt x="1268" y="1238" on="0"/>
        <pt x="1240" y="1240" on="1"/>
        <pt x="1217" y="1242" on="0"/>
        <pt x="1189" y="1246" on="0"/>
        <pt x="1155" y="1257" on="0"/>
        <pt x="1138" y="1278" on="0"/>
        <pt x="1138" y="1294" on="1"/>
        <pt x="1138" y="1356" on="0"/>
        <pt x="1171" y="1487" on="0"/>
        <pt x="1202" y="1503" on="1"/>
        <pt x="1349" y="1489" on="0"/>
        <pt x="1528" y="1489" on="1"/>
        <pt x="1658" y="1489" on="0"/>
        <pt x="1781" y="1503" on="1"/>
        <pt x="1812" y="1487" on="0"/>
        <pt x="1845" y="1356" on="0"/>
        <pt x="1845" y="1294" on="1"/>
        <pt x="1845" y="1278" on="0"/>
        <pt x="1828" y="1257" on="0"/>
        <pt x="1794" y="1246" on="0"/>
        <pt x="1765" y="1242" on="0"/>
        <pt x="1742" y="1240" on="1"/>
        <pt x="1706" y="1237" on="0"/>
        <pt x="1659" y="1196" on="0"/>
        <pt x="1638" y="1125" on="0"/>
        <pt x="1631" y="1062" on="0"/>
        <pt x="1631" y="1021" on="1"/>
        <pt x="1631" y="930" on="1"/>
        <pt x="1631" y="168" on="0"/>
        <pt x="1650" y="44" on="1"/>
        <pt x="1531" y="-27" on="0"/>
        <pt x="1441" y="-27" on="1"/>
        <pt x="1374" y="-27" on="0"/>
        <pt x="1236" y="52" on="0"/>
        <pt x="1152" y="138" on="1"/>
        <pt x="1063" y="235" on="0"/>
        <pt x="626" y="770" on="1"/>
        <pt x="573" y="834" on="0"/>
        <pt x="559" y="834" on="1"/>
        <pt x="547" y="834" on="0"/>
      </contour>
    </TTGlyph>
    <TTGlyph name="Nacute" xMin="46" yMin="-27" xMax="1845" yMax="2094">
      <component glyphName="acute" x="850" y="469" flags="0x1004"/>
      <component glyphName="N" x="0" y="0" flags="0x1204"/>
    </TTGlyph>
    <TTGlyph name="Ncaron" xMin="46" yMin="-27" xMax="1845" yMax="2094">
      <component glyphName="caron" x="436" y="469" flags="0x1004"/>
      <component glyphName="N" x="0" y="0" flags="0x1204"/>
    </TTGlyph>
    <TTGlyph name="Ncommaaccent" xMin="46" yMin="-781" xMax="1845" yMax="1503">
      <component glyphName="uni0326" x="554" y="-39" flags="0x1004"/>
      <component glyphName="N" x="0" y="0" flags="0x1204"/>
    </TTGlyph>
    <TTGlyph name="Ntilde" xMin="46" yMin="-27" xMax="1845" yMax="1996">
      <component glyphName="tilde" x="424" y="455" flags="0x1004"/>
      <component glyphName="N" x="0" y="0" flags="0x1204"/>
    </TTGlyph>
    <TTGlyph name="O" xMin="38" yMin="-27" xMax="1792" yMax="1516">
      <contour>
        <pt x="918" y="-27" on="1"/>
        <pt x="513" y="-27" on="0"/>
        <pt x="38" y="382" on="0"/>
        <pt x="38" y="748" on="1"/>
        <pt x="38" y="1108" on="0"/>
        <pt x="511" y="1516" on="0"/>
        <pt x="925" y="1516" on="1"/>
        <pt x="1095" y="1516" on="0"/>
        <pt x="1379" y="1442" on="0"/>
        <pt x="1583" y="1308" on="0"/>
        <pt x="1724" y="1123" on="0"/>
        <pt x="1792" y="900" on="0"/>
        <pt x="1792" y="773" on="1"/>
        <pt x="1792" y="608" on="0"/>
        <pt x="1702" y="340" on="0"/>
        <pt x="1544" y="155" on="0"/>
        <pt x="1323" y="30" on="0"/>
        <pt x="1065" y="-27" on="0"/>
      </contour>
      <contour>
        <pt x="931" y="220" on="1"/>
        <pt x="958" y="220" on="0"/>
        <pt x="1003" y="247" on="0"/>
        <pt x="1034" y="304" on="0"/>
        <pt x="1057" y="364" on="0"/>
        <pt x="1070" y="458" on="0"/>
        <pt x="1079" y="529" on="0"/>
        <pt x="1082" y="639" on="0"/>
        <pt x="1083" y="701" on="0"/>
        <pt x="1083" y="753" on="1"/>
        <pt x="1083" y="816" on="0"/>
        <pt x="1079" y="917" on="0"/>
        <pt x="1068" y="1048" on="0"/>
        <pt x="1044" y="1145" on="0"/>
        <pt x="1008" y="1233" on="0"/>
        <pt x="949" y="1279" on="0"/>
        <pt x="911" y="1279" on="1"/>
        <pt x="771" y="1279" on="0"/>
        <pt x="771" y="733" on="1"/>
        <pt x="771" y="220" on="0"/>
      </contour>
    </TTGlyph>
    <TTGlyph name="OE" xMin="45" yMin="-27" xMax="2365" yMax="1516">
      <contour>
        <pt x="925" y="-27" on="1"/>
        <pt x="520" y="-27" on="0"/>
        <pt x="45" y="382" on="0"/>
        <pt x="45" y="748" on="1"/>
        <pt x="45" y="1108" on="0"/>
        <pt x="518" y="1516" on="0"/>
        <pt x="932" y="1516" on="1"/>
        <pt x="982" y="1513" on="0"/>
        <pt x="1171" y="1501" on="0"/>
        <pt x="1288" y="1495" on="0"/>
        <pt x="1454" y="1489" on="0"/>
        <pt x="1527" y="1489" on="1"/>
        <pt x="1982" y="1489" on="0"/>
        <pt x="2188" y="1516" on="1"/>
        <pt x="2222" y="1451" on="0"/>
        <pt x="2294" y="1211" on="0"/>
        <pt x="2294" y="1137" on="1"/>
        <pt x="2294" y="1108" on="0"/>
        <pt x="2255" y="1065" on="0"/>
        <pt x="2195" y="1043" on="0"/>
        <pt x="2139" y="1033" on="0"/>
        <pt x="2114" y="1033" on="1"/>
        <pt x="2108" y="1033" on="0"/>
        <pt x="2066" y="1083" on="0"/>
        <pt x="2003" y="1154" on="0"/>
        <pt x="1926" y="1226" on="0"/>
        <pt x="1826" y="1276" on="0"/>
        <pt x="1778" y="1276" on="1"/>
        <pt x="1756" y="1276" on="0"/>
        <pt x="1734" y="1271" on="0"/>
        <pt x="1708" y="1248" on="0"/>
        <pt x="1696" y="1198" on="0"/>
        <pt x="1688" y="1107" on="0"/>
        <pt x="1688" y="1037" on="1"/>
        <pt x="1688" y="819" on="1"/>
        <pt x="1809" y="968" on="0"/>
        <pt x="1950" y="968" on="1"/>
        <pt x="2032" y="968" on="0"/>
        <pt x="2128" y="855" on="0"/>
        <pt x="2128" y="782" on="1"/>
        <pt x="2128" y="702" on="0"/>
        <pt x="2016" y="593" on="0"/>
        <pt x="1942" y="593" on="1"/>
        <pt x="1905" y="635" on="0"/>
        <pt x="1806" y="690" on="0"/>
        <pt x="1760" y="690" on="1"/>
        <pt x="1710" y="690" on="0"/>
        <pt x="1678" y="641" on="1"/>
        <pt x="1678" y="378" on="1"/>
        <pt x="1678" y="194" on="0"/>
        <pt x="1721" y="194" on="1"/>
        <pt x="1809" y="194" on="1"/>
        <pt x="1866" y="205" on="0"/>
        <pt x="1960" y="270" on="0"/>
        <pt x="2040" y="383" on="0"/>
        <pt x="2099" y="497" on="0"/>
        <pt x="2135" y="582" on="1"/>
        <pt x="2146" y="586" on="0"/>
        <pt x="2164" y="586" on="1"/>
        <pt x="2214" y="586" on="0"/>
        <pt x="2342" y="538" on="0"/>
        <pt x="2360" y="507" on="1"/>
        <pt x="2365" y="497" on="0"/>
        <pt x="2365" y="473" on="1"/>
        <pt x="2365" y="376" on="0"/>
        <pt x="2286" y="127" on="1"/>
        <pt x="2270" y="78" on="0"/>
        <pt x="2218" y="-27" on="0"/>
        <pt x="2198" y="-27" on="1"/>
        <pt x="2016" y="0" on="0"/>
        <pt x="1617" y="0" on="1"/>
        <pt x="1496" y="0" on="0"/>
        <pt x="1034" y="-27" on="0"/>
      </contour>
      <contour>
        <pt x="968" y="220" on="1"/>
        <pt x="992" y="220" on="0"/>
        <pt x="1053" y="227" on="0"/>
        <pt x="1072" y="230" on="1"/>
        <pt x="1090" y="234" on="1"/>
        <pt x="1090" y="1263" on="1"/>
        <pt x="1026" y="1279" on="0"/>
        <pt x="968" y="1279" on="1"/>
        <pt x="914" y="1279" on="0"/>
        <pt x="839" y="1205" on="0"/>
        <pt x="796" y="1058" on="0"/>
        <pt x="778" y="865" on="0"/>
        <pt x="778" y="733" on="1"/>
        <pt x="778" y="684" on="0"/>
        <pt x="779" y="626" on="0"/>
        <pt x="783" y="521" on="0"/>
        <pt x="794" y="452" on="0"/>
        <pt x="810" y="361" on="0"/>
        <pt x="839" y="302" on="0"/>
        <pt x="878" y="247" on="0"/>
        <pt x="934" y="220" on="0"/>
      </contour>
    </TTGlyph>
    <TTGlyph name="Oacute" xMin="38" yMin="-27" xMax="1792" yMax="2094">
      <component glyphName="acute" x="816" y="469" flags="0x1004"/>
      <component glyphName="O" x="0" y="0" flags="0x1204"/>
    </TTGlyph>
    <TTGlyph name="Obreve" xMin="38" yMin="-27" xMax="1792" yMax="1949">
      <component glyphName="breve" x="439" y="434" flags="0x1004"/>
      <component glyphName="O" x="0" y="0" flags="0x1204"/>
    </TTGlyph>
    <TTGlyph name="Ocircumflex" xMin="38" yMin="-27" xMax="1792" yMax="2094">
      <component glyphName="circumflex" x="398" y="469" flags="0x1004"/>
      <component glyphName="O" x="0" y="0" flags="0x1204"/>
    </TTGlyph>
    <TTGlyph name="Odieresis" xMin="38" yMin="-27" xMax="1792" yMax="1985">
      <component glyphName="dieresis" x="397" y="470" flags="0x1004"/>
      <component glyphName="O" x="0" y="0" flags="0x1204"/>
    </TTGlyph>
    <TTGlyph name="Ograve" xMin="38" yMin="-27" xMax="1792" yMax="2094">
      <component glyphName="grave" x="54" y="469" flags="0x1004"/>
      <component glyphName="O" x="0" y="0" flags="0x1204"/>
    </TTGlyph>
    <TTGlyph name="Ohungarumlaut" xMin="38" yMin="-27" xMax="1792" yMax="2094">
      <component glyphName="hungarumlaut" x="564" y="469" flags="0x1004"/>
      <component glyphName="O" x="0" y="0" flags="0x1204"/>
    </TTGlyph>
    <TTGlyph name="Omacron" xMin="38" yMin="-27" xMax="1792" yMax="1902">
      <component glyphName="macron" x="468" y="413" flags="0x1004"/>
      <component glyphName="O" x="0" y="0" flags="0x1204"/>
    </TTGlyph>
    <TTGlyph name="Oslash" xMin="38" yMin="-163" xMax="1792" yMax="1645">
      <contour>
        <pt x="931" y="220" on="1"/>
        <pt x="958" y="220" on="0"/>
        <pt x="1003" y="247" on="0"/>
        <pt x="1034" y="304" on="0"/>
        <pt x="1057" y="364" on="0"/>
        <pt x="1070" y="458" on="0"/>
        <pt x="1079" y="529" on="0"/>
        <pt x="1082" y="639" on="0"/>
        <pt x="1083" y="701" on="0"/>
        <pt x="1083" y="753" on="1"/>
        <pt x="1083" y="800" on="1"/>
        <pt x="855" y="427" on="0"/>
        <pt x="809" y="353" on="1"/>
        <pt x="849" y="220" on="0"/>
      </contour>
      <contour>
        <pt x="773" y="613" on="1"/>
        <pt x="908" y="828" on="0"/>
        <pt x="1062" y="1071" on="1"/>
        <pt x="1023" y="1279" on="0"/>
        <pt x="911" y="1279" on="1"/>
        <pt x="771" y="1279" on="0"/>
        <pt x="771" y="733" on="1"/>
        <pt x="771" y="661" on="0"/>
      </contour>
      <contour>
        <pt x="1447" y="1396" on="1"/>
        <pt x="1617" y="1300" on="0"/>
        <pt x="1792" y="976" on="0"/>
        <pt x="1792" y="773" on="1"/>
        <pt x="1792" y="608" on="0"/>
        <pt x="1702" y="340" on="0"/>
        <pt x="1544" y="155" on="0"/>
        <pt x="1323" y="30" on="0"/>
        <pt x="1065" y="-27" on="0"/>
        <pt x="918" y="-27" on="1"/>
        <pt x="745" y="-27" on="0"/>
        <pt x="596" y="13" on="1"/>
        <pt x="581" y="-11" on="0"/>
        <pt x="524" y="-101" on="0"/>
        <pt x="514" y="-116" on="1"/>
        <pt x="487" y="-163" on="0"/>
        <pt x="423" y="-163" on="1"/>
        <pt x="370" y="-163" on="0"/>
        <pt x="325" y="-129" on="0"/>
        <pt x="325" y="-94" on="1"/>
        <pt x="325" y="-85" on="0"/>
        <pt x="342" y="-61" on="0"/>
        <pt x="374" y="-23" on="0"/>
        <pt x="384" y="-6" on="1"/>
        <pt x="394" y="10" on="0"/>
        <pt x="433" y="73" on="1"/>
        <pt x="244" y="166" on="0"/>
        <pt x="38" y="510" on="0"/>
        <pt x="38" y="748" on="1"/>
        <pt x="38" y="1108" on="0"/>
        <pt x="511" y="1516" on="0"/>
        <pt x="925" y="1516" on="1"/>
        <pt x="1139" y="1516" on="0"/>
        <pt x="1305" y="1459" on="1"/>
        <pt x="1376" y="1572" on="0"/>
        <pt x="1402" y="1618" on="1"/>
        <pt x="1411" y="1644" on="0"/>
        <pt x="1447" y="1644" on="1"/>
        <pt x="1454" y="1644" on="1"/>
        <pt x="1460" y="1645" on="0"/>
        <pt x="1474" y="1645" on="0"/>
        <pt x="1496" y="1644" on="0"/>
        <pt x="1515" y="1641" on="0"/>
        <pt x="1535" y="1636" on="0"/>
        <pt x="1549" y="1627" on="0"/>
        <pt x="1558" y="1614" on="0"/>
        <pt x="1558" y="1605" on="1"/>
        <pt x="1558" y="1579" on="0"/>
        <pt x="1543" y="1553" on="1"/>
        <pt x="1506" y="1492" on="0"/>
      </contour>
    </TTGlyph>
    <TTGlyph name="Otilde" xMin="38" yMin="-27" xMax="1792" yMax="1996">
      <component glyphName="tilde" x="392" y="455" flags="0x1004"/>
      <component glyphName="O" x="0" y="0" flags="0x1204"/>
    </TTGlyph>
    <TTGlyph name="P" xMin="65" yMin="-13" xMax="1639" yMax="1503">
      <contour>
        <pt x="822" y="822" on="1"/>
        <pt x="828" y="819" on="0"/>
        <pt x="844" y="812" on="0"/>
        <pt x="851" y="809" on="0"/>
        <pt x="861" y="805" on="0"/>
        <pt x="865" y="804" on="0"/>
        <pt x="872" y="802" on="0"/>
        <pt x="879" y="801" on="0"/>
        <pt x="886" y="801" on="0"/>
        <pt x="891" y="801" on="1"/>
        <pt x="1013" y="801" on="0"/>
        <pt x="1013" y="1102" on="1"/>
        <pt x="1013" y="1338" on="0"/>
        <pt x="912" y="1338" on="1"/>
        <pt x="880" y="1338" on="0"/>
        <pt x="839" y="1307" on="0"/>
        <pt x="819" y="1241" on="0"/>
        <pt x="812" y="1170" on="0"/>
        <pt x="812" y="1116" on="1"/>
        <pt x="812" y="1112" on="0"/>
        <pt x="811" y="1051" on="0"/>
        <pt x="811" y="1012" on="1"/>
        <pt x="811" y="935" on="0"/>
        <pt x="812" y="873" on="1"/>
        <pt x="812" y="844" on="0"/>
      </contour>
      <contour>
        <pt x="126" y="1503" on="1"/>
        <pt x="136" y="1503" on="0"/>
        <pt x="291" y="1495" on="0"/>
        <pt x="446" y="1489" on="0"/>
        <pt x="498" y="1489" on="1"/>
        <pt x="566" y="1489" on="0"/>
        <pt x="843" y="1503" on="0"/>
        <pt x="915" y="1503" on="1"/>
        <pt x="968" y="1503" on="0"/>
        <pt x="1047" y="1501" on="0"/>
        <pt x="1170" y="1493" on="0"/>
        <pt x="1263" y="1478" on="0"/>
        <pt x="1379" y="1448" on="0"/>
        <pt x="1464" y="1408" on="0"/>
        <pt x="1550" y="1345" on="0"/>
        <pt x="1605" y="1266" on="0"/>
        <pt x="1639" y="1158" on="0"/>
        <pt x="1639" y="1093" on="1"/>
        <pt x="1639" y="988" on="0"/>
        <pt x="1567" y="822" on="0"/>
        <pt x="1446" y="714" on="0"/>
        <pt x="1276" y="643" on="0"/>
        <pt x="1091" y="613" on="0"/>
        <pt x="985" y="613" on="1"/>
        <pt x="922" y="613" on="0"/>
        <pt x="812" y="622" on="1"/>
        <pt x="812" y="304" on="0"/>
        <pt x="897" y="296" on="1"/>
        <pt x="899" y="296" on="0"/>
        <pt x="919" y="292" on="0"/>
        <pt x="924" y="291" on="0"/>
        <pt x="942" y="287" on="0"/>
        <pt x="948" y="284" on="0"/>
        <pt x="962" y="278" on="0"/>
        <pt x="968" y="272" on="0"/>
        <pt x="977" y="262" on="0"/>
        <pt x="981" y="251" on="0"/>
        <pt x="984" y="236" on="0"/>
        <pt x="984" y="227" on="1"/>
        <pt x="984" y="149" on="0"/>
        <pt x="953" y="5" on="0"/>
        <pt x="916" y="-13" on="1"/>
        <pt x="781" y="0" on="0"/>
        <pt x="497" y="0" on="1"/>
        <pt x="193" y="0" on="0"/>
        <pt x="123" y="-13" on="1"/>
        <pt x="95" y="6" on="0"/>
        <pt x="65" y="171" on="0"/>
        <pt x="65" y="247" on="1"/>
        <pt x="65" y="266" on="0"/>
        <pt x="79" y="292" on="0"/>
        <pt x="108" y="305" on="0"/>
        <pt x="132" y="310" on="0"/>
        <pt x="154" y="312" on="1"/>
        <pt x="184" y="315" on="0"/>
        <pt x="223" y="355" on="0"/>
        <pt x="241" y="424" on="0"/>
        <pt x="247" y="490" on="0"/>
        <pt x="247" y="535" on="1"/>
        <pt x="247" y="974" on="1"/>
        <pt x="247" y="1013" on="0"/>
        <pt x="244" y="1065" on="0"/>
        <pt x="234" y="1123" on="0"/>
        <pt x="215" y="1158" on="0"/>
        <pt x="181" y="1183" on="0"/>
        <pt x="157" y="1186" on="1"/>
        <pt x="136" y="1188" on="0"/>
        <pt x="111" y="1194" on="0"/>
        <pt x="82" y="1207" on="0"/>
        <pt x="68" y="1233" on="0"/>
        <pt x="68" y="1252" on="1"/>
        <pt x="68" y="1325" on="0"/>
        <pt x="98" y="1485" on="0"/>
      </contour>
    </TTGlyph>
    <TTGlyph name="Q" xMin="37" yMin="-298" xMax="1849" yMax="1516">
      <contour>
        <pt x="933" y="231" on="1"/>
        <pt x="960" y="231" on="0"/>
        <pt x="1003" y="257" on="0"/>
        <pt x="1034" y="310" on="0"/>
        <pt x="1057" y="368" on="0"/>
        <pt x="1071" y="456" on="0"/>
        <pt x="1079" y="529" on="0"/>
        <pt x="1083" y="634" on="0"/>
        <pt x="1084" y="702" on="0"/>
        <pt x="1084" y="752" on="1"/>
        <pt x="1084" y="834" on="0"/>
        <pt x="1079" y="962" on="0"/>
        <pt x="1067" y="1097" on="0"/>
        <pt x="1042" y="1194" on="0"/>
        <pt x="1005" y="1273" on="0"/>
        <pt x="949" y="1313" on="0"/>
        <pt x="913" y="1313" on="1"/>
        <pt x="775" y="1313" on="0"/>
        <pt x="775" y="733" on="1"/>
        <pt x="775" y="231" on="0"/>
      </contour>
      <contour>
        <pt x="997" y="-27" on="1"/>
        <pt x="842" y="-27" on="0"/>
        <pt x="566" y="26" on="0"/>
        <pt x="319" y="146" on="0"/>
        <pt x="141" y="325" on="0"/>
        <pt x="37" y="593" on="0"/>
        <pt x="37" y="760" on="1"/>
        <pt x="37" y="1109" on="0"/>
        <pt x="507" y="1516" on="0"/>
        <pt x="915" y="1516" on="1"/>
        <pt x="1338" y="1516" on="0"/>
        <pt x="1796" y="1108" on="0"/>
        <pt x="1796" y="756" on="1"/>
        <pt x="1796" y="548" on="0"/>
        <pt x="1629" y="236" on="0"/>
        <pt x="1456" y="120" on="1"/>
        <pt x="1474" y="78" on="0"/>
        <pt x="1563" y="17" on="0"/>
        <pt x="1667" y="-14" on="0"/>
        <pt x="1768" y="-36" on="0"/>
        <pt x="1842" y="-55" on="0"/>
        <pt x="1849" y="-66" on="1"/>
        <pt x="1847" y="-113" on="0"/>
        <pt x="1799" y="-201" on="1"/>
        <pt x="1746" y="-298" on="0"/>
        <pt x="1549" y="-298" on="1"/>
        <pt x="1472" y="-298" on="0"/>
        <pt x="1351" y="-266" on="0"/>
        <pt x="1277" y="-217" on="0"/>
        <pt x="1221" y="-140" on="0"/>
        <pt x="1194" y="-72" on="0"/>
        <pt x="1181" y="-25" on="1"/>
        <pt x="1135" y="-25" on="0"/>
      </contour>
    </TTGlyph>
    <TTGlyph name="R" xMin="65" yMin="-27" xMax="1842" yMax="1503">
      <contour>
        <pt x="812" y="846" on="1"/>
        <pt x="854" y="836" on="0"/>
        <pt x="897" y="836" on="1"/>
        <pt x="1029" y="836" on="0"/>
        <pt x="1029" y="1097" on="1"/>
        <pt x="1029" y="1141" on="0"/>
        <pt x="1019" y="1208" on="0"/>
        <pt x="995" y="1270" on="0"/>
        <pt x="945" y="1303" on="0"/>
        <pt x="908" y="1303" on="1"/>
        <pt x="853" y="1303" on="0"/>
        <pt x="812" y="1204" on="0"/>
        <pt x="812" y="1111" on="1"/>
      </contour>
      <contour>
        <pt x="126" y="1503" on="1"/>
        <pt x="339" y="1489" on="0"/>
        <pt x="446" y="1489" on="1"/>
        <pt x="581" y="1489" on="0"/>
        <pt x="845" y="1503" on="0"/>
        <pt x="941" y="1503" on="1"/>
        <pt x="1010" y="1503" on="0"/>
        <pt x="1104" y="1500" on="0"/>
        <pt x="1263" y="1485" on="0"/>
        <pt x="1372" y="1458" on="0"/>
        <pt x="1502" y="1402" on="0"/>
        <pt x="1581" y="1325" on="0"/>
        <pt x="1635" y="1204" on="0"/>
        <pt x="1635" y="1128" on="1"/>
        <pt x="1635" y="839" on="0"/>
        <pt x="1346" y="767" on="1"/>
        <pt x="1413" y="749" on="0"/>
        <pt x="1514" y="691" on="0"/>
        <pt x="1582" y="616" on="0"/>
        <pt x="1629" y="512" on="0"/>
        <pt x="1656" y="399" on="0"/>
        <pt x="1665" y="323" on="1"/>
        <pt x="1669" y="292" on="0"/>
        <pt x="1712" y="263" on="0"/>
        <pt x="1763" y="262" on="0"/>
        <pt x="1825" y="250" on="0"/>
        <pt x="1842" y="235" on="1"/>
        <pt x="1842" y="174" on="0"/>
        <pt x="1835" y="103" on="0"/>
        <pt x="1807" y="36" on="0"/>
        <pt x="1762" y="5" on="0"/>
        <pt x="1672" y="-20" on="0"/>
        <pt x="1556" y="-27" on="0"/>
        <pt x="1465" y="-27" on="1"/>
        <pt x="1337" y="-27" on="0"/>
        <pt x="1175" y="25" on="0"/>
        <pt x="1102" y="117" on="0"/>
        <pt x="1070" y="231" on="0"/>
        <pt x="1055" y="366" on="0"/>
        <pt x="1030" y="493" on="0"/>
        <pt x="949" y="622" on="0"/>
        <pt x="878" y="667" on="1"/>
        <pt x="812" y="667" on="1"/>
        <pt x="812" y="620" on="0"/>
        <pt x="813" y="552" on="0"/>
        <pt x="818" y="459" on="0"/>
        <pt x="829" y="394" on="0"/>
        <pt x="846" y="331" on="0"/>
        <pt x="874" y="298" on="0"/>
        <pt x="893" y="296" on="1"/>
        <pt x="895" y="296" on="0"/>
        <pt x="915" y="292" on="0"/>
        <pt x="920" y="291" on="0"/>
        <pt x="938" y="287" on="0"/>
        <pt x="944" y="284" on="0"/>
        <pt x="958" y="278" on="0"/>
        <pt x="964" y="272" on="0"/>
        <pt x="973" y="262" on="0"/>
        <pt x="977" y="251" on="0"/>
        <pt x="980" y="236" on="0"/>
        <pt x="980" y="227" on="1"/>
        <pt x="980" y="155" on="0"/>
        <pt x="945" y="4" on="0"/>
        <pt x="912" y="-14" on="1"/>
        <pt x="778" y="0" on="0"/>
        <pt x="543" y="0" on="1"/>
        <pt x="201" y="0" on="0"/>
        <pt x="123" y="-13" on="1"/>
        <pt x="95" y="6" on="0"/>
        <pt x="65" y="171" on="0"/>
        <pt x="65" y="247" on="1"/>
        <pt x="65" y="266" on="0"/>
        <pt x="79" y="292" on="0"/>
        <pt x="108" y="305" on="0"/>
        <pt x="132" y="310" on="0"/>
        <pt x="154" y="312" on="1"/>
        <pt x="184" y="315" on="0"/>
        <pt x="223" y="355" on="0"/>
        <pt x="241" y="424" on="0"/>
        <pt x="247" y="490" on="0"/>
        <pt x="247" y="535" on="1"/>
        <pt x="247" y="974" on="1"/>
        <pt x="247" y="1013" on="0"/>
        <pt x="244" y="1065" on="0"/>
        <pt x="234" y="1123" on="0"/>
        <pt x="215" y="1158" on="0"/>
        <pt x="181" y="1183" on="0"/>
        <pt x="157" y="1186" on="1"/>
        <pt x="136" y="1188" on="0"/>
        <pt x="111" y="1194" on="0"/>
        <pt x="82" y="1207" on="0"/>
        <pt x="68" y="1233" on="0"/>
        <pt x="68" y="1252" on="1"/>
        <pt x="68" y="1325" on="0"/>
        <pt x="98" y="1485" on="0"/>
      </contour>
    </TTGlyph>
    <TTGlyph name="Racute" xMin="65" yMin="-27" xMax="1842" yMax="2094">
      <component glyphName="acute" x="656" y="469" flags="0x1004"/>
      <component glyphName="R" x="0" y="0" flags="0x1204"/>
    </TTGlyph>
    <TTGlyph name="Rcaron" xMin="65" yMin="-27" xMax="1842" yMax="2094">
      <component glyphName="caron" x="350" y="469" flags="0x1004"/>
      <component glyphName="R" x="0" y="0" flags="0x1204"/>
    </TTGlyph>
    <TTGlyph name="Rcommaaccent" xMin="65" yMin="-781" xMax="1842" yMax="1503">
      <component glyphName="uni0326" x="602" y="-39" flags="0x1004"/>
      <component glyphName="R" x="0" y="0" flags="0x1204"/>
    </TTGlyph>
    <TTGlyph name="S" xMin="37" yMin="-27" xMax="1487" yMax="1516">
      <contour>
        <pt x="1062" y="1430" on="1"/>
        <pt x="1063" y="1434" on="0"/>
        <pt x="1071" y="1458" on="0"/>
        <pt x="1073" y="1462" on="0"/>
        <pt x="1080" y="1480" on="0"/>
        <pt x="1086" y="1482" on="0"/>
        <pt x="1097" y="1494" on="0"/>
        <pt x="1109" y="1495" on="0"/>
        <pt x="1128" y="1501" on="0"/>
        <pt x="1151" y="1501" on="0"/>
        <pt x="1181" y="1503" on="0"/>
        <pt x="1200" y="1503" on="1"/>
        <pt x="1221" y="1503" on="0"/>
        <pt x="1280" y="1498" on="0"/>
        <pt x="1298" y="1496" on="1"/>
        <pt x="1317" y="1494" on="1"/>
        <pt x="1327" y="1471" on="0"/>
        <pt x="1358" y="1394" on="0"/>
        <pt x="1409" y="1208" on="0"/>
        <pt x="1409" y="1147" on="1"/>
        <pt x="1409" y="1109" on="0"/>
        <pt x="1271" y="1064" on="0"/>
        <pt x="1203" y="1064" on="1"/>
        <pt x="1159" y="1064" on="0"/>
        <pt x="1152" y="1074" on="1"/>
        <pt x="1128" y="1111" on="0"/>
        <pt x="1061" y="1180" on="0"/>
        <pt x="966" y="1246" on="0"/>
        <pt x="839" y="1285" on="0"/>
        <pt x="769" y="1285" on="1"/>
        <pt x="679" y="1285" on="0"/>
        <pt x="565" y="1242" on="0"/>
        <pt x="565" y="1203" on="1"/>
        <pt x="565" y="1183" on="0"/>
        <pt x="601" y="1144" on="0"/>
        <pt x="672" y="1111" on="0"/>
        <pt x="747" y="1083" on="0"/>
        <pt x="854" y="1056" on="0"/>
        <pt x="932" y="1039" on="0"/>
        <pt x="985" y="1028" on="1"/>
        <pt x="1230" y="978" on="0"/>
        <pt x="1487" y="713" on="0"/>
        <pt x="1487" y="519" on="1"/>
        <pt x="1480" y="404" on="0"/>
        <pt x="1401" y="217" on="0"/>
        <pt x="1278" y="93" on="0"/>
        <pt x="1114" y="10" on="0"/>
        <pt x="935" y="-27" on="0"/>
        <pt x="836" y="-27" on="1"/>
        <pt x="571" y="-27" on="0"/>
        <pt x="416" y="58" on="1"/>
        <pt x="415" y="54" on="0"/>
        <pt x="409" y="28" on="0"/>
        <pt x="405" y="19" on="0"/>
        <pt x="392" y="1" on="0"/>
        <pt x="374" y="-6" on="0"/>
        <pt x="341" y="-13" on="0"/>
        <pt x="318" y="-13" on="1"/>
        <pt x="249" y="-13" on="0"/>
        <pt x="171" y="-5" on="1"/>
        <pt x="69" y="237" on="0"/>
        <pt x="69" y="367" on="1"/>
        <pt x="69" y="410" on="0"/>
        <pt x="187" y="466" on="0"/>
        <pt x="249" y="466" on="1"/>
        <pt x="286" y="466" on="0"/>
        <pt x="306" y="454" on="1"/>
        <pt x="361" y="360" on="0"/>
        <pt x="630" y="216" on="0"/>
        <pt x="743" y="216" on="1"/>
        <pt x="827" y="216" on="0"/>
        <pt x="951" y="271" on="0"/>
        <pt x="951" y="323" on="1"/>
        <pt x="951" y="341" on="0"/>
        <pt x="933" y="374" on="0"/>
        <pt x="896" y="403" on="0"/>
        <pt x="854" y="428" on="0"/>
        <pt x="790" y="453" on="0"/>
        <pt x="736" y="472" on="0"/>
        <pt x="656" y="494" on="0"/>
        <pt x="600" y="508" on="0"/>
        <pt x="517" y="530" on="0"/>
        <pt x="493" y="536" on="1"/>
        <pt x="411" y="558" on="0"/>
        <pt x="280" y="611" on="0"/>
        <pt x="162" y="691" on="0"/>
        <pt x="83" y="791" on="0"/>
        <pt x="37" y="929" on="0"/>
        <pt x="37" y="1012" on="1"/>
        <pt x="37" y="1175" on="0"/>
        <pt x="196" y="1404" on="0"/>
        <pt x="476" y="1516" on="0"/>
        <pt x="666" y="1516" on="1"/>
        <pt x="782" y="1516" on="0"/>
        <pt x="965" y="1470" on="0"/>
      </contour>
    </TTGlyph>
    <TTGlyph name="Sacute" xMin="37" yMin="-27" xMax="1487" yMax="2094">
      <component glyphName="acute" x="560" y="469" flags="0x1004"/>
      <component glyphName="S" x="0" y="0" flags="0x1204"/>
    </TTGlyph>
    <TTGlyph name="Scaron" xMin="37" yMin="-27" xMax="1487" yMax="2094">
      <component glyphName="caron" x="146" y="469" flags="0x1004"/>
      <component glyphName="S" x="0" y="0" flags="0x1204"/>
    </TTGlyph>
    <TTGlyph name="Scedilla" xMin="37" yMin="-514" xMax="1487" yMax="1516">
      <component glyphName="cedilla" x="624" y="-21" flags="0x1004"/>
      <component glyphName="S" x="0" y="0" flags="0x1204"/>
    </TTGlyph>
    <TTGlyph name="T" xMin="1" yMin="-13" xMax="1571" yMax="1503">
      <contour>
        <pt x="1513" y="1503" on="1"/>
        <pt x="1515" y="1490" on="0"/>
        <pt x="1538" y="1370" on="0"/>
        <pt x="1555" y="1274" on="0"/>
        <pt x="1571" y="1147" on="0"/>
        <pt x="1571" y="1105" on="1"/>
        <pt x="1571" y="1092" on="0"/>
        <pt x="1566" y="1075" on="1"/>
        <pt x="1553" y="1057" on="0"/>
        <pt x="1389" y="1014" on="0"/>
        <pt x="1335" y="1014" on="1"/>
        <pt x="1323" y="1014" on="0"/>
        <pt x="1317" y="1017" on="1"/>
        <pt x="1312" y="1028" on="0"/>
        <pt x="1288" y="1083" on="0"/>
        <pt x="1273" y="1115" on="0"/>
        <pt x="1248" y="1170" on="0"/>
        <pt x="1229" y="1204" on="0"/>
        <pt x="1203" y="1249" on="0"/>
        <pt x="1180" y="1277" on="0"/>
        <pt x="1154" y="1304" on="0"/>
        <pt x="1128" y="1316" on="0"/>
        <pt x="1116" y="1316" on="1"/>
        <pt x="1078" y="1316" on="0"/>
        <pt x="1078" y="1243" on="1"/>
        <pt x="1078" y="605" on="1"/>
        <pt x="1078" y="539" on="0"/>
        <pt x="1083" y="448" on="0"/>
        <pt x="1098" y="350" on="0"/>
        <pt x="1133" y="297" on="0"/>
        <pt x="1159" y="294" on="1"/>
        <pt x="1177" y="291" on="0"/>
        <pt x="1196" y="286" on="0"/>
        <pt x="1223" y="272" on="0"/>
        <pt x="1235" y="246" on="0"/>
        <pt x="1235" y="227" on="1"/>
        <pt x="1235" y="156" on="0"/>
        <pt x="1194" y="5" on="0"/>
        <pt x="1157" y="-13" on="1"/>
        <pt x="1044" y="0" on="0"/>
        <pt x="548" y="0" on="0"/>
        <pt x="435" y="-13" on="1"/>
        <pt x="398" y="5" on="0"/>
        <pt x="357" y="156" on="0"/>
        <pt x="357" y="227" on="1"/>
        <pt x="357" y="246" on="0"/>
        <pt x="369" y="272" on="0"/>
        <pt x="396" y="286" on="0"/>
        <pt x="415" y="291" on="0"/>
        <pt x="433" y="294" on="1"/>
        <pt x="459" y="297" on="0"/>
        <pt x="494" y="350" on="0"/>
        <pt x="508" y="448" on="0"/>
        <pt x="513" y="538" on="0"/>
        <pt x="513" y="605" on="1"/>
        <pt x="513" y="1243" on="1"/>
        <pt x="513" y="1316" on="0"/>
        <pt x="476" y="1316" on="1"/>
        <pt x="458" y="1316" on="0"/>
        <pt x="423" y="1297" on="0"/>
        <pt x="385" y="1252" on="0"/>
        <pt x="357" y="1216" on="0"/>
        <pt x="317" y="1142" on="0"/>
        <pt x="299" y="1109" on="0"/>
        <pt x="259" y="1024" on="0"/>
        <pt x="255" y="1017" on="1"/>
        <pt x="248" y="1014" on="0"/>
        <pt x="237" y="1014" on="1"/>
        <pt x="183" y="1014" on="0"/>
        <pt x="19" y="1057" on="0"/>
        <pt x="6" y="1075" on="1"/>
        <pt x="1" y="1092" on="0"/>
        <pt x="1" y="1105" on="1"/>
        <pt x="1" y="1147" on="0"/>
        <pt x="17" y="1273" on="0"/>
        <pt x="34" y="1370" on="0"/>
        <pt x="57" y="1490" on="0"/>
        <pt x="59" y="1503" on="1"/>
        <pt x="245" y="1489" on="0"/>
        <pt x="796" y="1489" on="1"/>
        <pt x="1332" y="1489" on="0"/>
      </contour>
    </TTGlyph>
    <TTGlyph name="Tcaron" xMin="1" yMin="-13" xMax="1571" yMax="2094">
      <component glyphName="caron" x="266" y="469" flags="0x1004"/>
      <component glyphName="T" x="0" y="0" flags="0x1204"/>
    </TTGlyph>
    <TTGlyph name="Thorn" xMin="65" yMin="-27" xMax="1604" yMax="1516">
      <contour>
        <pt x="224" y="502" on="1"/>
        <pt x="224" y="1016" on="1"/>
        <pt x="224" y="1091" on="0"/>
        <pt x="190" y="1189" on="0"/>
        <pt x="153" y="1193" on="1"/>
        <pt x="151" y="1193" on="0"/>
        <pt x="131" y="1197" on="0"/>
        <pt x="126" y="1198" on="0"/>
        <pt x="108" y="1202" on="0"/>
        <pt x="102" y="1205" on="0"/>
        <pt x="88" y="1211" on="0"/>
        <pt x="82" y="1217" on="0"/>
        <pt x="73" y="1227" on="0"/>
        <pt x="69" y="1238" on="0"/>
        <pt x="66" y="1253" on="0"/>
        <pt x="66" y="1262" on="1"/>
        <pt x="66" y="1337" on="0"/>
        <pt x="107" y="1497" on="0"/>
        <pt x="144" y="1516" on="1"/>
        <pt x="289" y="1489" on="0"/>
        <pt x="463" y="1489" on="1"/>
        <pt x="579" y="1489" on="0"/>
        <pt x="694" y="1516" on="1"/>
        <pt x="728" y="1498" on="0"/>
        <pt x="771" y="1357" on="0"/>
        <pt x="776" y="1281" on="1"/>
        <pt x="861" y="1281" on="0"/>
        <pt x="1005" y="1275" on="0"/>
        <pt x="1181" y="1255" on="0"/>
        <pt x="1319" y="1221" on="0"/>
        <pt x="1456" y="1160" on="0"/>
        <pt x="1548" y="1079" on="0"/>
        <pt x="1604" y="958" on="0"/>
        <pt x="1604" y="883" on="1"/>
        <pt x="1604" y="769" on="0"/>
        <pt x="1497" y="601" on="0"/>
        <pt x="1309" y="507" on="0"/>
        <pt x="1084" y="463" on="0"/>
        <pt x="950" y="463" on="1"/>
        <pt x="920" y="463" on="0"/>
        <pt x="811" y="472" on="0"/>
        <pt x="789" y="472" on="1"/>
        <pt x="789" y="396" on="0"/>
        <pt x="817" y="301" on="0"/>
        <pt x="862" y="296" on="1"/>
        <pt x="864" y="296" on="0"/>
        <pt x="884" y="292" on="0"/>
        <pt x="889" y="291" on="0"/>
        <pt x="907" y="287" on="0"/>
        <pt x="913" y="284" on="0"/>
        <pt x="927" y="278" on="0"/>
        <pt x="933" y="272" on="0"/>
        <pt x="942" y="262" on="0"/>
        <pt x="946" y="251" on="0"/>
        <pt x="949" y="236" on="0"/>
        <pt x="949" y="227" on="1"/>
        <pt x="949" y="152" on="0"/>
        <pt x="908" y="-8" on="0"/>
        <pt x="871" y="-27" on="1"/>
        <pt x="726" y="0" on="0"/>
        <pt x="552" y="0" on="1"/>
        <pt x="318" y="0" on="0"/>
        <pt x="143" y="-27" on="1"/>
        <pt x="106" y="-8" on="0"/>
        <pt x="65" y="152" on="0"/>
        <pt x="65" y="227" on="1"/>
        <pt x="65" y="237" on="0"/>
        <pt x="68" y="253" on="0"/>
        <pt x="76" y="265" on="0"/>
        <pt x="81" y="274" on="0"/>
        <pt x="97" y="282" on="0"/>
        <pt x="101" y="286" on="0"/>
        <pt x="123" y="291" on="0"/>
        <pt x="126" y="292" on="0"/>
        <pt x="139" y="294" on="1"/>
        <pt x="152" y="296" on="1"/>
        <pt x="175" y="298" on="0"/>
        <pt x="205" y="334" on="0"/>
        <pt x="219" y="397" on="0"/>
        <pt x="224" y="460" on="0"/>
      </contour>
      <contour>
        <pt x="777" y="652" on="1"/>
        <pt x="817" y="641" on="0"/>
        <pt x="856" y="641" on="1"/>
        <pt x="978" y="641" on="0"/>
        <pt x="978" y="882" on="1"/>
        <pt x="978" y="1118" on="0"/>
        <pt x="857" y="1118" on="1"/>
        <pt x="819" y="1118" on="0"/>
        <pt x="777" y="1111" on="1"/>
      </contour>
    </TTGlyph>
    <TTGlyph name="U" xMin="52" yMin="-27" xMax="1789" yMax="1503">
      <contour>
        <pt x="1648" y="989" on="1"/>
        <pt x="1648" y="698" on="1"/>
        <pt x="1648" y="523" on="0"/>
        <pt x="1579" y="265" on="0"/>
        <pt x="1461" y="105" on="0"/>
        <pt x="1276" y="9" on="0"/>
        <pt x="1071" y="-27" on="0"/>
        <pt x="935" y="-27" on="1"/>
        <pt x="863" y="-27" on="0"/>
        <pt x="755" y="-22" on="0"/>
        <pt x="625" y="-6" on="0"/>
        <pt x="528" y="22" on="0"/>
        <pt x="422" y="71" on="0"/>
        <pt x="347" y="140" on="0"/>
        <pt x="277" y="240" on="0"/>
        <pt x="234" y="366" on="0"/>
        <pt x="208" y="534" on="0"/>
        <pt x="208" y="635" on="1"/>
        <pt x="208" y="914" on="1"/>
        <pt x="208" y="975" on="0"/>
        <pt x="203" y="1054" on="0"/>
        <pt x="188" y="1136" on="0"/>
        <pt x="155" y="1178" on="0"/>
        <pt x="128" y="1181" on="1"/>
        <pt x="110" y="1184" on="0"/>
        <pt x="91" y="1189" on="0"/>
        <pt x="64" y="1203" on="0"/>
        <pt x="52" y="1229" on="0"/>
        <pt x="52" y="1248" on="1"/>
        <pt x="52" y="1323" on="0"/>
        <pt x="93" y="1484" on="0"/>
        <pt x="130" y="1503" on="1"/>
        <pt x="273" y="1489" on="0"/>
        <pt x="532" y="1489" on="1"/>
        <pt x="738" y="1489" on="0"/>
        <pt x="861" y="1503" on="1"/>
        <pt x="898" y="1484" on="0"/>
        <pt x="939" y="1323" on="0"/>
        <pt x="939" y="1248" on="1"/>
        <pt x="939" y="1229" on="0"/>
        <pt x="927" y="1203" on="0"/>
        <pt x="900" y="1189" on="0"/>
        <pt x="881" y="1184" on="0"/>
        <pt x="863" y="1181" on="1"/>
        <pt x="773" y="1171" on="0"/>
        <pt x="773" y="914" on="1"/>
        <pt x="773" y="623" on="1"/>
        <pt x="773" y="550" on="0"/>
        <pt x="780" y="446" on="0"/>
        <pt x="805" y="339" on="0"/>
        <pt x="847" y="274" on="0"/>
        <pt x="921" y="233" on="0"/>
        <pt x="973" y="233" on="1"/>
        <pt x="1006" y="233" on="0"/>
        <pt x="1062" y="249" on="0"/>
        <pt x="1102" y="272" on="0"/>
        <pt x="1133" y="315" on="0"/>
        <pt x="1153" y="353" on="0"/>
        <pt x="1168" y="415" on="0"/>
        <pt x="1175" y="459" on="0"/>
        <pt x="1178" y="532" on="0"/>
        <pt x="1179" y="574" on="0"/>
        <pt x="1179" y="612" on="1"/>
        <pt x="1179" y="989" on="1"/>
        <pt x="1179" y="1033" on="0"/>
        <pt x="1174" y="1091" on="0"/>
        <pt x="1159" y="1150" on="0"/>
        <pt x="1126" y="1182" on="0"/>
        <pt x="1100" y="1184" on="1"/>
        <pt x="1083" y="1187" on="0"/>
        <pt x="1063" y="1193" on="0"/>
        <pt x="1044" y="1215" on="0"/>
        <pt x="1044" y="1234" on="1"/>
        <pt x="1044" y="1312" on="0"/>
        <pt x="1084" y="1483" on="0"/>
        <pt x="1121" y="1503" on="1"/>
        <pt x="1233" y="1489" on="0"/>
        <pt x="1435" y="1489" on="1"/>
        <pt x="1620" y="1489" on="0"/>
        <pt x="1721" y="1503" on="1"/>
        <pt x="1753" y="1483" on="0"/>
        <pt x="1789" y="1312" on="0"/>
        <pt x="1789" y="1234" on="1"/>
        <pt x="1789" y="1215" on="0"/>
        <pt x="1769" y="1193" on="0"/>
        <pt x="1749" y="1187" on="0"/>
        <pt x="1732" y="1184" on="1"/>
        <pt x="1648" y="1176" on="0"/>
      </contour>
    </TTGlyph>
    <TTGlyph name="Uacute" xMin="52" yMin="-27" xMax="1789" yMax="2094">
      <component glyphName="acute" x="817" y="469" flags="0x1004"/>
      <component glyphName="U" x="0" y="0" flags="0x1204"/>
    </TTGlyph>
    <TTGlyph name="Ubreve" xMin="52" yMin="-27" xMax="1789" yMax="1949">
      <component glyphName="breve" x="439" y="434" flags="0x1004"/>
      <component glyphName="U" x="0" y="0" flags="0x1204"/>
    </TTGlyph>
    <TTGlyph name="Ucircumflex" xMin="52" yMin="-27" xMax="1789" yMax="2094">
      <component glyphName="circumflex" x="399" y="469" flags="0x1004"/>
      <component glyphName="U" x="0" y="0" flags="0x1204"/>
    </TTGlyph>
    <TTGlyph name="Udieresis" xMin="52" yMin="-27" xMax="1789" yMax="1985">
      <component glyphName="dieresis" x="427" y="470" flags="0x1004"/>
      <component glyphName="U" x="0" y="0" flags="0x1204"/>
    </TTGlyph>
    <TTGlyph name="Ugrave" xMin="52" yMin="-27" xMax="1789" yMax="2094">
      <component glyphName="grave" x="54" y="469" flags="0x1004"/>
      <component glyphName="U" x="0" y="0" flags="0x1204"/>
    </TTGlyph>
    <TTGlyph name="Uhungarumlaut" xMin="52" yMin="-27" xMax="1789" yMax="2094">
      <component glyphName="hungarumlaut" x="565" y="469" flags="0x1004"/>
      <component glyphName="U" x="0" y="0" flags="0x1204"/>
    </TTGlyph>
    <TTGlyph name="Umacron" xMin="52" yMin="-27" xMax="1789" yMax="1902">
      <component glyphName="macron" x="468" y="413" flags="0x1004"/>
      <component glyphName="U" x="0" y="0" flags="0x1204"/>
    </TTGlyph>
    <TTGlyph name="Uogonek" xMin="52" yMin="-450" xMax="1789" yMax="1503">
      <component glyphName="ogonek" x="796" y="-1" flags="0x1004"/>
      <component glyphName="U" x="0" y="0" flags="0x1204"/>
    </TTGlyph>
    <TTGlyph name="Uring" xMin="52" yMin="-27" xMax="1789" yMax="2068">
      <component glyphName="ring" x="587" y="432" flags="0x1004"/>
      <component glyphName="U" x="0" y="0" flags="0x1204"/>
    </TTGlyph>
    <TTGlyph name="V" xMin="-10" yMin="0" xMax="1638" yMax="1503">
      <contour>
        <pt x="956" y="0" on="1"/>
        <pt x="751" y="0" on="1"/>
        <pt x="718" y="0" on="0"/>
        <pt x="665" y="16" on="0"/>
        <pt x="622" y="56" on="0"/>
        <pt x="591" y="95" on="0"/>
        <pt x="556" y="173" on="0"/>
        <pt x="533" y="231" on="0"/>
        <pt x="491" y="342" on="0"/>
        <pt x="476" y="379" on="1"/>
        <pt x="433" y="484" on="0"/>
        <pt x="319" y="767" on="0"/>
        <pt x="259" y="914" on="0"/>
        <pt x="189" y="1080" on="0"/>
        <pt x="162" y="1138" on="1"/>
        <pt x="152" y="1158" on="0"/>
        <pt x="109" y="1177" on="0"/>
        <pt x="63" y="1184" on="0"/>
        <pt x="18" y="1199" on="0"/>
        <pt x="-10" y="1248" on="0"/>
        <pt x="-10" y="1291" on="1"/>
        <pt x="-10" y="1350" on="0"/>
        <pt x="-7" y="1418" on="0"/>
        <pt x="10" y="1493" on="0"/>
        <pt x="27" y="1503" on="1"/>
        <pt x="177" y="1489" on="0"/>
        <pt x="422" y="1489" on="1"/>
        <pt x="665" y="1489" on="0"/>
        <pt x="829" y="1503" on="1"/>
        <pt x="843" y="1503" on="0"/>
        <pt x="881" y="1322" on="0"/>
        <pt x="881" y="1265" on="1"/>
        <pt x="881" y="1243" on="0"/>
        <pt x="851" y="1222" on="0"/>
        <pt x="815" y="1218" on="0"/>
        <pt x="785" y="1196" on="0"/>
        <pt x="785" y="1173" on="1"/>
        <pt x="785" y="1169" on="1"/>
        <pt x="785" y="1153" on="0"/>
        <pt x="796" y="1123" on="1"/>
        <pt x="796" y="1122" on="0"/>
        <pt x="815" y="1062" on="0"/>
        <pt x="840" y="981" on="0"/>
        <pt x="871" y="878" on="0"/>
        <pt x="902" y="780" on="0"/>
        <pt x="929" y="697" on="0"/>
        <pt x="947" y="647" on="0"/>
        <pt x="949" y="647" on="1"/>
        <pt x="953" y="647" on="0"/>
        <pt x="1034" y="871" on="0"/>
        <pt x="1113" y="1125" on="0"/>
        <pt x="1113" y="1157" on="1"/>
        <pt x="1113" y="1178" on="0"/>
        <pt x="1086" y="1213" on="0"/>
        <pt x="1064" y="1217" on="1"/>
        <pt x="1031" y="1222" on="0"/>
        <pt x="999" y="1248" on="0"/>
        <pt x="994" y="1272" on="0"/>
        <pt x="994" y="1298" on="1"/>
        <pt x="994" y="1480" on="0"/>
        <pt x="1039" y="1503" on="1"/>
        <pt x="1133" y="1489" on="0"/>
        <pt x="1287" y="1489" on="1"/>
        <pt x="1356" y="1489" on="0"/>
        <pt x="1610" y="1503" on="1"/>
        <pt x="1638" y="1501" on="0"/>
        <pt x="1638" y="1371" on="1"/>
        <pt x="1638" y="1312" on="1"/>
        <pt x="1638" y="1273" on="0"/>
        <pt x="1623" y="1233" on="0"/>
        <pt x="1594" y="1219" on="0"/>
        <pt x="1557" y="1214" on="0"/>
        <pt x="1509" y="1192" on="0"/>
        <pt x="1461" y="1149" on="0"/>
        <pt x="1405" y="1045" on="0"/>
        <pt x="1381" y="967" on="1"/>
        <pt x="1344" y="850" on="0"/>
        <pt x="1239" y="555" on="0"/>
        <pt x="1096" y="170" on="0"/>
        <pt x="1076" y="116" on="1"/>
        <pt x="1066" y="89" on="0"/>
        <pt x="1054" y="62" on="0"/>
        <pt x="1026" y="20" on="0"/>
        <pt x="984" y="0" on="0"/>
      </contour>
    </TTGlyph>
    <TTGlyph name="W" xMin="-20" yMin="0" xMax="2336" yMax="1503">
      <contour>
        <pt x="1644" y="0" on="1"/>
        <pt x="1479" y="0" on="1"/>
        <pt x="1458" y="0" on="0"/>
        <pt x="1422" y="13" on="0"/>
        <pt x="1397" y="28" on="0"/>
        <pt x="1372" y="64" on="0"/>
        <pt x="1357" y="88" on="0"/>
        <pt x="1338" y="141" on="0"/>
        <pt x="1330" y="167" on="0"/>
        <pt x="1313" y="231" on="0"/>
        <pt x="1309" y="243" on="1"/>
        <pt x="1168" y="716" on="1"/>
        <pt x="1024" y="263" on="0"/>
        <pt x="975" y="116" on="1"/>
        <pt x="966" y="90" on="0"/>
        <pt x="953" y="62" on="0"/>
        <pt x="926" y="20" on="0"/>
        <pt x="884" y="0" on="0"/>
        <pt x="856" y="0" on="1"/>
        <pt x="671" y="0" on="1"/>
        <pt x="643" y="0" on="0"/>
        <pt x="599" y="16" on="0"/>
        <pt x="562" y="56" on="0"/>
        <pt x="536" y="96" on="0"/>
        <pt x="505" y="172" on="0"/>
        <pt x="484" y="232" on="0"/>
        <pt x="448" y="340" on="0"/>
        <pt x="434" y="378" on="1"/>
        <pt x="414" y="433" on="0"/>
        <pt x="311" y="721" on="0"/>
        <pt x="277" y="812" on="0"/>
        <pt x="212" y="989" on="0"/>
        <pt x="170" y="1092" on="0"/>
        <pt x="149" y="1139" on="1"/>
        <pt x="141" y="1156" on="0"/>
        <pt x="109" y="1176" on="0"/>
        <pt x="72" y="1181" on="0"/>
        <pt x="32" y="1193" on="0"/>
        <pt x="1" y="1210" on="0"/>
        <pt x="-20" y="1257" on="0"/>
        <pt x="-20" y="1293" on="1"/>
        <pt x="-20" y="1352" on="0"/>
        <pt x="-17" y="1420" on="0"/>
        <pt x="0" y="1493" on="0"/>
        <pt x="17" y="1503" on="1"/>
        <pt x="182" y="1489" on="0"/>
        <pt x="412" y="1489" on="1"/>
        <pt x="649" y="1489" on="0"/>
        <pt x="809" y="1503" on="1"/>
        <pt x="823" y="1503" on="0"/>
        <pt x="861" y="1324" on="0"/>
        <pt x="861" y="1267" on="1"/>
        <pt x="861" y="1248" on="0"/>
        <pt x="824" y="1228" on="0"/>
        <pt x="778" y="1221" on="0"/>
        <pt x="741" y="1190" on="0"/>
        <pt x="741" y="1160" on="1"/>
        <pt x="741" y="1148" on="0"/>
        <pt x="746" y="1125" on="1"/>
        <pt x="752" y="1102" on="0"/>
        <pt x="874" y="717" on="0"/>
        <pt x="879" y="717" on="1"/>
        <pt x="881" y="717" on="0"/>
        <pt x="934" y="876" on="0"/>
        <pt x="996" y="1076" on="0"/>
        <pt x="1009" y="1125" on="1"/>
        <pt x="1020" y="1169" on="0"/>
        <pt x="1020" y="1225" on="1"/>
        <pt x="1020" y="1266" on="0"/>
        <pt x="1009" y="1357" on="0"/>
        <pt x="998" y="1417" on="0"/>
        <pt x="998" y="1422" on="1"/>
        <pt x="998" y="1444" on="0"/>
        <pt x="1022" y="1477" on="0"/>
        <pt x="1040" y="1477" on="1"/>
        <pt x="1210" y="1460" on="0"/>
        <pt x="1269" y="1460" on="1"/>
        <pt x="1354" y="1460" on="0"/>
        <pt x="1469" y="1476" on="1"/>
        <pt x="1474" y="1477" on="0"/>
        <pt x="1482" y="1477" on="1"/>
        <pt x="1519" y="1477" on="0"/>
        <pt x="1519" y="1432" on="1"/>
        <pt x="1519" y="1404" on="0"/>
        <pt x="1500" y="1305" on="0"/>
        <pt x="1500" y="1273" on="1"/>
        <pt x="1500" y="1226" on="0"/>
        <pt x="1513" y="1175" on="1"/>
        <pt x="1517" y="1161" on="0"/>
        <pt x="1547" y="1042" on="0"/>
        <pt x="1595" y="862" on="0"/>
        <pt x="1634" y="727" on="0"/>
        <pt x="1637" y="727" on="1"/>
        <pt x="1645" y="727" on="0"/>
        <pt x="1761" y="1139" on="0"/>
        <pt x="1761" y="1159" on="1"/>
        <pt x="1761" y="1181" on="0"/>
        <pt x="1734" y="1219" on="0"/>
        <pt x="1712" y="1219" on="1"/>
        <pt x="1687" y="1224" on="0"/>
        <pt x="1657" y="1238" on="0"/>
        <pt x="1644" y="1262" on="0"/>
        <pt x="1642" y="1280" on="0"/>
        <pt x="1642" y="1300" on="1"/>
        <pt x="1642" y="1480" on="0"/>
        <pt x="1687" y="1503" on="1"/>
        <pt x="1818" y="1489" on="0"/>
        <pt x="2005" y="1489" on="1"/>
        <pt x="2062" y="1489" on="0"/>
        <pt x="2288" y="1503" on="1"/>
        <pt x="2317" y="1502" on="0"/>
        <pt x="2336" y="1433" on="0"/>
        <pt x="2336" y="1373" on="1"/>
        <pt x="2336" y="1314" on="1"/>
        <pt x="2336" y="1275" on="0"/>
        <pt x="2318" y="1235" on="0"/>
        <pt x="2286" y="1222" on="0"/>
        <pt x="2244" y="1218" on="0"/>
        <pt x="2192" y="1196" on="0"/>
        <pt x="2140" y="1152" on="0"/>
        <pt x="2082" y="1048" on="0"/>
        <pt x="2057" y="970" on="1"/>
        <pt x="1878" y="409" on="0"/>
        <pt x="1765" y="116" on="1"/>
        <pt x="1755" y="90" on="0"/>
        <pt x="1741" y="61" on="0"/>
        <pt x="1713" y="20" on="0"/>
        <pt x="1671" y="0" on="0"/>
      </contour>
    </TTGlyph>
    <TTGlyph name="X" xMin="39" yMin="-13" xMax="1719" yMax="1503">
      <contour>
        <pt x="638" y="-13" on="1"/>
        <pt x="512" y="0" on="0"/>
        <pt x="371" y="0" on="1"/>
        <pt x="209" y="0" on="0"/>
        <pt x="68" y="-13" on="1"/>
        <pt x="39" y="0" on="0"/>
        <pt x="39" y="59" on="1"/>
        <pt x="39" y="139" on="0"/>
        <pt x="47" y="218" on="0"/>
        <pt x="64" y="255" on="0"/>
        <pt x="105" y="275" on="0"/>
        <pt x="154" y="295" on="0"/>
        <pt x="244" y="363" on="0"/>
        <pt x="293" y="419" on="1"/>
        <pt x="296" y="423" on="0"/>
        <pt x="436" y="576" on="0"/>
        <pt x="537" y="696" on="0"/>
        <pt x="587" y="763" on="1"/>
        <pt x="549" y="808" on="0"/>
        <pt x="354" y="1053" on="0"/>
        <pt x="316" y="1103" on="1"/>
        <pt x="292" y="1135" on="0"/>
        <pt x="202" y="1178" on="0"/>
        <pt x="128" y="1195" on="0"/>
        <pt x="71" y="1234" on="0"/>
        <pt x="71" y="1265" on="1"/>
        <pt x="71" y="1355" on="0"/>
        <pt x="81" y="1461" on="0"/>
        <pt x="91" y="1489" on="0"/>
        <pt x="101" y="1503" on="1"/>
        <pt x="183" y="1489" on="0"/>
        <pt x="528" y="1489" on="1"/>
        <pt x="795" y="1489" on="0"/>
        <pt x="909" y="1503" on="1"/>
        <pt x="924" y="1493" on="0"/>
        <pt x="951" y="1319" on="0"/>
        <pt x="951" y="1257" on="1"/>
        <pt x="951" y="1242" on="0"/>
        <pt x="905" y="1212" on="0"/>
        <pt x="905" y="1192" on="1"/>
        <pt x="905" y="1184" on="0"/>
        <pt x="913" y="1161" on="0"/>
        <pt x="930" y="1131" on="0"/>
        <pt x="946" y="1104" on="0"/>
        <pt x="973" y="1065" on="0"/>
        <pt x="988" y="1042" on="0"/>
        <pt x="1017" y="1001" on="0"/>
        <pt x="1022" y="995" on="1"/>
        <pt x="1072" y="1057" on="0"/>
        <pt x="1158" y="1185" on="0"/>
        <pt x="1158" y="1198" on="1"/>
        <pt x="1158" y="1210" on="0"/>
        <pt x="1132" y="1225" on="0"/>
        <pt x="1100" y="1235" on="0"/>
        <pt x="1074" y="1276" on="0"/>
        <pt x="1074" y="1311" on="1"/>
        <pt x="1074" y="1474" on="0"/>
        <pt x="1120" y="1503" on="1"/>
        <pt x="1195" y="1489" on="0"/>
        <pt x="1374" y="1489" on="1"/>
        <pt x="1573" y="1489" on="0"/>
        <pt x="1690" y="1503" on="1"/>
        <pt x="1719" y="1493" on="0"/>
        <pt x="1719" y="1417" on="1"/>
        <pt x="1719" y="1385" on="0"/>
        <pt x="1719" y="1356" on="0"/>
        <pt x="1717" y="1308" on="0"/>
        <pt x="1714" y="1287" on="0"/>
        <pt x="1707" y="1255" on="0"/>
        <pt x="1697" y="1241" on="0"/>
        <pt x="1683" y="1223" on="0"/>
        <pt x="1664" y="1215" on="0"/>
        <pt x="1651" y="1213" on="1"/>
        <pt x="1629" y="1209" on="0"/>
        <pt x="1599" y="1201" on="0"/>
        <pt x="1570" y="1193" on="0"/>
        <pt x="1539" y="1172" on="0"/>
        <pt x="1513" y="1156" on="0"/>
        <pt x="1471" y="1115" on="0"/>
        <pt x="1438" y="1083" on="0"/>
        <pt x="1373" y="1013" on="0"/>
        <pt x="1322" y="957" on="0"/>
        <pt x="1223" y="849" on="0"/>
        <pt x="1182" y="805" on="1"/>
        <pt x="1227" y="740" on="0"/>
        <pt x="1463" y="453" on="1"/>
        <pt x="1500" y="403" on="0"/>
        <pt x="1576" y="337" on="0"/>
        <pt x="1628" y="314" on="0"/>
        <pt x="1675" y="288" on="0"/>
        <pt x="1703" y="258" on="0"/>
        <pt x="1719" y="186" on="0"/>
        <pt x="1719" y="124" on="1"/>
        <pt x="1719" y="90" on="0"/>
        <pt x="1717" y="52" on="0"/>
        <pt x="1699" y="0" on="0"/>
        <pt x="1681" y="-13" on="1"/>
        <pt x="1548" y="0" on="0"/>
        <pt x="1253" y="0" on="1"/>
        <pt x="994" y="0" on="0"/>
        <pt x="878" y="-13" on="1"/>
        <pt x="857" y="3" on="0"/>
        <pt x="828" y="148" on="0"/>
        <pt x="828" y="189" on="1"/>
        <pt x="828" y="222" on="0"/>
        <pt x="857" y="258" on="0"/>
        <pt x="891" y="265" on="0"/>
        <pt x="920" y="282" on="0"/>
        <pt x="920" y="298" on="1"/>
        <pt x="920" y="327" on="0"/>
        <pt x="878" y="393" on="1"/>
        <pt x="764" y="567" on="1"/>
        <pt x="760" y="561" on="0"/>
        <pt x="694" y="475" on="0"/>
        <pt x="637" y="398" on="0"/>
        <pt x="586" y="322" on="0"/>
        <pt x="586" y="312" on="1"/>
        <pt x="586" y="295" on="0"/>
        <pt x="617" y="275" on="0"/>
        <pt x="653" y="263" on="0"/>
        <pt x="684" y="213" on="0"/>
        <pt x="684" y="170" on="1"/>
        <pt x="684" y="161" on="1"/>
        <pt x="684" y="15" on="0"/>
      </contour>
    </TTGlyph>
    <TTGlyph name="Y" xMin="-20" yMin="-13" xMax="1629" yMax="1503">
      <contour>
        <pt x="1085" y="605" on="1"/>
        <pt x="1085" y="539" on="0"/>
        <pt x="1090" y="448" on="0"/>
        <pt x="1105" y="350" on="0"/>
        <pt x="1140" y="297" on="0"/>
        <pt x="1166" y="294" on="1"/>
        <pt x="1184" y="291" on="0"/>
        <pt x="1203" y="286" on="0"/>
        <pt x="1230" y="272" on="0"/>
        <pt x="1242" y="246" on="0"/>
        <pt x="1242" y="227" on="1"/>
        <pt x="1242" y="156" on="0"/>
        <pt x="1207" y="5" on="0"/>
        <pt x="1174" y="-13" on="1"/>
        <pt x="1059" y="0" on="0"/>
        <pt x="547" y="0" on="0"/>
        <pt x="432" y="-13" on="1"/>
        <pt x="399" y="5" on="0"/>
        <pt x="364" y="156" on="0"/>
        <pt x="364" y="227" on="1"/>
        <pt x="364" y="246" on="0"/>
        <pt x="376" y="272" on="0"/>
        <pt x="403" y="286" on="0"/>
        <pt x="422" y="291" on="0"/>
        <pt x="440" y="294" on="1"/>
        <pt x="466" y="297" on="0"/>
        <pt x="501" y="350" on="0"/>
        <pt x="515" y="448" on="0"/>
        <pt x="520" y="538" on="0"/>
        <pt x="520" y="605" on="1"/>
        <pt x="520" y="737" on="1"/>
        <pt x="386" y="920" on="1"/>
        <pt x="351" y="967" on="0"/>
        <pt x="301" y="1029" on="0"/>
        <pt x="224" y="1110" on="0"/>
        <pt x="141" y="1164" on="0"/>
        <pt x="97" y="1176" on="1"/>
        <pt x="85" y="1179" on="0"/>
        <pt x="42" y="1188" on="0"/>
        <pt x="26" y="1193" on="0"/>
        <pt x="-1" y="1212" on="0"/>
        <pt x="-11" y="1242" on="0"/>
        <pt x="-20" y="1296" on="0"/>
        <pt x="-20" y="1335" on="1"/>
        <pt x="-20" y="1349" on="1"/>
        <pt x="-20" y="1398" on="0"/>
        <pt x="2" y="1503" on="0"/>
        <pt x="22" y="1503" on="1"/>
        <pt x="194" y="1489" on="0"/>
        <pt x="440" y="1489" on="1"/>
        <pt x="614" y="1489" on="0"/>
        <pt x="810" y="1503" on="1"/>
        <pt x="824" y="1503" on="0"/>
        <pt x="862" y="1314" on="0"/>
        <pt x="862" y="1259" on="1"/>
        <pt x="862" y="1242" on="0"/>
        <pt x="837" y="1224" on="0"/>
        <pt x="806" y="1220" on="0"/>
        <pt x="781" y="1206" on="0"/>
        <pt x="781" y="1192" on="1"/>
        <pt x="781" y="1172" on="0"/>
        <pt x="799" y="1144" on="1"/>
        <pt x="914" y="966" on="1"/>
        <pt x="1037" y="1149" on="0"/>
        <pt x="1056" y="1178" on="1"/>
        <pt x="1064" y="1190" on="0"/>
        <pt x="1064" y="1210" on="0"/>
        <pt x="1024" y="1225" on="0"/>
        <pt x="985" y="1250" on="0"/>
        <pt x="985" y="1272" on="1"/>
        <pt x="985" y="1287" on="1"/>
        <pt x="985" y="1483" on="0"/>
        <pt x="1030" y="1503" on="1"/>
        <pt x="1132" y="1489" on="0"/>
        <pt x="1295" y="1489" on="1"/>
        <pt x="1339" y="1489" on="0"/>
        <pt x="1569" y="1503" on="0"/>
        <pt x="1601" y="1503" on="1"/>
        <pt x="1629" y="1503" on="0"/>
        <pt x="1629" y="1329" on="1"/>
        <pt x="1629" y="1295" on="1"/>
        <pt x="1629" y="1255" on="0"/>
        <pt x="1596" y="1219" on="0"/>
        <pt x="1538" y="1211" on="0"/>
        <pt x="1473" y="1204" on="0"/>
        <pt x="1394" y="1163" on="0"/>
        <pt x="1364" y="1122" on="1"/>
        <pt x="1321" y="1063" on="0"/>
        <pt x="1204" y="906" on="0"/>
        <pt x="1152" y="834" on="0"/>
        <pt x="1099" y="757" on="0"/>
        <pt x="1085" y="733" on="1"/>
      </contour>
    </TTGlyph>
    <TTGlyph name="Yacute" xMin="-20" yMin="-13" xMax="1629" yMax="2094">
      <component glyphName="acute" x="703" y="469" flags="0x1004"/>
      <component glyphName="Y" x="0" y="0" flags="0x1204"/>
    </TTGlyph>
    <TTGlyph name="Ydieresis" xMin="-20" yMin="-13" xMax="1629" yMax="1985">
      <component glyphName="dieresis" x="279" y="470" flags="0x1004"/>
      <component glyphName="Y" x="0" y="0" flags="0x1204"/>
    </TTGlyph>
    <TTGlyph name="Z" xMin="50" yMin="-13" xMax="1443" yMax="1503">
      <contour>
        <pt x="117" y="-13" on="1"/>
        <pt x="111" y="-11" on="0"/>
        <pt x="82" y="60" on="0"/>
        <pt x="56" y="165" on="0"/>
        <pt x="56" y="205" on="1"/>
        <pt x="56" y="215" on="0"/>
        <pt x="61" y="225" on="1"/>
        <pt x="134" y="343" on="0"/>
        <pt x="153" y="373" on="1"/>
        <pt x="713" y="1246" on="1"/>
        <pt x="729" y="1276" on="0"/>
        <pt x="729" y="1285" on="1"/>
        <pt x="729" y="1301" on="0"/>
        <pt x="633" y="1301" on="1"/>
        <pt x="579" y="1301" on="0"/>
        <pt x="471" y="1244" on="0"/>
        <pt x="391" y="1163" on="0"/>
        <pt x="326" y="1082" on="0"/>
        <pt x="286" y="1025" on="0"/>
        <pt x="282" y="1025" on="1"/>
        <pt x="209" y="1025" on="0"/>
        <pt x="50" y="1091" on="0"/>
        <pt x="50" y="1123" on="1"/>
        <pt x="50" y="1129" on="0"/>
        <pt x="51" y="1132" on="1"/>
        <pt x="64" y="1208" on="0"/>
        <pt x="133" y="1425" on="0"/>
        <pt x="170" y="1503" on="1"/>
        <pt x="425" y="1489" on="0"/>
        <pt x="850" y="1489" on="1"/>
        <pt x="1073" y="1489" on="0"/>
        <pt x="1369" y="1503" on="1"/>
        <pt x="1385" y="1474" on="0"/>
        <pt x="1394" y="1408" on="0"/>
        <pt x="1394" y="1314" on="1"/>
        <pt x="1394" y="1282" on="0"/>
        <pt x="1308" y="1136" on="0"/>
        <pt x="1226" y="1014" on="1"/>
        <pt x="822" y="372" on="0"/>
        <pt x="749" y="256" on="1"/>
        <pt x="748" y="255" on="0"/>
        <pt x="748" y="254" on="1"/>
        <pt x="748" y="241" on="0"/>
        <pt x="895" y="241" on="1"/>
        <pt x="952" y="241" on="0"/>
        <pt x="1056" y="305" on="0"/>
        <pt x="1127" y="397" on="0"/>
        <pt x="1181" y="489" on="0"/>
        <pt x="1213" y="553" on="0"/>
        <pt x="1216" y="553" on="1"/>
        <pt x="1270" y="553" on="0"/>
        <pt x="1382" y="514" on="0"/>
        <pt x="1443" y="472" on="0"/>
        <pt x="1443" y="463" on="1"/>
        <pt x="1438" y="383" on="0"/>
        <pt x="1337" y="62" on="0"/>
        <pt x="1299" y="-13" on="1"/>
        <pt x="1026" y="0" on="0"/>
        <pt x="686" y="0" on="1"/>
        <pt x="355" y="0" on="0"/>
      </contour>
    </TTGlyph>
    <TTGlyph name="Zacute" xMin="50" yMin="-13" xMax="1443" yMax="2094">
      <component glyphName="acute" x="664" y="469" flags="0x1004"/>
      <component glyphName="Z" x="0" y="0" flags="0x1204"/>
    </TTGlyph>
    <TTGlyph name="Zcaron" xMin="50" yMin="-13" xMax="1443" yMax="2094">
      <component glyphName="caron" x="250" y="469" flags="0x1004"/>
      <component glyphName="Z" x="0" y="0" flags="0x1204"/>
    </TTGlyph>
    <TTGlyph name="Zdotaccent" xMin="50" yMin="-13" xMax="1443" yMax="2056">
      <component glyphName="dotaccent" x="442" y="419" flags="0x1004"/>
      <component glyphName="Z" x="0" y="0" flags="0x1204"/>
    </TTGlyph>
    <TTGlyph name="a" xMin="51" yMin="-27" xMax="1319" yMax="1094">
      <contour>
        <pt x="729" y="124" on="1"/>
        <pt x="669" y="50" on="0"/>
        <pt x="489" y="-27" on="0"/>
        <pt x="394" y="-27" on="1"/>
        <pt x="303" y="-27" on="0"/>
        <pt x="167" y="28" on="0"/>
        <pt x="89" y="125" on="0"/>
        <pt x="51" y="242" on="0"/>
        <pt x="51" y="310" on="1"/>
        <pt x="51" y="377" on="0"/>
        <pt x="78" y="484" on="0"/>
        <pt x="123" y="560" on="0"/>
        <pt x="195" y="616" on="0"/>
        <pt x="273" y="649" on="0"/>
        <pt x="378" y="669" on="0"/>
        <pt x="478" y="676" on="0"/>
        <pt x="540" y="676" on="1"/>
        <pt x="577" y="676" on="0"/>
        <pt x="654" y="670" on="0"/>
        <pt x="674" y="666" on="1"/>
        <pt x="694" y="663" on="1"/>
        <pt x="694" y="781" on="1"/>
        <pt x="694" y="840" on="0"/>
        <pt x="648" y="888" on="0"/>
        <pt x="593" y="888" on="1"/>
        <pt x="545" y="888" on="0"/>
        <pt x="439" y="858" on="0"/>
        <pt x="357" y="815" on="0"/>
        <pt x="287" y="772" on="0"/>
        <pt x="268" y="757" on="1"/>
        <pt x="250" y="742" on="1"/>
        <pt x="203" y="742" on="0"/>
        <pt x="154" y="802" on="0"/>
        <pt x="154" y="858" on="1"/>
        <pt x="154" y="904" on="0"/>
        <pt x="193" y="977" on="0"/>
        <pt x="254" y="1026" on="0"/>
        <pt x="349" y="1061" on="0"/>
        <pt x="439" y="1080" on="0"/>
        <pt x="559" y="1091" on="0"/>
        <pt x="649" y="1094" on="0"/>
        <pt x="706" y="1094" on="1"/>
        <pt x="808" y="1094" on="0"/>
        <pt x="959" y="1064" on="0"/>
        <pt x="1063" y="997" on="0"/>
        <pt x="1130" y="909" on="0"/>
        <pt x="1166" y="774" on="0"/>
        <pt x="1180" y="629" on="0"/>
        <pt x="1180" y="528" on="1"/>
        <pt x="1180" y="497" on="0"/>
        <pt x="1180" y="467" on="0"/>
        <pt x="1182" y="414" on="0"/>
        <pt x="1186" y="387" on="0"/>
        <pt x="1193" y="348" on="0"/>
        <pt x="1204" y="327" on="0"/>
        <pt x="1219" y="304" on="0"/>
        <pt x="1241" y="292" on="0"/>
        <pt x="1255" y="289" on="1"/>
        <pt x="1256" y="289" on="0"/>
        <pt x="1279" y="288" on="0"/>
        <pt x="1292" y="283" on="0"/>
        <pt x="1310" y="269" on="0"/>
        <pt x="1319" y="238" on="0"/>
        <pt x="1319" y="214" on="1"/>
        <pt x="1319" y="193" on="0"/>
        <pt x="1309" y="102" on="0"/>
        <pt x="1268" y="-17" on="0"/>
        <pt x="1237" y="-27" on="1"/>
        <pt x="1232" y="-26" on="0"/>
        <pt x="1186" y="-13" on="0"/>
        <pt x="1167" y="-10" on="0"/>
        <pt x="1117" y="-3" on="0"/>
        <pt x="1056" y="-1" on="0"/>
        <pt x="1013" y="-1" on="1"/>
        <pt x="943" y="-1" on="0"/>
        <pt x="824" y="-11" on="0"/>
        <pt x="805" y="-11" on="1"/>
        <pt x="768" y="-11" on="0"/>
      </contour>
      <contour>
        <pt x="684" y="271" on="1"/>
        <pt x="694" y="320" on="0"/>
        <pt x="694" y="492" on="1"/>
        <pt x="694" y="524" on="0"/>
        <pt x="669" y="542" on="0"/>
        <pt x="610" y="542" on="1"/>
        <pt x="559" y="542" on="0"/>
        <pt x="503" y="465" on="0"/>
        <pt x="503" y="394" on="1"/>
        <pt x="503" y="326" on="0"/>
        <pt x="551" y="212" on="0"/>
        <pt x="594" y="212" on="1"/>
        <pt x="620" y="212" on="0"/>
        <pt x="677" y="251" on="0"/>
      </contour>
    </TTGlyph>
    <TTGlyph name="aacute" xMin="51" yMin="-27" xMax="1319" yMax="1673">
      <component glyphName="acute" x="597" y="48" flags="0x1004"/>
      <component glyphName="a" x="0" y="0" flags="0x1204"/>
    </TTGlyph>
    <TTGlyph name="abreve" xMin="51" yMin="-27" xMax="1319" yMax="1528">
      <component glyphName="breve" x="220" y="13" flags="0x1004"/>
      <component glyphName="a" x="0" y="0" flags="0x1204"/>
    </TTGlyph>
    <TTGlyph name="acircumflex" xMin="51" yMin="-27" xMax="1319" yMax="1673">
      <component glyphName="circumflex" x="179" y="48" flags="0x1004"/>
      <component glyphName="a" x="0" y="0" flags="0x1204"/>
    </TTGlyph>
    <TTGlyph name="acute" xMin="50" yMin="1149" xMax="620" yMax="1625">
      <contour>
        <pt x="50" y="1149" on="1"/>
        <pt x="193" y="1359" on="0"/>
        <pt x="302" y="1532" on="1"/>
        <pt x="336" y="1586" on="0"/>
        <pt x="405" y="1625" on="0"/>
        <pt x="474" y="1625" on="1"/>
        <pt x="554" y="1625" on="0"/>
        <pt x="620" y="1596" on="0"/>
        <pt x="620" y="1564" on="1"/>
        <pt x="620" y="1550" on="0"/>
        <pt x="593" y="1520" on="0"/>
        <pt x="523" y="1458" on="0"/>
        <pt x="502" y="1438" on="1"/>
        <pt x="467" y="1404" on="0"/>
        <pt x="240" y="1209" on="0"/>
        <pt x="162" y="1149" on="1"/>
      </contour>
    </TTGlyph>
    <TTGlyph name="adieresis" xMin="51" yMin="-27" xMax="1319" yMax="1564">
      <component glyphName="dieresis" x="178" y="49" flags="0x1004"/>
      <component glyphName="a" x="0" y="0" flags="0x1204"/>
    </TTGlyph>
    <TTGlyph name="ae" xMin="69" yMin="-27" xMax="1842" yMax="1095">
      <contour>
        <pt x="1751" y="98" on="1"/>
        <pt x="1620" y="-27" on="0"/>
        <pt x="1327" y="-27" on="1"/>
        <pt x="1214" y="-27" on="0"/>
        <pt x="1018" y="65" on="0"/>
        <pt x="947" y="152" on="1"/>
        <pt x="844" y="63" on="0"/>
        <pt x="564" y="-27" on="0"/>
        <pt x="412" y="-27" on="1"/>
        <pt x="321" y="-27" on="0"/>
        <pt x="185" y="28" on="0"/>
        <pt x="107" y="125" on="0"/>
        <pt x="69" y="242" on="0"/>
        <pt x="69" y="310" on="1"/>
        <pt x="69" y="377" on="0"/>
        <pt x="96" y="484" on="0"/>
        <pt x="141" y="560" on="0"/>
        <pt x="213" y="616" on="0"/>
        <pt x="291" y="649" on="0"/>
        <pt x="396" y="669" on="0"/>
        <pt x="496" y="676" on="0"/>
        <pt x="558" y="676" on="1"/>
        <pt x="598" y="676" on="0"/>
        <pt x="681" y="670" on="0"/>
        <pt x="703" y="666" on="1"/>
        <pt x="725" y="663" on="1"/>
        <pt x="725" y="781" on="1"/>
        <pt x="725" y="840" on="0"/>
        <pt x="671" y="888" on="0"/>
        <pt x="611" y="888" on="1"/>
        <pt x="563" y="888" on="0"/>
        <pt x="457" y="858" on="0"/>
        <pt x="375" y="815" on="0"/>
        <pt x="305" y="772" on="0"/>
        <pt x="286" y="757" on="1"/>
        <pt x="268" y="742" on="1"/>
        <pt x="221" y="742" on="0"/>
        <pt x="172" y="802" on="0"/>
        <pt x="172" y="858" on="1"/>
        <pt x="172" y="904" on="0"/>
        <pt x="210" y="978" on="0"/>
        <pt x="270" y="1027" on="0"/>
        <pt x="363" y="1062" on="0"/>
        <pt x="452" y="1081" on="0"/>
        <pt x="570" y="1092" on="0"/>
        <pt x="658" y="1095" on="0"/>
        <pt x="714" y="1095" on="1"/>
        <pt x="814" y="1095" on="0"/>
        <pt x="979" y="1026" on="0"/>
        <pt x="1018" y="968" on="1"/>
        <pt x="1072" y="1028" on="0"/>
        <pt x="1247" y="1095" on="0"/>
        <pt x="1340" y="1095" on="1"/>
        <pt x="1549" y="1095" on="0"/>
        <pt x="1826" y="860" on="0"/>
        <pt x="1842" y="693" on="1"/>
        <pt x="1836" y="653" on="0"/>
        <pt x="1781" y="594" on="0"/>
        <pt x="1709" y="561" on="0"/>
        <pt x="1605" y="540" on="0"/>
        <pt x="1521" y="533" on="0"/>
        <pt x="1469" y="532" on="1"/>
        <pt x="1330" y="529" on="0"/>
        <pt x="1238" y="529" on="1"/>
        <pt x="1246" y="413" on="0"/>
        <pt x="1369" y="302" on="0"/>
        <pt x="1457" y="302" on="1"/>
        <pt x="1547" y="302" on="0"/>
        <pt x="1731" y="360" on="0"/>
        <pt x="1801" y="408" on="1"/>
        <pt x="1835" y="393" on="0"/>
        <pt x="1835" y="349" on="1"/>
        <pt x="1835" y="280" on="0"/>
        <pt x="1780" y="125" on="0"/>
      </contour>
      <contour>
        <pt x="715" y="251" on="1"/>
        <pt x="725" y="304" on="0"/>
        <pt x="725" y="489" on="1"/>
        <pt x="725" y="513" on="0"/>
        <pt x="716" y="531" on="0"/>
        <pt x="675" y="542" on="0"/>
        <pt x="628" y="542" on="1"/>
        <pt x="577" y="542" on="0"/>
        <pt x="521" y="465" on="0"/>
        <pt x="521" y="394" on="1"/>
        <pt x="521" y="326" on="0"/>
        <pt x="569" y="212" on="0"/>
        <pt x="612" y="212" on="1"/>
        <pt x="641" y="212" on="0"/>
        <pt x="707" y="237" on="0"/>
      </contour>
      <contour>
        <pt x="1220" y="700" on="1"/>
        <pt x="1247" y="700" on="0"/>
        <pt x="1361" y="697" on="0"/>
        <pt x="1392" y="697" on="1"/>
        <pt x="1432" y="697" on="0"/>
        <pt x="1461" y="730" on="0"/>
        <pt x="1461" y="769" on="1"/>
        <pt x="1461" y="842" on="0"/>
        <pt x="1401" y="920" on="0"/>
        <pt x="1344" y="920" on="1"/>
        <pt x="1268" y="920" on="0"/>
        <pt x="1220" y="816" on="0"/>
      </contour>
    </TTGlyph>
    <TTGlyph name="agrave" xMin="51" yMin="-27" xMax="1319" yMax="1673">
      <component glyphName="grave" x="-165" y="48" flags="0x1004"/>
      <component glyphName="a" x="0" y="0" flags="0x1204"/>
    </TTGlyph>
    <TTGlyph name="amacron" xMin="51" yMin="-27" xMax="1319" yMax="1481">
      <component glyphName="macron" x="249" y="-8" flags="0x1004"/>
      <component glyphName="a" x="0" y="0" flags="0x1204"/>
    </TTGlyph>
    <TTGlyph name="ampersand" xMin="35" yMin="-27" xMax="1690" yMax="1516">
      <contour>
        <pt x="1503" y="543" on="1"/>
        <pt x="1436" y="391" on="0"/>
        <pt x="1362" y="285" on="1"/>
        <pt x="1364" y="282" on="0"/>
        <pt x="1370" y="278" on="1"/>
        <pt x="1408" y="233" on="0"/>
        <pt x="1513" y="233" on="1"/>
        <pt x="1551" y="233" on="0"/>
        <pt x="1632" y="246" on="0"/>
        <pt x="1675" y="258" on="0"/>
        <pt x="1679" y="260" on="1"/>
        <pt x="1681" y="261" on="0"/>
        <pt x="1686" y="226" on="0"/>
        <pt x="1690" y="169" on="0"/>
        <pt x="1690" y="142" on="1"/>
        <pt x="1690" y="14" on="0"/>
        <pt x="1670" y="10" on="1"/>
        <pt x="1532" y="-26" on="0"/>
        <pt x="1403" y="-26" on="1"/>
        <pt x="1292" y="-26" on="0"/>
        <pt x="1173" y="11" on="0"/>
        <pt x="1115" y="63" on="1"/>
        <pt x="942" y="-27" on="0"/>
        <pt x="667" y="-27" on="1"/>
        <pt x="537" y="-27" on="0"/>
        <pt x="309" y="29" on="0"/>
        <pt x="135" y="134" on="0"/>
        <pt x="35" y="298" on="0"/>
        <pt x="35" y="399" on="1"/>
        <pt x="35" y="465" on="0"/>
        <pt x="70" y="580" on="0"/>
        <pt x="127" y="666" on="0"/>
        <pt x="213" y="742" on="0"/>
        <pt x="302" y="797" on="0"/>
        <pt x="358" y="823" on="1"/>
        <pt x="214" y="1019" on="0"/>
        <pt x="214" y="1150" on="1"/>
        <pt x="214" y="1160" on="0"/>
        <pt x="216" y="1180" on="1"/>
        <pt x="225" y="1242" on="0"/>
        <pt x="283" y="1345" on="0"/>
        <pt x="361" y="1413" on="0"/>
        <pt x="461" y="1465" on="0"/>
        <pt x="554" y="1493" on="0"/>
        <pt x="650" y="1511" on="0"/>
        <pt x="712" y="1516" on="0"/>
        <pt x="736" y="1516" on="1"/>
        <pt x="872" y="1516" on="0"/>
        <pt x="1101" y="1441" on="0"/>
        <pt x="1251" y="1280" on="0"/>
        <pt x="1251" y="1170" on="1"/>
        <pt x="1251" y="1102" on="0"/>
        <pt x="1197" y="975" on="0"/>
        <pt x="1095" y="865" on="0"/>
        <pt x="987" y="779" on="0"/>
        <pt x="914" y="732" on="1"/>
        <pt x="1035" y="601" on="0"/>
        <pt x="1187" y="452" on="1"/>
        <pt x="1239" y="508" on="0"/>
        <pt x="1252" y="554" on="1"/>
        <pt x="1247" y="555" on="0"/>
        <pt x="1206" y="562" on="0"/>
        <pt x="1195" y="566" on="0"/>
        <pt x="1168" y="582" on="0"/>
        <pt x="1159" y="604" on="0"/>
        <pt x="1150" y="644" on="0"/>
        <pt x="1150" y="672" on="1"/>
        <pt x="1150" y="737" on="0"/>
        <pt x="1158" y="809" on="1"/>
        <pt x="1170" y="814" on="1"/>
        <pt x="1523" y="821" on="0"/>
        <pt x="1636" y="821" on="1"/>
        <pt x="1654" y="821" on="0"/>
        <pt x="1675" y="738" on="0"/>
        <pt x="1675" y="691" on="1"/>
        <pt x="1675" y="630" on="0"/>
        <pt x="1663" y="584" on="1"/>
        <pt x="1580" y="570" on="0"/>
      </contour>
      <contour>
        <pt x="632" y="1150" on="1"/>
        <pt x="632" y="1091" on="0"/>
        <pt x="716" y="971" on="1"/>
        <pt x="798" y="1011" on="0"/>
        <pt x="887" y="1107" on="0"/>
        <pt x="887" y="1173" on="1"/>
        <pt x="887" y="1223" on="0"/>
        <pt x="818" y="1272" on="0"/>
        <pt x="763" y="1272" on="1"/>
        <pt x="709" y="1272" on="0"/>
        <pt x="632" y="1202" on="0"/>
      </contour>
      <contour>
        <pt x="756" y="264" on="1"/>
        <pt x="820" y="264" on="0"/>
        <pt x="885" y="280" on="1"/>
        <pt x="703" y="444" on="0"/>
        <pt x="607" y="540" on="1"/>
        <pt x="530" y="481" on="0"/>
        <pt x="530" y="435" on="1"/>
        <pt x="530" y="346" on="0"/>
        <pt x="653" y="264" on="0"/>
      </contour>
    </TTGlyph>
    <TTGlyph name="aogonek" xMin="51" yMin="-447" xMax="1319" yMax="1094">
      <component glyphName="ogonek" x="775" y="2" flags="0x1004"/>
      <component glyphName="a" x="0" y="0" flags="0x1004"/>
    </TTGlyph>
    <TTGlyph name="aring" xMin="51" yMin="-27" xMax="1319" yMax="1647">
      <component glyphName="ring" x="368" y="11" flags="0x1004"/>
      <component glyphName="a" x="0" y="0" flags="0x1204"/>
    </TTGlyph>
    <TTGlyph name="asciicircum" xMin="21" yMin="620" xMax="909" yMax="1096">
      <contour>
        <pt x="390" y="1096" on="1"/>
        <pt x="540" y="1096" on="1"/>
        <pt x="607" y="1035" on="0"/>
        <pt x="794" y="840" on="0"/>
        <pt x="821" y="807" on="1"/>
        <pt x="832" y="793" on="0"/>
        <pt x="865" y="755" on="0"/>
        <pt x="883" y="734" on="0"/>
        <pt x="901" y="709" on="0"/>
        <pt x="909" y="690" on="0"/>
        <pt x="909" y="681" on="1"/>
        <pt x="909" y="649" on="0"/>
        <pt x="846" y="620" on="0"/>
        <pt x="772" y="620" on="1"/>
        <pt x="714" y="620" on="0"/>
        <pt x="657" y="651" on="0"/>
        <pt x="616" y="693" on="1"/>
        <pt x="465" y="884" on="1"/>
        <pt x="314" y="693" on="1"/>
        <pt x="273" y="651" on="0"/>
        <pt x="216" y="620" on="0"/>
        <pt x="158" y="620" on="1"/>
        <pt x="84" y="620" on="0"/>
        <pt x="21" y="649" on="0"/>
        <pt x="21" y="681" on="1"/>
        <pt x="21" y="690" on="0"/>
        <pt x="29" y="709" on="0"/>
        <pt x="47" y="734" on="0"/>
        <pt x="65" y="755" on="0"/>
        <pt x="98" y="793" on="0"/>
        <pt x="109" y="807" on="1"/>
        <pt x="136" y="840" on="0"/>
        <pt x="323" y="1035" on="0"/>
      </contour>
    </TTGlyph>
    <TTGlyph name="asciitilde" xMin="73" yMin="622" xMax="951" yMax="1032">
      <contour>
        <pt x="920" y="1026" on="1"/>
        <pt x="951" y="928" on="0"/>
        <pt x="951" y="851" on="1"/>
        <pt x="951" y="751" on="0"/>
        <pt x="850" y="629" on="0"/>
        <pt x="743" y="629" on="1"/>
        <pt x="679" y="629" on="0"/>
        <pt x="509" y="678" on="0"/>
        <pt x="372" y="727" on="0"/>
        <pt x="348" y="727" on="1"/>
        <pt x="314" y="727" on="0"/>
        <pt x="293" y="679" on="0"/>
        <pt x="293" y="637" on="1"/>
        <pt x="287" y="622" on="0"/>
        <pt x="204" y="622" on="1"/>
        <pt x="91" y="622" on="0"/>
        <pt x="88" y="637" on="1"/>
        <pt x="73" y="705" on="0"/>
        <pt x="73" y="765" on="1"/>
        <pt x="73" y="817" on="0"/>
        <pt x="96" y="905" on="0"/>
        <pt x="145" y="980" on="0"/>
        <pt x="235" y="1022" on="0"/>
        <pt x="296" y="1022" on="1"/>
        <pt x="353" y="1022" on="0"/>
        <pt x="513" y="974" on="0"/>
        <pt x="645" y="927" on="0"/>
        <pt x="667" y="927" on="1"/>
        <pt x="695" y="927" on="0"/>
        <pt x="726" y="967" on="0"/>
        <pt x="726" y="1024" on="1"/>
        <pt x="726" y="1025" on="0"/>
        <pt x="754" y="1028" on="0"/>
        <pt x="802" y="1032" on="0"/>
        <pt x="823" y="1032" on="1"/>
        <pt x="883" y="1032" on="0"/>
      </contour>
    </TTGlyph>
    <TTGlyph name="asterisk" xMin="36" yMin="283" xMax="1133" yMax="1345">
      <contour>
        <pt x="267" y="1063" on="1"/>
        <pt x="459" y="949" on="1"/>
        <pt x="404" y="1164" on="1"/>
        <pt x="402" y="1172" on="0"/>
        <pt x="402" y="1188" on="1"/>
        <pt x="402" y="1252" on="0"/>
        <pt x="514" y="1345" on="0"/>
        <pt x="656" y="1345" on="0"/>
        <pt x="768" y="1252" on="0"/>
        <pt x="768" y="1188" on="1"/>
        <pt x="768" y="1180" on="0"/>
        <pt x="766" y="1164" on="1"/>
        <pt x="711" y="949" on="1"/>
        <pt x="903" y="1063" on="1"/>
        <pt x="937" y="1080" on="0"/>
        <pt x="966" y="1080" on="1"/>
        <pt x="1032" y="1080" on="0"/>
        <pt x="1133" y="970" on="0"/>
        <pt x="1133" y="898" on="1"/>
        <pt x="1133" y="840" on="0"/>
        <pt x="1067" y="748" on="0"/>
        <pt x="1012" y="741" on="1"/>
        <pt x="780" y="722" on="1"/>
        <pt x="966" y="584" on="1"/>
        <pt x="983" y="567" on="1"/>
        <pt x="1014" y="529" on="0"/>
        <pt x="1014" y="476" on="1"/>
        <pt x="1014" y="399" on="0"/>
        <pt x="898" y="283" on="0"/>
        <pt x="817" y="283" on="1"/>
        <pt x="777" y="283" on="0"/>
        <pt x="706" y="317" on="0"/>
        <pt x="690" y="350" on="1"/>
        <pt x="584" y="576" on="1"/>
        <pt x="478" y="350" on="1"/>
        <pt x="463" y="319" on="0"/>
        <pt x="389" y="283" on="0"/>
        <pt x="351" y="283" on="1"/>
        <pt x="270" y="283" on="0"/>
        <pt x="154" y="398" on="0"/>
        <pt x="154" y="476" on="1"/>
        <pt x="154" y="529" on="0"/>
        <pt x="185" y="567" on="1"/>
        <pt x="202" y="584" on="1"/>
        <pt x="388" y="722" on="1"/>
        <pt x="158" y="741" on="1"/>
        <pt x="102" y="749" on="0"/>
        <pt x="36" y="840" on="0"/>
        <pt x="36" y="898" on="1"/>
        <pt x="36" y="970" on="0"/>
        <pt x="138" y="1080" on="0"/>
        <pt x="204" y="1080" on="1"/>
        <pt x="236" y="1080" on="0"/>
      </contour>
    </TTGlyph>
    <TTGlyph name="at" xMin="59" yMin="-171" xMax="1779" yMax="1516">
      <contour>
        <pt x="1417" y="381" on="1"/>
        <pt x="1442" y="381" on="0"/>
        <pt x="1483" y="400" on="0"/>
        <pt x="1512" y="428" on="0"/>
        <pt x="1536" y="476" on="0"/>
        <pt x="1550" y="519" on="0"/>
        <pt x="1561" y="587" on="0"/>
        <pt x="1566" y="633" on="0"/>
        <pt x="1569" y="708" on="0"/>
        <pt x="1569" y="746" on="0"/>
        <pt x="1569" y="781" on="1"/>
        <pt x="1569" y="909" on="0"/>
        <pt x="1469" y="1118" on="0"/>
        <pt x="1301" y="1251" on="0"/>
        <pt x="1090" y="1322" on="0"/>
        <pt x="975" y="1322" on="1"/>
        <pt x="847" y="1322" on="0"/>
        <pt x="623" y="1245" on="0"/>
        <pt x="462" y="1114" on="0"/>
        <pt x="346" y="942" on="0"/>
        <pt x="289" y="748" on="0"/>
        <pt x="289" y="648" on="1"/>
        <pt x="289" y="552" on="0"/>
        <pt x="339" y="375" on="0"/>
        <pt x="447" y="217" on="0"/>
        <pt x="602" y="99" on="0"/>
        <pt x="825" y="31" on="0"/>
        <pt x="959" y="31" on="1"/>
        <pt x="1243" y="31" on="0"/>
        <pt x="1500" y="175" on="1"/>
        <pt x="1534" y="144" on="0"/>
        <pt x="1534" y="82" on="1"/>
        <pt x="1534" y="43" on="0"/>
        <pt x="1444" y="-46" on="0"/>
        <pt x="1297" y="-121" on="0"/>
        <pt x="1088" y="-171" on="0"/>
        <pt x="980" y="-171" on="1"/>
        <pt x="769" y="-171" on="0"/>
        <pt x="419" y="-44" on="0"/>
        <pt x="186" y="178" on="0"/>
        <pt x="59" y="478" on="0"/>
        <pt x="59" y="652" on="1"/>
        <pt x="59" y="782" on="0"/>
        <pt x="132" y="1031" on="0"/>
        <pt x="283" y="1252" on="0"/>
        <pt x="496" y="1419" on="0"/>
        <pt x="797" y="1516" on="0"/>
        <pt x="972" y="1516" on="1"/>
        <pt x="1137" y="1516" on="0"/>
        <pt x="1432" y="1412" on="0"/>
        <pt x="1651" y="1226" on="0"/>
        <pt x="1779" y="952" on="0"/>
        <pt x="1779" y="790" on="1"/>
        <pt x="1779" y="658" on="0"/>
        <pt x="1705" y="442" on="0"/>
        <pt x="1581" y="307" on="0"/>
        <pt x="1426" y="234" on="0"/>
        <pt x="1341" y="234" on="1"/>
        <pt x="1179" y="234" on="0"/>
        <pt x="1069" y="366" on="1"/>
        <pt x="1022" y="294" on="0"/>
        <pt x="875" y="218" on="0"/>
        <pt x="799" y="218" on="1"/>
        <pt x="722" y="218" on="0"/>
        <pt x="606" y="261" on="0"/>
        <pt x="539" y="337" on="0"/>
        <pt x="507" y="430" on="0"/>
        <pt x="507" y="485" on="1"/>
        <pt x="507" y="552" on="0"/>
        <pt x="547" y="650" on="0"/>
        <pt x="610" y="706" on="0"/>
        <pt x="710" y="739" on="0"/>
        <pt x="809" y="749" on="0"/>
        <pt x="877" y="749" on="1"/>
        <pt x="904" y="749" on="0"/>
        <pt x="960" y="744" on="0"/>
        <pt x="974" y="742" on="1"/>
        <pt x="989" y="739" on="1"/>
        <pt x="989" y="862" on="1"/>
        <pt x="989" y="906" on="0"/>
        <pt x="955" y="943" on="0"/>
        <pt x="917" y="943" on="1"/>
        <pt x="859" y="943" on="0"/>
        <pt x="730" y="888" on="0"/>
        <pt x="694" y="860" on="1"/>
        <pt x="658" y="833" on="1"/>
        <pt x="585" y="833" on="0"/>
        <pt x="585" y="919" on="1"/>
        <pt x="585" y="960" on="0"/>
        <pt x="622" y="1022" on="0"/>
        <pt x="691" y="1060" on="0"/>
        <pt x="767" y="1085" on="0"/>
        <pt x="873" y="1095" on="0"/>
        <pt x="952" y="1099" on="0"/>
        <pt x="1003" y="1099" on="1"/>
        <pt x="1076" y="1099" on="0"/>
        <pt x="1184" y="1075" on="0"/>
        <pt x="1260" y="1020" on="0"/>
        <pt x="1308" y="948" on="0"/>
        <pt x="1335" y="836" on="0"/>
        <pt x="1345" y="716" on="0"/>
        <pt x="1345" y="632" on="1"/>
        <pt x="1345" y="600" on="0"/>
        <pt x="1345" y="568" on="0"/>
        <pt x="1347" y="513" on="0"/>
        <pt x="1351" y="485" on="0"/>
        <pt x="1357" y="444" on="0"/>
        <pt x="1368" y="422" on="0"/>
        <pt x="1383" y="398" on="0"/>
        <pt x="1404" y="384" on="0"/>
      </contour>
      <contour>
        <pt x="980" y="444" on="1"/>
        <pt x="989" y="481" on="0"/>
        <pt x="989" y="609" on="1"/>
        <pt x="989" y="634" on="0"/>
        <pt x="970" y="648" on="0"/>
        <pt x="929" y="648" on="1"/>
        <pt x="891" y="648" on="0"/>
        <pt x="848" y="591" on="0"/>
        <pt x="848" y="537" on="1"/>
        <pt x="848" y="486" on="0"/>
        <pt x="885" y="399" on="0"/>
        <pt x="917" y="399" on="1"/>
        <pt x="935" y="399" on="0"/>
        <pt x="975" y="428" on="0"/>
      </contour>
    </TTGlyph>
    <TTGlyph name="atilde" xMin="51" yMin="-27" xMax="1319" yMax="1575">
      <component glyphName="tilde" x="173" y="34" flags="0x1004"/>
      <component glyphName="a" x="0" y="0" flags="0x1204"/>
    </TTGlyph>
    <TTGlyph name="b" xMin="34" yMin="-27" xMax="1449" yMax="1516">
      <contour>
        <pt x="719" y="1415" on="1"/>
        <pt x="719" y="1411" on="0"/>
        <pt x="714" y="1270" on="0"/>
        <pt x="709" y="1089" on="0"/>
        <pt x="709" y="1038" on="1"/>
        <pt x="824" y="1094" on="0"/>
        <pt x="950" y="1094" on="1"/>
        <pt x="1048" y="1094" on="0"/>
        <pt x="1227" y="1027" on="0"/>
        <pt x="1366" y="906" on="0"/>
        <pt x="1449" y="720" on="0"/>
        <pt x="1449" y="609" on="1"/>
        <pt x="1449" y="460" on="0"/>
        <pt x="1349" y="216" on="0"/>
        <pt x="1176" y="58" on="0"/>
        <pt x="947" y="-27" on="0"/>
        <pt x="817" y="-27" on="1"/>
        <pt x="611" y="-27" on="0"/>
        <pt x="436" y="67" on="1"/>
        <pt x="296" y="-14" on="0"/>
        <pt x="200" y="-14" on="1"/>
        <pt x="94" y="-14" on="0"/>
        <pt x="94" y="91" on="1"/>
        <pt x="94" y="108" on="0"/>
        <pt x="117" y="149" on="0"/>
        <pt x="150" y="184" on="0"/>
        <pt x="184" y="214" on="0"/>
        <pt x="196" y="222" on="1"/>
        <pt x="207" y="231" on="1"/>
        <pt x="224" y="363" on="0"/>
        <pt x="224" y="1021" on="1"/>
        <pt x="224" y="1054" on="0"/>
        <pt x="222" y="1094" on="0"/>
        <pt x="207" y="1154" on="0"/>
        <pt x="179" y="1190" on="0"/>
        <pt x="124" y="1221" on="0"/>
        <pt x="84" y="1225" on="1"/>
        <pt x="52" y="1228" on="0"/>
        <pt x="34" y="1252" on="0"/>
        <pt x="34" y="1285" on="1"/>
        <pt x="34" y="1354" on="0"/>
        <pt x="68" y="1497" on="0"/>
        <pt x="98" y="1516" on="1"/>
        <pt x="260" y="1489" on="0"/>
        <pt x="443" y="1489" on="1"/>
        <pt x="495" y="1489" on="0"/>
        <pt x="629" y="1502" on="0"/>
        <pt x="646" y="1502" on="1"/>
        <pt x="691" y="1502" on="0"/>
        <pt x="719" y="1469" on="0"/>
      </contour>
      <contour>
        <pt x="709" y="514" on="1"/>
        <pt x="709" y="441" on="0"/>
        <pt x="718" y="333" on="0"/>
        <pt x="742" y="241" on="0"/>
        <pt x="786" y="193" on="0"/>
        <pt x="819" y="193" on="1"/>
        <pt x="920" y="193" on="0"/>
        <pt x="920" y="538" on="1"/>
        <pt x="920" y="695" on="0"/>
        <pt x="867" y="887" on="0"/>
        <pt x="816" y="887" on="1"/>
        <pt x="797" y="887" on="0"/>
        <pt x="766" y="873" on="0"/>
        <pt x="744" y="841" on="0"/>
        <pt x="728" y="806" on="0"/>
        <pt x="718" y="747" on="0"/>
        <pt x="712" y="698" on="0"/>
        <pt x="710" y="618" on="0"/>
        <pt x="709" y="561" on="0"/>
      </contour>
    </TTGlyph>
    <TTGlyph name="backslash" xMin="62" yMin="3" xMax="1150" yMax="1587">
      <contour>
        <pt x="1121" y="188" on="1"/>
        <pt x="1150" y="130" on="0"/>
        <pt x="1150" y="106" on="1"/>
        <pt x="1150" y="77" on="0"/>
        <pt x="1109" y="34" on="0"/>
        <pt x="1045" y="13" on="0"/>
        <pt x="983" y="3" on="0"/>
        <pt x="954" y="3" on="1"/>
        <pt x="918" y="3" on="0"/>
        <pt x="862" y="17" on="0"/>
        <pt x="826" y="38" on="0"/>
        <pt x="793" y="80" on="0"/>
        <pt x="773" y="116" on="0"/>
        <pt x="758" y="148" on="1"/>
        <pt x="625" y="429" on="0"/>
        <pt x="458" y="773" on="0"/>
        <pt x="216" y="1232" on="0"/>
        <pt x="111" y="1400" on="1"/>
        <pt x="62" y="1478" on="0"/>
        <pt x="62" y="1512" on="1"/>
        <pt x="62" y="1550" on="0"/>
        <pt x="155" y="1587" on="0"/>
        <pt x="266" y="1587" on="1"/>
        <pt x="391" y="1587" on="0"/>
        <pt x="430" y="1510" on="1"/>
        <pt x="529" y="1313" on="0"/>
      </contour>
    </TTGlyph>
    <TTGlyph name="bar" xMin="93" yMin="-160" xMax="446" yMax="1636">
      <contour>
        <pt x="102" y="709" on="1"/>
        <pt x="102" y="731" on="0"/>
        <pt x="93" y="1546" on="0"/>
        <pt x="93" y="1568" on="1"/>
        <pt x="93" y="1608" on="0"/>
        <pt x="182" y="1636" on="0"/>
        <pt x="289" y="1636" on="1"/>
        <pt x="372" y="1636" on="0"/>
        <pt x="446" y="1617" on="0"/>
        <pt x="446" y="1585" on="1"/>
        <pt x="446" y="1567" on="0"/>
        <pt x="444" y="1473" on="0"/>
        <pt x="441" y="1257" on="0"/>
        <pt x="441" y="1089" on="1"/>
        <pt x="441" y="848" on="0"/>
        <pt x="441" y="443" on="0"/>
        <pt x="442" y="200" on="0"/>
        <pt x="442" y="32" on="0"/>
        <pt x="442" y="-55" on="0"/>
        <pt x="442" y="-63" on="1"/>
        <pt x="442" y="-90" on="0"/>
        <pt x="421" y="-128" on="0"/>
        <pt x="392" y="-147" on="0"/>
        <pt x="341" y="-158" on="0"/>
        <pt x="301" y="-160" on="0"/>
        <pt x="269" y="-160" on="1"/>
        <pt x="231" y="-160" on="0"/>
        <pt x="187" y="-157" on="0"/>
        <pt x="133" y="-144" on="0"/>
        <pt x="107" y="-111" on="0"/>
        <pt x="107" y="-85" on="1"/>
        <pt x="107" y="-34" on="0"/>
        <pt x="102" y="531" on="0"/>
      </contour>
    </TTGlyph>
    <TTGlyph name="braceleft" xMin="44" yMin="-218" xMax="927" yMax="1586">
      <contour>
        <pt x="127" y="583" on="0"/>
        <pt x="75" y="583" on="0"/>
        <pt x="44" y="644" on="0"/>
        <pt x="44" y="685" on="1"/>
        <pt x="44" y="725" on="0"/>
        <pt x="75" y="785" on="0"/>
        <pt x="127" y="785" on="0"/>
        <pt x="165" y="794" on="0"/>
        <pt x="192" y="805" on="0"/>
        <pt x="209" y="834" on="0"/>
        <pt x="218" y="856" on="0"/>
        <pt x="222" y="908" on="0"/>
        <pt x="223" y="942" on="0"/>
        <pt x="223" y="979" on="1"/>
        <pt x="223" y="1107" on="0"/>
        <pt x="281" y="1316" on="0"/>
        <pt x="375" y="1453" on="0"/>
        <pt x="500" y="1546" on="0"/>
        <pt x="631" y="1586" on="0"/>
        <pt x="698" y="1586" on="1"/>
        <pt x="793" y="1586" on="0"/>
        <pt x="927" y="1523" on="0"/>
        <pt x="927" y="1476" on="1"/>
        <pt x="927" y="1362" on="0"/>
        <pt x="811" y="1362" on="1"/>
        <pt x="796" y="1362" on="0"/>
        <pt x="738" y="1376" on="0"/>
        <pt x="728" y="1376" on="1"/>
        <pt x="695" y="1376" on="0"/>
        <pt x="662" y="1327" on="0"/>
        <pt x="646" y="1179" on="0"/>
        <pt x="646" y="1029" on="1"/>
        <pt x="646" y="790" on="0"/>
        <pt x="427" y="684" on="1"/>
        <pt x="646" y="577" on="0"/>
        <pt x="646" y="339" on="1"/>
        <pt x="646" y="189" on="0"/>
        <pt x="662" y="41" on="0"/>
        <pt x="695" y="-8" on="0"/>
        <pt x="728" y="-8" on="1"/>
        <pt x="737" y="-8" on="0"/>
        <pt x="795" y="5" on="0"/>
        <pt x="811" y="5" on="1"/>
        <pt x="865" y="5" on="0"/>
        <pt x="927" y="-44" on="0"/>
        <pt x="927" y="-108" on="1"/>
        <pt x="927" y="-155" on="0"/>
        <pt x="794" y="-218" on="0"/>
        <pt x="698" y="-218" on="1"/>
        <pt x="631" y="-218" on="0"/>
        <pt x="500" y="-178" on="0"/>
        <pt x="375" y="-85" on="0"/>
        <pt x="281" y="52" on="0"/>
        <pt x="223" y="261" on="0"/>
        <pt x="223" y="389" on="1"/>
        <pt x="223" y="426" on="0"/>
        <pt x="222" y="460" on="0"/>
        <pt x="218" y="512" on="0"/>
        <pt x="209" y="534" on="0"/>
        <pt x="192" y="563" on="0"/>
        <pt x="165" y="574" on="0"/>
      </contour>
    </TTGlyph>
    <TTGlyph name="braceright" xMin="40" yMin="-218" xMax="923" yMax="1586">
      <contour>
        <pt x="892" y="583" on="0"/>
        <pt x="840" y="583" on="0"/>
        <pt x="802" y="574" on="0"/>
        <pt x="775" y="563" on="0"/>
        <pt x="758" y="534" on="0"/>
        <pt x="749" y="512" on="0"/>
        <pt x="745" y="460" on="0"/>
        <pt x="744" y="426" on="0"/>
        <pt x="744" y="389" on="1"/>
        <pt x="744" y="261" on="0"/>
        <pt x="686" y="52" on="0"/>
        <pt x="592" y="-85" on="0"/>
        <pt x="467" y="-178" on="0"/>
        <pt x="336" y="-218" on="0"/>
        <pt x="269" y="-218" on="1"/>
        <pt x="173" y="-218" on="0"/>
        <pt x="40" y="-155" on="0"/>
        <pt x="40" y="-108" on="1"/>
        <pt x="40" y="-44" on="0"/>
        <pt x="102" y="5" on="0"/>
        <pt x="156" y="5" on="1"/>
        <pt x="172" y="5" on="0"/>
        <pt x="230" y="-8" on="0"/>
        <pt x="239" y="-8" on="1"/>
        <pt x="272" y="-8" on="0"/>
        <pt x="305" y="41" on="0"/>
        <pt x="321" y="189" on="0"/>
        <pt x="321" y="339" on="1"/>
        <pt x="321" y="577" on="0"/>
        <pt x="540" y="684" on="1"/>
        <pt x="321" y="790" on="0"/>
        <pt x="321" y="1029" on="1"/>
        <pt x="321" y="1179" on="0"/>
        <pt x="305" y="1327" on="0"/>
        <pt x="272" y="1376" on="0"/>
        <pt x="239" y="1376" on="1"/>
        <pt x="230" y="1376" on="0"/>
        <pt x="172" y="1362" on="0"/>
        <pt x="156" y="1362" on="1"/>
        <pt x="40" y="1362" on="0"/>
        <pt x="40" y="1476" on="1"/>
        <pt x="40" y="1523" on="0"/>
        <pt x="174" y="1586" on="0"/>
        <pt x="269" y="1586" on="1"/>
        <pt x="336" y="1586" on="0"/>
        <pt x="467" y="1546" on="0"/>
        <pt x="592" y="1453" on="0"/>
        <pt x="686" y="1316" on="0"/>
        <pt x="744" y="1107" on="0"/>
        <pt x="744" y="979" on="1"/>
        <pt x="744" y="942" on="0"/>
        <pt x="745" y="908" on="0"/>
        <pt x="749" y="856" on="0"/>
        <pt x="758" y="834" on="0"/>
        <pt x="775" y="805" on="0"/>
        <pt x="802" y="794" on="0"/>
        <pt x="840" y="785" on="0"/>
        <pt x="892" y="785" on="0"/>
        <pt x="923" y="725" on="0"/>
        <pt x="923" y="685" on="1"/>
        <pt x="923" y="644" on="0"/>
      </contour>
    </TTGlyph>
    <TTGlyph name="bracketleft" xMin="134" yMin="-127" xMax="909" yMax="1516">
      <contour>
        <pt x="680" y="1054" on="1"/>
        <pt x="680" y="295" on="1"/>
        <pt x="680" y="270" on="0"/>
        <pt x="682" y="240" on="0"/>
        <pt x="696" y="216" on="0"/>
        <pt x="706" y="206" on="0"/>
        <pt x="747" y="198" on="0"/>
        <pt x="776" y="196" on="0"/>
        <pt x="813" y="194" on="1"/>
        <pt x="831" y="192" on="0"/>
        <pt x="851" y="188" on="0"/>
        <pt x="881" y="179" on="0"/>
        <pt x="897" y="166" on="0"/>
        <pt x="909" y="143" on="0"/>
        <pt x="909" y="127" on="1"/>
        <pt x="909" y="52" on="0"/>
        <pt x="868" y="-108" on="0"/>
        <pt x="831" y="-127" on="1"/>
        <pt x="649" y="-100" on="0"/>
        <pt x="402" y="-100" on="1"/>
        <pt x="347" y="-100" on="0"/>
        <pt x="194" y="-108" on="0"/>
        <pt x="179" y="-108" on="1"/>
        <pt x="176" y="-108" on="0"/>
        <pt x="165" y="-107" on="0"/>
        <pt x="163" y="-107" on="1"/>
        <pt x="135" y="-97" on="0"/>
        <pt x="135" y="88" on="1"/>
        <pt x="135" y="1262" on="1"/>
        <pt x="135" y="1273" on="0"/>
        <pt x="134" y="1329" on="0"/>
        <pt x="134" y="1345" on="1"/>
        <pt x="134" y="1487" on="0"/>
        <pt x="160" y="1496" on="1"/>
        <pt x="162" y="1496" on="0"/>
        <pt x="173" y="1497" on="0"/>
        <pt x="176" y="1497" on="1"/>
        <pt x="191" y="1497" on="0"/>
        <pt x="344" y="1489" on="0"/>
        <pt x="399" y="1489" on="1"/>
        <pt x="646" y="1489" on="0"/>
        <pt x="828" y="1516" on="1"/>
        <pt x="865" y="1497" on="0"/>
        <pt x="906" y="1337" on="0"/>
        <pt x="906" y="1262" on="1"/>
        <pt x="906" y="1243" on="0"/>
        <pt x="890" y="1217" on="0"/>
        <pt x="858" y="1203" on="0"/>
        <pt x="831" y="1197" on="0"/>
        <pt x="810" y="1195" on="1"/>
        <pt x="721" y="1189" on="0"/>
        <pt x="680" y="1144" on="0"/>
      </contour>
    </TTGlyph>
    <TTGlyph name="bracketright" xMin="91" yMin="-127" xMax="866" yMax="1516">
      <contour>
        <pt x="320" y="295" on="1"/>
        <pt x="320" y="1054" on="1"/>
        <pt x="320" y="1144" on="0"/>
        <pt x="279" y="1189" on="0"/>
        <pt x="190" y="1195" on="1"/>
        <pt x="169" y="1197" on="0"/>
        <pt x="142" y="1203" on="0"/>
        <pt x="110" y="1217" on="0"/>
        <pt x="94" y="1243" on="0"/>
        <pt x="94" y="1262" on="1"/>
        <pt x="94" y="1337" on="0"/>
        <pt x="135" y="1497" on="0"/>
        <pt x="172" y="1516" on="1"/>
        <pt x="354" y="1489" on="0"/>
        <pt x="601" y="1489" on="1"/>
        <pt x="656" y="1489" on="0"/>
        <pt x="809" y="1497" on="0"/>
        <pt x="824" y="1497" on="1"/>
        <pt x="827" y="1497" on="0"/>
        <pt x="838" y="1496" on="0"/>
        <pt x="840" y="1496" on="1"/>
        <pt x="866" y="1487" on="0"/>
        <pt x="866" y="1345" on="1"/>
        <pt x="866" y="1329" on="0"/>
        <pt x="865" y="1273" on="0"/>
        <pt x="865" y="1262" on="1"/>
        <pt x="865" y="88" on="1"/>
        <pt x="865" y="-97" on="0"/>
        <pt x="837" y="-107" on="1"/>
        <pt x="835" y="-107" on="0"/>
        <pt x="824" y="-108" on="0"/>
        <pt x="821" y="-108" on="1"/>
        <pt x="806" y="-108" on="0"/>
        <pt x="653" y="-100" on="0"/>
        <pt x="598" y="-100" on="1"/>
        <pt x="351" y="-100" on="0"/>
        <pt x="169" y="-127" on="1"/>
        <pt x="132" y="-108" on="0"/>
        <pt x="91" y="52" on="0"/>
        <pt x="91" y="127" on="1"/>
        <pt x="91" y="146" on="0"/>
        <pt x="106" y="172" on="0"/>
        <pt x="140" y="186" on="0"/>
        <pt x="164" y="191" on="0"/>
        <pt x="187" y="194" on="1"/>
        <pt x="224" y="196" on="0"/>
        <pt x="253" y="198" on="0"/>
        <pt x="294" y="206" on="0"/>
        <pt x="304" y="216" on="0"/>
        <pt x="318" y="240" on="0"/>
        <pt x="320" y="270" on="0"/>
      </contour>
    </TTGlyph>
    <TTGlyph name="breve" xMin="83" yMin="1184" xMax="889" yMax="1515">
      <contour>
        <pt x="483" y="1184" on="1"/>
        <pt x="318" y="1184" on="0"/>
        <pt x="98" y="1358" on="0"/>
        <pt x="83" y="1515" on="1"/>
        <pt x="377" y="1515" on="1"/>
        <pt x="379" y="1441" on="0"/>
        <pt x="423" y="1374" on="0"/>
        <pt x="483" y="1374" on="1"/>
        <pt x="544" y="1374" on="0"/>
        <pt x="593" y="1442" on="0"/>
        <pt x="595" y="1515" on="1"/>
        <pt x="889" y="1515" on="1"/>
        <pt x="874" y="1358" on="0"/>
        <pt x="649" y="1184" on="0"/>
      </contour>
    </TTGlyph>
    <TTGlyph name="brokenbar" xMin="92" yMin="-160" xMax="433" yMax="1636">
      <contour>
        <pt x="432" y="586" on="1"/>
        <pt x="432" y="479" on="0"/>
        <pt x="433" y="49" on="0"/>
        <pt x="433" y="-63" on="1"/>
        <pt x="433" y="-90" on="0"/>
        <pt x="412" y="-128" on="0"/>
        <pt x="383" y="-147" on="0"/>
        <pt x="332" y="-158" on="0"/>
        <pt x="292" y="-160" on="0"/>
        <pt x="260" y="-160" on="1"/>
        <pt x="222" y="-160" on="0"/>
        <pt x="178" y="-157" on="0"/>
        <pt x="124" y="-144" on="0"/>
        <pt x="98" y="-111" on="0"/>
        <pt x="98" y="-85" on="1"/>
        <pt x="98" y="-55" on="0"/>
        <pt x="92" y="417" on="0"/>
        <pt x="92" y="551" on="1"/>
        <pt x="92" y="606" on="0"/>
        <pt x="159" y="637" on="0"/>
        <pt x="275" y="637" on="1"/>
        <pt x="358" y="637" on="0"/>
        <pt x="432" y="618" on="0"/>
      </contour>
      <contour>
        <pt x="432" y="1585" on="1"/>
        <pt x="433" y="987" on="1"/>
        <pt x="433" y="960" on="0"/>
        <pt x="412" y="922" on="0"/>
        <pt x="383" y="903" on="0"/>
        <pt x="332" y="892" on="0"/>
        <pt x="292" y="890" on="0"/>
        <pt x="260" y="890" on="1"/>
        <pt x="222" y="890" on="0"/>
        <pt x="178" y="893" on="0"/>
        <pt x="124" y="906" on="0"/>
        <pt x="98" y="939" on="0"/>
        <pt x="98" y="965" on="1"/>
        <pt x="98" y="994" on="0"/>
        <pt x="93" y="1148" on="0"/>
        <pt x="93" y="1205" on="1"/>
        <pt x="93" y="1226" on="0"/>
        <pt x="92" y="1546" on="0"/>
        <pt x="92" y="1568" on="1"/>
        <pt x="92" y="1608" on="0"/>
        <pt x="170" y="1636" on="0"/>
        <pt x="275" y="1636" on="1"/>
        <pt x="358" y="1636" on="0"/>
        <pt x="432" y="1617" on="0"/>
      </contour>
    </TTGlyph>
    <TTGlyph name="bullet" xMin="52" yMin="300" xMax="887" yMax="1067">
      <contour>
        <pt x="472" y="300" on="1"/>
        <pt x="372" y="300" on="0"/>
        <pt x="209" y="367" on="0"/>
        <pt x="107" y="478" on="0"/>
        <pt x="52" y="616" on="0"/>
        <pt x="52" y="690" on="1"/>
        <pt x="52" y="763" on="0"/>
        <pt x="105" y="895" on="0"/>
        <pt x="207" y="1003" on="0"/>
        <pt x="372" y="1067" on="0"/>
        <pt x="475" y="1067" on="1"/>
        <pt x="576" y="1067" on="0"/>
        <pt x="737" y="1004" on="0"/>
        <pt x="835" y="897" on="0"/>
        <pt x="887" y="766" on="0"/>
        <pt x="887" y="693" on="1"/>
        <pt x="887" y="619" on="0"/>
        <pt x="833" y="480" on="0"/>
        <pt x="732" y="368" on="0"/>
        <pt x="570" y="300" on="0"/>
      </contour>
    </TTGlyph>
    <TTGlyph name="c" xMin="38" yMin="-27" xMax="1120" yMax="1094">
      <contour>
        <pt x="1089" y="390" on="1"/>
        <pt x="1120" y="340" on="1"/>
        <pt x="1120" y="165" on="0"/>
        <pt x="896" y="-27" on="0"/>
        <pt x="660" y="-27" on="1"/>
        <pt x="509" y="-27" on="0"/>
        <pt x="267" y="66" on="0"/>
        <pt x="117" y="221" on="0"/>
        <pt x="38" y="414" on="0"/>
        <pt x="38" y="519" on="1"/>
        <pt x="38" y="633" on="0"/>
        <pt x="116" y="837" on="0"/>
        <pt x="266" y="999" on="0"/>
        <pt x="507" y="1094" on="0"/>
        <pt x="659" y="1094" on="1"/>
        <pt x="865" y="1094" on="0"/>
        <pt x="1075" y="951" on="0"/>
        <pt x="1075" y="855" on="1"/>
        <pt x="1075" y="781" on="0"/>
        <pt x="953" y="674" on="0"/>
        <pt x="855" y="674" on="1"/>
        <pt x="743" y="908" on="1"/>
        <pt x="732" y="919" on="0"/>
        <pt x="634" y="919" on="0"/>
        <pt x="568" y="834" on="0"/>
        <pt x="541" y="707" on="0"/>
        <pt x="541" y="629" on="1"/>
        <pt x="541" y="477" on="0"/>
        <pt x="681" y="307" on="0"/>
        <pt x="786" y="307" on="1"/>
        <pt x="947" y="307" on="0"/>
      </contour>
    </TTGlyph>
    <TTGlyph name="cacute" xMin="38" yMin="-27" xMax="1120" yMax="1673">
      <component glyphName="acute" x="484" y="48" flags="0x1004"/>
      <component glyphName="c" x="0" y="0" flags="0x1204"/>
    </TTGlyph>
    <TTGlyph name="caron" xMin="76" yMin="1149" xMax="964" yMax="1625">
      <contour>
        <pt x="595" y="1149" on="1"/>
        <pt x="445" y="1149" on="1"/>
        <pt x="378" y="1210" on="0"/>
        <pt x="191" y="1405" on="0"/>
        <pt x="164" y="1438" on="1"/>
        <pt x="153" y="1452" on="0"/>
        <pt x="120" y="1490" on="0"/>
        <pt x="102" y="1511" on="0"/>
        <pt x="84" y="1536" on="0"/>
        <pt x="76" y="1555" on="0"/>
        <pt x="76" y="1564" on="1"/>
        <pt x="76" y="1596" on="0"/>
        <pt x="139" y="1625" on="0"/>
        <pt x="213" y="1625" on="1"/>
        <pt x="271" y="1625" on="0"/>
        <pt x="328" y="1594" on="0"/>
        <pt x="369" y="1552" on="1"/>
        <pt x="520" y="1361" on="1"/>
        <pt x="671" y="1552" on="1"/>
        <pt x="712" y="1594" on="0"/>
        <pt x="769" y="1625" on="0"/>
        <pt x="827" y="1625" on="1"/>
        <pt x="901" y="1625" on="0"/>
        <pt x="964" y="1596" on="0"/>
        <pt x="964" y="1564" on="1"/>
        <pt x="964" y="1555" on="0"/>
        <pt x="956" y="1536" on="0"/>
        <pt x="938" y="1511" on="0"/>
        <pt x="920" y="1490" on="0"/>
        <pt x="887" y="1452" on="0"/>
        <pt x="876" y="1438" on="1"/>
        <pt x="849" y="1405" on="0"/>
        <pt x="662" y="1210" on="0"/>
      </contour>
    </TTGlyph>
    <TTGlyph name="ccaron" xMin="38" yMin="-27" xMax="1120" yMax="1673">
      <component glyphName="caron" x="139" y="48" flags="0x1004"/>
      <component glyphName="c" x="0" y="0" flags="0x1204"/>
    </TTGlyph>
    <TTGlyph name="ccedilla" xMin="38" yMin="-514" xMax="1120" yMax="1094">
      <component glyphName="cedilla" x="485" y="-21" flags="0x1004"/>
      <component glyphName="c" x="0" y="0" flags="0x1204"/>
    </TTGlyph>
    <TTGlyph name="cdotaccent" xMin="38" yMin="-27" xMax="1120" yMax="1635">
      <component glyphName="dotaccent" x="332" y="-2" flags="0x1004"/>
      <component glyphName="c" x="0" y="0" flags="0x1204"/>
    </TTGlyph>
    <TTGlyph name="cedilla" xMin="66" yMin="-493" xMax="476" yMax="11">
      <contour>
        <pt x="66" y="-480" on="1"/>
        <pt x="98" y="-308" on="1"/>
        <pt x="147" y="-323" on="0"/>
        <pt x="190" y="-323" on="1"/>
        <pt x="237" y="-323" on="0"/>
        <pt x="288" y="-280" on="0"/>
        <pt x="288" y="-250" on="1"/>
        <pt x="288" y="-216" on="0"/>
        <pt x="226" y="-164" on="0"/>
        <pt x="172" y="-164" on="1"/>
        <pt x="148" y="-164" on="0"/>
        <pt x="120" y="-170" on="1"/>
        <pt x="120" y="11" on="1"/>
        <pt x="224" y="11" on="1"/>
        <pt x="224" y="-65" on="1"/>
        <pt x="293" y="-67" on="0"/>
        <pt x="397" y="-111" on="0"/>
        <pt x="451" y="-180" on="0"/>
        <pt x="476" y="-251" on="0"/>
        <pt x="476" y="-287" on="1"/>
        <pt x="476" y="-374" on="0"/>
        <pt x="333" y="-493" on="0"/>
        <pt x="200" y="-493" on="1"/>
        <pt x="134" y="-493" on="0"/>
      </contour>
    </TTGlyph>
    <TTGlyph name="cent" xMin="61" yMin="-304" xMax="1143" yMax="1516">
      <contour>
        <pt x="1112" y="480" on="1"/>
        <pt x="1143" y="430" on="1"/>
        <pt x="1143" y="149" on="0"/>
        <pt x="870" y="83" on="1"/>
        <pt x="870" y="-261" on="1"/>
        <pt x="869" y="-264" on="0"/>
        <pt x="866" y="-290" on="0"/>
        <pt x="862" y="-292" on="0"/>
        <pt x="845" y="-303" on="0"/>
        <pt x="812" y="-304" on="0"/>
        <pt x="783" y="-304" on="1"/>
        <pt x="762" y="-304" on="0"/>
        <pt x="741" y="-287" on="0"/>
        <pt x="741" y="-262" on="1"/>
        <pt x="741" y="-219" on="0"/>
        <pt x="738" y="12" on="0"/>
        <pt x="738" y="64" on="1"/>
        <pt x="720" y="63" on="0"/>
        <pt x="683" y="63" on="1"/>
        <pt x="650" y="63" on="1"/>
        <pt x="650" y="-261" on="1"/>
        <pt x="649" y="-264" on="0"/>
        <pt x="646" y="-290" on="0"/>
        <pt x="642" y="-292" on="0"/>
        <pt x="625" y="-303" on="0"/>
        <pt x="592" y="-304" on="0"/>
        <pt x="563" y="-304" on="1"/>
        <pt x="542" y="-304" on="0"/>
        <pt x="521" y="-287" on="0"/>
        <pt x="521" y="-262" on="1"/>
        <pt x="521" y="-217" on="0"/>
        <pt x="518" y="24" on="0"/>
        <pt x="518" y="79" on="1"/>
        <pt x="371" y="108" on="0"/>
        <pt x="160" y="273" on="0"/>
        <pt x="61" y="488" on="0"/>
        <pt x="61" y="609" on="1"/>
        <pt x="61" y="708" on="0"/>
        <pt x="119" y="888" on="0"/>
        <pt x="232" y="1039" on="0"/>
        <pt x="412" y="1148" on="0"/>
        <pt x="526" y="1170" on="1"/>
        <pt x="524" y="1465" on="0"/>
        <pt x="521" y="1483" on="1"/>
        <pt x="521" y="1516" on="0"/>
        <pt x="600" y="1516" on="1"/>
        <pt x="651" y="1516" on="0"/>
        <pt x="658" y="1495" on="1"/>
        <pt x="650" y="1391" on="0"/>
        <pt x="650" y="1350" on="1"/>
        <pt x="650" y="1184" on="1"/>
        <pt x="660" y="1185" on="0"/>
        <pt x="704" y="1185" on="0"/>
        <pt x="746" y="1183" on="1"/>
        <pt x="744" y="1464" on="0"/>
        <pt x="741" y="1483" on="1"/>
        <pt x="741" y="1516" on="0"/>
        <pt x="820" y="1516" on="1"/>
        <pt x="871" y="1516" on="0"/>
        <pt x="878" y="1495" on="1"/>
        <pt x="870" y="1391" on="0"/>
        <pt x="870" y="1350" on="1"/>
        <pt x="870" y="1167" on="1"/>
        <pt x="985" y="1145" on="0"/>
        <pt x="1106" y="1020" on="0"/>
        <pt x="1106" y="870" on="0"/>
        <pt x="989" y="762" on="0"/>
        <pt x="889" y="762" on="1"/>
        <pt x="788" y="970" on="1"/>
        <pt x="765" y="983" on="0"/>
        <pt x="716" y="983" on="1"/>
        <pt x="630" y="983" on="0"/>
        <pt x="544" y="830" on="0"/>
        <pt x="544" y="719" on="1"/>
        <pt x="544" y="567" on="0"/>
        <pt x="695" y="397" on="0"/>
        <pt x="809" y="397" on="1"/>
        <pt x="970" y="397" on="0"/>
      </contour>
    </TTGlyph>
    <TTGlyph name="circumflex" xMin="83" yMin="1149" xMax="971" yMax="1625">
      <contour>
        <pt x="452" y="1625" on="1"/>
        <pt x="602" y="1625" on="1"/>
        <pt x="669" y="1564" on="0"/>
        <pt x="856" y="1369" on="0"/>
        <pt x="883" y="1336" on="1"/>
        <pt x="894" y="1322" on="0"/>
        <pt x="927" y="1284" on="0"/>
        <pt x="945" y="1263" on="0"/>
        <pt x="963" y="1238" on="0"/>
        <pt x="971" y="1219" on="0"/>
        <pt x="971" y="1210" on="1"/>
        <pt x="971" y="1178" on="0"/>
        <pt x="908" y="1149" on="0"/>
        <pt x="834" y="1149" on="1"/>
        <pt x="776" y="1149" on="0"/>
        <pt x="719" y="1180" on="0"/>
        <pt x="678" y="1222" on="1"/>
        <pt x="527" y="1413" on="1"/>
        <pt x="376" y="1222" on="1"/>
        <pt x="335" y="1180" on="0"/>
        <pt x="278" y="1149" on="0"/>
        <pt x="220" y="1149" on="1"/>
        <pt x="146" y="1149" on="0"/>
        <pt x="83" y="1178" on="0"/>
        <pt x="83" y="1210" on="1"/>
        <pt x="83" y="1219" on="0"/>
        <pt x="91" y="1238" on="0"/>
        <pt x="109" y="1263" on="0"/>
        <pt x="127" y="1284" on="0"/>
        <pt x="160" y="1322" on="0"/>
        <pt x="171" y="1336" on="1"/>
        <pt x="198" y="1369" on="0"/>
        <pt x="385" y="1564" on="0"/>
      </contour>
    </TTGlyph>
    <TTGlyph name="colon" xMin="61" yMin="38" xMax="539" yMax="1188">
      <contour>
        <pt x="61" y="165" on="0"/>
        <pt x="61" y="349" on="0"/>
        <pt x="185" y="476" on="0"/>
        <pt x="304" y="476" on="1"/>
        <pt x="421" y="476" on="0"/>
        <pt x="539" y="347" on="0"/>
        <pt x="539" y="167" on="0"/>
        <pt x="421" y="38" on="0"/>
        <pt x="304" y="38" on="1"/>
        <pt x="185" y="38" on="0"/>
      </contour>
      <contour>
        <pt x="61" y="877" on="0"/>
        <pt x="61" y="1061" on="0"/>
        <pt x="185" y="1188" on="0"/>
        <pt x="304" y="1188" on="1"/>
        <pt x="421" y="1188" on="0"/>
        <pt x="539" y="1059" on="0"/>
        <pt x="539" y="879" on="0"/>
        <pt x="421" y="750" on="0"/>
        <pt x="304" y="750" on="1"/>
        <pt x="185" y="750" on="0"/>
      </contour>
    </TTGlyph>
    <TTGlyph name="comma" xMin="58" yMin="-210" xMax="553" yMax="442">
      <contour>
        <pt x="108" y="-155" on="1"/>
        <pt x="108" y="-137" on="0"/>
        <pt x="166" y="-78" on="0"/>
        <pt x="223" y="-13" on="0"/>
        <pt x="223" y="12" on="1"/>
        <pt x="223" y="21" on="0"/>
        <pt x="189" y="37" on="0"/>
        <pt x="140" y="58" on="0"/>
        <pt x="92" y="92" on="0"/>
        <pt x="58" y="164" on="0"/>
        <pt x="58" y="214" on="1"/>
        <pt x="58" y="316" on="0"/>
        <pt x="194" y="442" on="0"/>
        <pt x="304" y="442" on="1"/>
        <pt x="408" y="442" on="0"/>
        <pt x="553" y="304" on="0"/>
        <pt x="553" y="204" on="1"/>
        <pt x="553" y="144" on="0"/>
        <pt x="491" y="-1" on="0"/>
        <pt x="392" y="-126" on="0"/>
        <pt x="256" y="-210" on="0"/>
        <pt x="190" y="-210" on="1"/>
        <pt x="153" y="-210" on="0"/>
        <pt x="108" y="-176" on="0"/>
      </contour>
    </TTGlyph>
    <TTGlyph name="copyright" xMin="63" yMin="-27" xMax="1655" yMax="1516">
      <contour>
        <pt x="866" y="-27" on="1"/>
        <pt x="707" y="-27" on="0"/>
        <pt x="419" y="78" on="0"/>
        <pt x="195" y="270" on="0"/>
        <pt x="63" y="568" on="0"/>
        <pt x="63" y="748" on="1"/>
        <pt x="63" y="983" on="0"/>
        <pt x="273" y="1334" on="0"/>
        <pt x="639" y="1516" on="0"/>
        <pt x="873" y="1516" on="1"/>
        <pt x="1046" y="1516" on="0"/>
        <pt x="1340" y="1400" on="0"/>
        <pt x="1542" y="1198" on="0"/>
        <pt x="1655" y="919" on="0"/>
        <pt x="1655" y="758" on="1"/>
        <pt x="1655" y="535" on="0"/>
        <pt x="1443" y="173" on="0"/>
        <pt x="1083" y="-27" on="0"/>
      </contour>
      <contour>
        <pt x="867" y="111" on="1"/>
        <pt x="1038" y="111" on="0"/>
        <pt x="1323" y="276" on="0"/>
        <pt x="1491" y="574" on="0"/>
        <pt x="1491" y="758" on="1"/>
        <pt x="1491" y="936" on="0"/>
        <pt x="1339" y="1219" on="0"/>
        <pt x="1056" y="1382" on="0"/>
        <pt x="873" y="1382" on="1"/>
        <pt x="688" y="1382" on="0"/>
        <pt x="399" y="1233" on="0"/>
        <pt x="232" y="943" on="0"/>
        <pt x="232" y="750" on="1"/>
        <pt x="232" y="602" on="0"/>
        <pt x="337" y="356" on="0"/>
        <pt x="514" y="197" on="0"/>
        <pt x="741" y="111" on="0"/>
      </contour>
      <contour>
        <pt x="899" y="322" on="1"/>
        <pt x="784" y="322" on="0"/>
        <pt x="600" y="397" on="0"/>
        <pt x="489" y="523" on="0"/>
        <pt x="431" y="677" on="0"/>
        <pt x="431" y="761" on="1"/>
        <pt x="431" y="842" on="0"/>
        <pt x="483" y="991" on="0"/>
        <pt x="578" y="1110" on="0"/>
        <pt x="730" y="1182" on="0"/>
        <pt x="822" y="1182" on="1"/>
        <pt x="884" y="1182" on="0"/>
        <pt x="974" y="1160" on="0"/>
        <pt x="1028" y="1130" on="1"/>
        <pt x="1026" y="1144" on="0"/>
        <pt x="1026" y="1147" on="1"/>
        <pt x="1026" y="1164" on="0"/>
        <pt x="1051" y="1175" on="0"/>
        <pt x="1093" y="1175" on="1"/>
        <pt x="1141" y="1175" on="0"/>
        <pt x="1183" y="1159" on="0"/>
        <pt x="1210" y="1101" on="0"/>
        <pt x="1220" y="1035" on="1"/>
        <pt x="1228" y="984" on="0"/>
        <pt x="1228" y="960" on="1"/>
        <pt x="1228" y="923" on="0"/>
        <pt x="1207" y="905" on="0"/>
        <pt x="1168" y="902" on="1"/>
        <pt x="1113" y="897" on="0"/>
        <pt x="1107" y="897" on="1"/>
        <pt x="1086" y="897" on="0"/>
        <pt x="1067" y="927" on="1"/>
        <pt x="1038" y="974" on="0"/>
        <pt x="958" y="1025" on="0"/>
        <pt x="918" y="1025" on="1"/>
        <pt x="858" y="1025" on="0"/>
        <pt x="777" y="923" on="0"/>
        <pt x="777" y="831" on="1"/>
        <pt x="777" y="706" on="0"/>
        <pt x="915" y="552" on="0"/>
        <pt x="1015" y="552" on="1"/>
        <pt x="1119" y="552" on="0"/>
        <pt x="1216" y="607" on="1"/>
        <pt x="1237" y="568" on="0"/>
        <pt x="1237" y="528" on="1"/>
        <pt x="1237" y="444" on="0"/>
        <pt x="1056" y="322" on="0"/>
      </contour>
    </TTGlyph>
</ttFont>
